G04*
G04 #@! TF.GenerationSoftware,Altium Limited,Altium Designer,24.8.2 (39)*
G04*
G04 Layer_Color=8388736*
%FSLAX25Y25*%
%MOIN*%
G70*
G04*
G04 #@! TF.SameCoordinates,F580BFCB-8435-4B95-B66A-8E6D2DB6F108*
G04*
G04*
G04 #@! TF.FilePolarity,Negative*
G04*
G01*
G75*
G04:AMPARAMS|DCode=41|XSize=81mil|YSize=115.84mil|CornerRadius=12.38mil|HoleSize=0mil|Usage=FLASHONLY|Rotation=180.000|XOffset=0mil|YOffset=0mil|HoleType=Round|Shape=RoundedRectangle|*
%AMROUNDEDRECTD41*
21,1,0.08100,0.09109,0,0,180.0*
21,1,0.05625,0.11584,0,0,180.0*
1,1,0.02475,-0.02813,0.04555*
1,1,0.02475,0.02813,0.04555*
1,1,0.02475,0.02813,-0.04555*
1,1,0.02475,-0.02813,-0.04555*
%
%ADD41ROUNDEDRECTD41*%
G04:AMPARAMS|DCode=42|XSize=38.76mil|YSize=31.08mil|CornerRadius=9.27mil|HoleSize=0mil|Usage=FLASHONLY|Rotation=0.000|XOffset=0mil|YOffset=0mil|HoleType=Round|Shape=RoundedRectangle|*
%AMROUNDEDRECTD42*
21,1,0.03876,0.01254,0,0,0.0*
21,1,0.02022,0.03108,0,0,0.0*
1,1,0.01854,0.01011,-0.00627*
1,1,0.01854,-0.01011,-0.00627*
1,1,0.01854,-0.01011,0.00627*
1,1,0.01854,0.01011,0.00627*
%
%ADD42ROUNDEDRECTD42*%
G04:AMPARAMS|DCode=43|XSize=48.91mil|YSize=20.96mil|CornerRadius=6.97mil|HoleSize=0mil|Usage=FLASHONLY|Rotation=0.000|XOffset=0mil|YOffset=0mil|HoleType=Round|Shape=RoundedRectangle|*
%AMROUNDEDRECTD43*
21,1,0.04891,0.00703,0,0,0.0*
21,1,0.03498,0.02096,0,0,0.0*
1,1,0.01393,0.01749,-0.00352*
1,1,0.01393,-0.01749,-0.00352*
1,1,0.01393,-0.01749,0.00352*
1,1,0.01393,0.01749,0.00352*
%
%ADD43ROUNDEDRECTD43*%
G04:AMPARAMS|DCode=44|XSize=59.54mil|YSize=21.35mil|CornerRadius=6.92mil|HoleSize=0mil|Usage=FLASHONLY|Rotation=270.000|XOffset=0mil|YOffset=0mil|HoleType=Round|Shape=RoundedRectangle|*
%AMROUNDEDRECTD44*
21,1,0.05954,0.00752,0,0,270.0*
21,1,0.04571,0.02135,0,0,270.0*
1,1,0.01383,-0.00376,-0.02286*
1,1,0.01383,-0.00376,0.02286*
1,1,0.01383,0.00376,0.02286*
1,1,0.01383,0.00376,-0.02286*
%
%ADD44ROUNDEDRECTD44*%
G04:AMPARAMS|DCode=45|XSize=67.02mil|YSize=29.62mil|CornerRadius=8.91mil|HoleSize=0mil|Usage=FLASHONLY|Rotation=0.000|XOffset=0mil|YOffset=0mil|HoleType=Round|Shape=RoundedRectangle|*
%AMROUNDEDRECTD45*
21,1,0.06702,0.01181,0,0,0.0*
21,1,0.04921,0.02962,0,0,0.0*
1,1,0.01781,0.02461,-0.00591*
1,1,0.01781,-0.02461,-0.00591*
1,1,0.01781,-0.02461,0.00591*
1,1,0.01781,0.02461,0.00591*
%
%ADD45ROUNDEDRECTD45*%
G04:AMPARAMS|DCode=46|XSize=38.28mil|YSize=44.58mil|CornerRadius=11.23mil|HoleSize=0mil|Usage=FLASHONLY|Rotation=0.000|XOffset=0mil|YOffset=0mil|HoleType=Round|Shape=RoundedRectangle|*
%AMROUNDEDRECTD46*
21,1,0.03828,0.02212,0,0,0.0*
21,1,0.01582,0.04458,0,0,0.0*
1,1,0.02246,0.00791,-0.01106*
1,1,0.02246,-0.00791,-0.01106*
1,1,0.02246,-0.00791,0.01106*
1,1,0.02246,0.00791,0.01106*
%
%ADD46ROUNDEDRECTD46*%
%ADD47R,0.02470X0.01387*%
%ADD48R,0.10736X0.01681*%
G04:AMPARAMS|DCode=49|XSize=37.5mil|YSize=33.56mil|CornerRadius=9.89mil|HoleSize=0mil|Usage=FLASHONLY|Rotation=180.000|XOffset=0mil|YOffset=0mil|HoleType=Round|Shape=RoundedRectangle|*
%AMROUNDEDRECTD49*
21,1,0.03750,0.01378,0,0,180.0*
21,1,0.01772,0.03356,0,0,180.0*
1,1,0.01978,-0.00886,0.00689*
1,1,0.01978,0.00886,0.00689*
1,1,0.01978,0.00886,-0.00689*
1,1,0.01978,-0.00886,-0.00689*
%
%ADD49ROUNDEDRECTD49*%
G04:AMPARAMS|DCode=50|XSize=21.75mil|YSize=21.75mil|CornerRadius=6.94mil|HoleSize=0mil|Usage=FLASHONLY|Rotation=180.000|XOffset=0mil|YOffset=0mil|HoleType=Round|Shape=RoundedRectangle|*
%AMROUNDEDRECTD50*
21,1,0.02175,0.00787,0,0,180.0*
21,1,0.00787,0.02175,0,0,180.0*
1,1,0.01387,-0.00394,0.00394*
1,1,0.01387,0.00394,0.00394*
1,1,0.01387,0.00394,-0.00394*
1,1,0.01387,-0.00394,-0.00394*
%
%ADD50ROUNDEDRECTD50*%
%ADD51R,0.02568X0.08474*%
G04:AMPARAMS|DCode=52|XSize=40.25mil|YSize=44.19mil|CornerRadius=11.73mil|HoleSize=0mil|Usage=FLASHONLY|Rotation=270.000|XOffset=0mil|YOffset=0mil|HoleType=Round|Shape=RoundedRectangle|*
%AMROUNDEDRECTD52*
21,1,0.04025,0.02072,0,0,270.0*
21,1,0.01678,0.04419,0,0,270.0*
1,1,0.02347,-0.01036,-0.00839*
1,1,0.02347,-0.01036,0.00839*
1,1,0.02347,0.01036,0.00839*
1,1,0.02347,0.01036,-0.00839*
%
%ADD52ROUNDEDRECTD52*%
G04:AMPARAMS|DCode=53|XSize=40.25mil|YSize=44.19mil|CornerRadius=11.73mil|HoleSize=0mil|Usage=FLASHONLY|Rotation=180.000|XOffset=0mil|YOffset=0mil|HoleType=Round|Shape=RoundedRectangle|*
%AMROUNDEDRECTD53*
21,1,0.04025,0.02072,0,0,180.0*
21,1,0.01678,0.04419,0,0,180.0*
1,1,0.02347,-0.00839,0.01036*
1,1,0.02347,0.00839,0.01036*
1,1,0.02347,0.00839,-0.01036*
1,1,0.02347,-0.00839,-0.01036*
%
%ADD53ROUNDEDRECTD53*%
G04:AMPARAMS|DCode=54|XSize=21.75mil|YSize=21.75mil|CornerRadius=6.94mil|HoleSize=0mil|Usage=FLASHONLY|Rotation=90.000|XOffset=0mil|YOffset=0mil|HoleType=Round|Shape=RoundedRectangle|*
%AMROUNDEDRECTD54*
21,1,0.02175,0.00787,0,0,90.0*
21,1,0.00787,0.02175,0,0,90.0*
1,1,0.01387,0.00394,0.00394*
1,1,0.01387,0.00394,-0.00394*
1,1,0.01387,-0.00394,-0.00394*
1,1,0.01387,-0.00394,0.00394*
%
%ADD54ROUNDEDRECTD54*%
G04:AMPARAMS|DCode=55|XSize=37.5mil|YSize=33.56mil|CornerRadius=9.89mil|HoleSize=0mil|Usage=FLASHONLY|Rotation=90.000|XOffset=0mil|YOffset=0mil|HoleType=Round|Shape=RoundedRectangle|*
%AMROUNDEDRECTD55*
21,1,0.03750,0.01378,0,0,90.0*
21,1,0.01772,0.03356,0,0,90.0*
1,1,0.01978,0.00689,0.00886*
1,1,0.01978,0.00689,-0.00886*
1,1,0.01978,-0.00689,-0.00886*
1,1,0.01978,-0.00689,0.00886*
%
%ADD55ROUNDEDRECTD55*%
%ADD56C,0.12000*%
G04:AMPARAMS|DCode=57|XSize=38.28mil|YSize=44.58mil|CornerRadius=11.23mil|HoleSize=0mil|Usage=FLASHONLY|Rotation=90.000|XOffset=0mil|YOffset=0mil|HoleType=Round|Shape=RoundedRectangle|*
%AMROUNDEDRECTD57*
21,1,0.03828,0.02212,0,0,90.0*
21,1,0.01582,0.04458,0,0,90.0*
1,1,0.02246,0.01106,0.00791*
1,1,0.02246,0.01106,-0.00791*
1,1,0.02246,-0.01106,-0.00791*
1,1,0.02246,-0.01106,0.00791*
%
%ADD57ROUNDEDRECTD57*%
G04:AMPARAMS|DCode=58|XSize=67.02mil|YSize=29.62mil|CornerRadius=8.91mil|HoleSize=0mil|Usage=FLASHONLY|Rotation=90.000|XOffset=0mil|YOffset=0mil|HoleType=Round|Shape=RoundedRectangle|*
%AMROUNDEDRECTD58*
21,1,0.06702,0.01181,0,0,90.0*
21,1,0.04921,0.02962,0,0,90.0*
1,1,0.01781,0.00591,0.02461*
1,1,0.01781,0.00591,-0.02461*
1,1,0.01781,-0.00591,-0.02461*
1,1,0.01781,-0.00591,0.02461*
%
%ADD58ROUNDEDRECTD58*%
%ADD59R,0.08474X0.08474*%
%ADD60C,0.06506*%
%ADD61O,0.09555X0.06406*%
%ADD62O,0.13492X0.06406*%
%ADD63C,0.06781*%
%ADD64C,0.24222*%
%ADD65C,0.05718*%
%ADD66C,0.06899*%
%ADD67C,0.10836*%
%ADD68R,0.09655X0.09655*%
D41*
X167953Y335000D02*
D03*
X187047D02*
D03*
X167953Y310000D02*
D03*
X187047D02*
D03*
D42*
X176239Y271740D02*
D03*
Y268000D02*
D03*
Y264260D02*
D03*
X166066D02*
D03*
Y268000D02*
D03*
Y271740D02*
D03*
X427413Y308740D02*
D03*
Y305000D02*
D03*
Y301260D02*
D03*
X437587D02*
D03*
Y305000D02*
D03*
Y308740D02*
D03*
D43*
X178583Y235000D02*
D03*
X171417Y232441D02*
D03*
Y237559D02*
D03*
X278917Y235000D02*
D03*
X286083Y237559D02*
D03*
Y232441D02*
D03*
D44*
X411161Y388858D02*
D03*
X413721D02*
D03*
X416280D02*
D03*
X418839D02*
D03*
Y411142D02*
D03*
X416280D02*
D03*
X413721D02*
D03*
X411161D02*
D03*
D45*
X308130Y345000D02*
D03*
Y350000D02*
D03*
Y355000D02*
D03*
Y360000D02*
D03*
X286870D02*
D03*
Y355000D02*
D03*
Y350000D02*
D03*
Y345000D02*
D03*
D46*
X275551Y367500D02*
D03*
X269449D02*
D03*
X120551Y345000D02*
D03*
X114449D02*
D03*
X226949Y440000D02*
D03*
X233051D02*
D03*
X429449Y405000D02*
D03*
X435551D02*
D03*
Y395000D02*
D03*
X429449D02*
D03*
X160551Y232000D02*
D03*
X154449D02*
D03*
X356386Y451000D02*
D03*
X362488D02*
D03*
X320551Y407500D02*
D03*
X314449D02*
D03*
X210551D02*
D03*
X204449D02*
D03*
X378051Y335000D02*
D03*
X371949D02*
D03*
X184449Y435000D02*
D03*
X190551D02*
D03*
X356386Y441000D02*
D03*
X362488D02*
D03*
X190551Y425000D02*
D03*
X184449D02*
D03*
X269449Y357500D02*
D03*
X275551D02*
D03*
X168051Y282500D02*
D03*
X161949D02*
D03*
X275551Y347500D02*
D03*
X269449D02*
D03*
X185601Y260500D02*
D03*
X191703D02*
D03*
X302551Y232500D02*
D03*
X296449D02*
D03*
X168051Y247500D02*
D03*
X161949D02*
D03*
D47*
X153474Y421563D02*
D03*
Y423531D02*
D03*
X156526Y421563D02*
D03*
Y423531D02*
D03*
X153474Y425500D02*
D03*
Y427468D02*
D03*
Y429437D02*
D03*
X156526D02*
D03*
Y427468D02*
D03*
Y425500D02*
D03*
Y393468D02*
D03*
Y395437D02*
D03*
Y387563D02*
D03*
Y389531D02*
D03*
Y391500D02*
D03*
X153474Y395437D02*
D03*
Y393468D02*
D03*
Y391500D02*
D03*
Y389531D02*
D03*
Y387563D02*
D03*
X156526Y405063D02*
D03*
Y407031D02*
D03*
Y409000D02*
D03*
Y410968D02*
D03*
Y412937D02*
D03*
X153474D02*
D03*
Y410968D02*
D03*
Y409000D02*
D03*
Y407031D02*
D03*
Y405063D02*
D03*
D48*
X135591Y427716D02*
D03*
Y425748D02*
D03*
Y423779D02*
D03*
Y421811D02*
D03*
Y419842D02*
D03*
Y417874D02*
D03*
Y415906D02*
D03*
Y413937D02*
D03*
Y411969D02*
D03*
Y410000D02*
D03*
Y408032D02*
D03*
Y406063D02*
D03*
Y404095D02*
D03*
Y402126D02*
D03*
Y400157D02*
D03*
Y398189D02*
D03*
Y396220D02*
D03*
Y394252D02*
D03*
Y392284D02*
D03*
D49*
X183563Y220000D02*
D03*
X191437D02*
D03*
X268563D02*
D03*
X276437D02*
D03*
D50*
X187500Y221378D02*
D03*
X272500D02*
D03*
D51*
X216634Y334898D02*
D03*
X219784D02*
D03*
X222933D02*
D03*
X226083D02*
D03*
X229233D02*
D03*
X232382D02*
D03*
X235532D02*
D03*
X238682D02*
D03*
X241831D02*
D03*
X244981D02*
D03*
X243406Y367182D02*
D03*
X240256D02*
D03*
X237107D02*
D03*
X233957D02*
D03*
X230807D02*
D03*
X227658D02*
D03*
X224508D02*
D03*
X221359D02*
D03*
X218209D02*
D03*
X215059D02*
D03*
D52*
X320000Y337047D02*
D03*
Y342953D02*
D03*
X330000Y337047D02*
D03*
Y342953D02*
D03*
X342500Y412047D02*
D03*
Y417953D02*
D03*
X332500Y412047D02*
D03*
Y417953D02*
D03*
X237500Y419547D02*
D03*
Y425453D02*
D03*
X227500Y419547D02*
D03*
Y425453D02*
D03*
X358000Y315047D02*
D03*
Y320953D02*
D03*
X392500Y415453D02*
D03*
Y409547D02*
D03*
X402500Y415453D02*
D03*
Y409547D02*
D03*
D53*
X282047Y320000D02*
D03*
X287953D02*
D03*
X282047Y332500D02*
D03*
X287953D02*
D03*
X352047Y330000D02*
D03*
X357953D02*
D03*
X445453Y320000D02*
D03*
X439547D02*
D03*
X445453Y330000D02*
D03*
X439547D02*
D03*
X162047Y292500D02*
D03*
X167953D02*
D03*
X173953Y353000D02*
D03*
X168047D02*
D03*
X185699Y270500D02*
D03*
X191605D02*
D03*
D54*
X101378Y295000D02*
D03*
D55*
X100000Y291063D02*
D03*
Y298937D02*
D03*
D56*
X450000Y437500D02*
D03*
X120000Y267500D02*
D03*
X450000D02*
D03*
D57*
X122500Y298051D02*
D03*
Y291949D02*
D03*
X337500Y434449D02*
D03*
Y440551D02*
D03*
X390000Y285551D02*
D03*
Y279449D02*
D03*
X329000Y367386D02*
D03*
Y373488D02*
D03*
X386000Y344449D02*
D03*
Y350551D02*
D03*
X395000Y378051D02*
D03*
Y371949D02*
D03*
X420000Y378051D02*
D03*
Y371949D02*
D03*
X415000Y428051D02*
D03*
Y421949D02*
D03*
X407500Y378051D02*
D03*
Y371949D02*
D03*
X432500Y378051D02*
D03*
Y371949D02*
D03*
X292500Y279449D02*
D03*
Y285551D02*
D03*
X282500Y279449D02*
D03*
Y285551D02*
D03*
X270000Y231949D02*
D03*
Y238051D02*
D03*
X272500Y285551D02*
D03*
Y279449D02*
D03*
X377500Y285551D02*
D03*
Y279449D02*
D03*
X437500Y284449D02*
D03*
Y290551D02*
D03*
X365000Y279449D02*
D03*
Y285551D02*
D03*
X156152Y268551D02*
D03*
Y262449D02*
D03*
D58*
X320000Y440630D02*
D03*
X315000D02*
D03*
Y419370D02*
D03*
X320000D02*
D03*
X325000Y440630D02*
D03*
X310000D02*
D03*
Y419370D02*
D03*
X325000D02*
D03*
X205000D02*
D03*
X210000D02*
D03*
X215000Y440630D02*
D03*
X210000D02*
D03*
X205000D02*
D03*
X200000D02*
D03*
Y419370D02*
D03*
X215000D02*
D03*
X367500Y299370D02*
D03*
X372500D02*
D03*
X377500D02*
D03*
X382500D02*
D03*
Y320630D02*
D03*
X377500D02*
D03*
X372500D02*
D03*
X367500D02*
D03*
D59*
X201949Y347500D02*
D03*
X258051Y367185D02*
D03*
Y327815D02*
D03*
X245571Y308130D02*
D03*
X224311D02*
D03*
X201949D02*
D03*
Y268760D02*
D03*
Y229390D02*
D03*
X235728D02*
D03*
X258051Y288445D02*
D03*
Y249075D02*
D03*
D60*
X201949Y357343D02*
D03*
Y337657D02*
D03*
X258051Y357343D02*
D03*
Y337657D02*
D03*
Y319153D02*
D03*
X201949D02*
D03*
X248917Y375453D02*
D03*
X230020D02*
D03*
X211122D02*
D03*
D61*
X109134Y438543D02*
D03*
Y381457D02*
D03*
D62*
X132598Y438543D02*
D03*
Y381457D02*
D03*
D63*
X142500Y277000D02*
D03*
X341000Y388000D02*
D03*
X367500Y410000D02*
D03*
X410000Y294500D02*
D03*
X407000Y323500D02*
D03*
X432500Y444000D02*
D03*
X285000Y257500D02*
D03*
X155000Y440000D02*
D03*
X447500Y297500D02*
D03*
D64*
X120000Y465200D02*
D03*
X450000D02*
D03*
Y240000D02*
D03*
X120000D02*
D03*
D65*
X155000Y330000D02*
D03*
X115000D02*
D03*
X125000Y320000D02*
D03*
X135000Y330000D02*
D03*
D66*
X248918Y351040D02*
D03*
X211122D02*
D03*
D67*
X337500Y244806D02*
D03*
Y224806D02*
D03*
X317500Y244806D02*
D03*
Y224806D02*
D03*
Y460394D02*
D03*
Y480394D02*
D03*
X337500Y460394D02*
D03*
Y480394D02*
D03*
X390000Y460394D02*
D03*
Y480394D02*
D03*
X410000Y460394D02*
D03*
Y480394D02*
D03*
X232500Y460394D02*
D03*
Y480394D02*
D03*
X252500Y460394D02*
D03*
Y480394D02*
D03*
X160000Y460394D02*
D03*
Y480394D02*
D03*
X180000Y460394D02*
D03*
Y480394D02*
D03*
X410000Y244806D02*
D03*
Y224806D02*
D03*
X390000Y244806D02*
D03*
Y224806D02*
D03*
D68*
X327500Y234806D02*
D03*
Y470394D02*
D03*
X400000D02*
D03*
X242500D02*
D03*
X170000D02*
D03*
X400000Y234806D02*
D03*
M02*
