G04*
G04 #@! TF.GenerationSoftware,Altium Limited,Altium Designer,24.8.2 (39)*
G04*
G04 Layer_Physical_Order=3*
G04 Layer_Color=16440176*
%FSLAX25Y25*%
%MOIN*%
G70*
G04*
G04 #@! TF.SameCoordinates,F580BFCB-8435-4B95-B66A-8E6D2DB6F108*
G04*
G04*
G04 #@! TF.FilePolarity,Positive*
G04*
G01*
G75*
%ADD76C,0.03000*%
%ADD78R,0.07874X0.07874*%
%ADD79C,0.05906*%
%ADD80O,0.09055X0.05906*%
%ADD81O,0.12992X0.05906*%
%ADD82C,0.06181*%
%ADD83C,0.23622*%
%ADD84C,0.05118*%
%ADD86C,0.10236*%
%ADD88C,0.02400*%
G36*
X473471Y448500D02*
X423321Y448500D01*
X422838Y448700D01*
X422162D01*
X421679Y448500D01*
X411000D01*
X405000Y454500D01*
X405000Y465366D01*
X405028D01*
Y475421D01*
X394972D01*
Y465366D01*
X395000D01*
Y455000D01*
X388500Y448500D01*
X363904D01*
X363463Y448941D01*
X362838Y449200D01*
X362162D01*
X361537Y448941D01*
X361096Y448500D01*
X338789D01*
X332644Y454644D01*
Y466014D01*
X332528Y466131D01*
Y475421D01*
X322472D01*
Y465366D01*
X322382Y465276D01*
Y454382D01*
X316500Y448500D01*
X253500Y448500D01*
X247608Y454392D01*
X247608Y465392D01*
X247528Y465472D01*
Y475421D01*
X237472D01*
Y465366D01*
X237500D01*
Y454500D01*
X231500Y448500D01*
X211633D01*
X211441Y448963D01*
X210963Y449441D01*
X210338Y449700D01*
X209662D01*
X209037Y449441D01*
X208559Y448963D01*
X208367Y448500D01*
X206633D01*
X206441Y448963D01*
X205963Y449441D01*
X205338Y449700D01*
X204662D01*
X204037Y449441D01*
X203559Y448963D01*
X203367Y448500D01*
X181000D01*
X175054Y454446D01*
Y465340D01*
X175028Y465366D01*
Y475421D01*
X164972D01*
Y465929D01*
X164910Y465866D01*
Y455910D01*
X163000Y454000D01*
X156000D01*
X145500Y443500D01*
Y433500D01*
X150500Y428500D01*
X162500D01*
X163500Y427500D01*
X163500Y424500D01*
X162628Y423628D01*
X148372D01*
X138000Y434000D01*
X116500D01*
X112000Y429500D01*
Y414799D01*
X115799Y411000D01*
X126596D01*
X127037Y410559D01*
X127662Y410300D01*
X128338D01*
X128963Y410559D01*
X129404Y411000D01*
X151539D01*
X152539Y410000D01*
Y407425D01*
X151783Y406668D01*
X129063D01*
X128941Y406963D01*
X128463Y407441D01*
X127838Y407700D01*
X127162D01*
X126537Y407441D01*
X126059Y406963D01*
X125937Y406668D01*
X116168D01*
X112000Y402500D01*
X112000Y390177D01*
X116177Y386000D01*
X139000D01*
X146500Y393500D01*
X162500D01*
X163298Y392702D01*
X163059Y392463D01*
X162800Y391838D01*
Y391162D01*
X163059Y390537D01*
X163298Y390298D01*
Y389702D01*
X163500Y389500D01*
X162500Y388500D01*
X152500D01*
X109000Y345000D01*
Y288821D01*
X108800Y288338D01*
Y287662D01*
X109000Y287179D01*
Y273500D01*
X148500Y234000D01*
X164096D01*
X164537Y233559D01*
X165162Y233300D01*
X165838D01*
X166463Y233559D01*
X166904Y234000D01*
X300000D01*
X307500Y241500D01*
Y248500D01*
X312000Y253000D01*
X320040D01*
X322382Y250658D01*
X322382Y240296D01*
X322382Y240157D01*
X322472Y239834D01*
X322472Y239834D01*
Y229779D01*
X332528D01*
Y239834D01*
X332644Y239951D01*
X332644Y250855D01*
X339289Y257500D01*
X387500Y257500D01*
X395000Y250000D01*
Y240522D01*
X395000Y240322D01*
X394972Y239834D01*
X394972Y239834D01*
X394972D01*
X394972Y239356D01*
Y229779D01*
X405028D01*
Y239834D01*
X405000D01*
Y250044D01*
X412456Y257500D01*
X473471D01*
Y216529D01*
X96529D01*
Y488671D01*
X473471Y488671D01*
Y448500D01*
D02*
G37*
G36*
X403980Y454500D02*
X404058Y454110D01*
X404279Y453779D01*
X410279Y447779D01*
X410610Y447558D01*
X411000Y447480D01*
X421679D01*
X422069Y447558D01*
X422069Y447558D01*
X422365Y447680D01*
X422635D01*
X422931Y447558D01*
X423321Y447480D01*
X473471Y447480D01*
X473471Y446980D01*
X473471Y258520D01*
X412456D01*
X412066Y258442D01*
X411735Y258221D01*
X404279Y250765D01*
X404058Y250434D01*
X403980Y250044D01*
Y239834D01*
X396358D01*
X396035Y240176D01*
X396021Y240309D01*
X396020Y240334D01*
X396020Y240522D01*
Y250000D01*
X395942Y250390D01*
X395721Y250721D01*
X388221Y258221D01*
X387890Y258442D01*
X387500Y258520D01*
X339289Y258520D01*
X338899Y258442D01*
X338568Y258221D01*
X331924Y251576D01*
X331702Y251246D01*
X331625Y250855D01*
X331625Y240283D01*
X331586Y240224D01*
X331508Y239834D01*
X323492D01*
X323465Y239970D01*
X323454Y240109D01*
X323401Y240297D01*
X323401Y250658D01*
X323324Y251048D01*
X323103Y251379D01*
X320761Y253721D01*
X320430Y253942D01*
X320040Y254020D01*
X312000D01*
X311610Y253942D01*
X311279Y253721D01*
X306779Y249221D01*
X306558Y248890D01*
X306480Y248500D01*
Y241922D01*
X299578Y235020D01*
X166904D01*
X166514Y234942D01*
X166183Y234721D01*
X165885Y234423D01*
X165635Y234320D01*
X165365D01*
X165115Y234423D01*
X164817Y234721D01*
X164486Y234942D01*
X164096Y235020D01*
X148922D01*
X110020Y273922D01*
Y287179D01*
X109942Y287569D01*
X109820Y287865D01*
Y288135D01*
X109942Y288431D01*
X110020Y288821D01*
Y344578D01*
X152922Y387480D01*
X162500D01*
X162890Y387558D01*
X163221Y387779D01*
X164221Y388779D01*
X164442Y389110D01*
X164520Y389500D01*
X164442Y389890D01*
X164318Y390076D01*
Y390298D01*
X164240Y390688D01*
X164019Y391019D01*
X163923Y391115D01*
X163820Y391365D01*
Y391635D01*
X163923Y391885D01*
X164019Y391981D01*
X164240Y392312D01*
X164318Y392702D01*
X164240Y393092D01*
X164019Y393423D01*
X163221Y394221D01*
X162890Y394442D01*
X162500Y394520D01*
X146500D01*
X146110Y394442D01*
X145779Y394221D01*
X138578Y387020D01*
X116600D01*
X113020Y390600D01*
X113020Y402078D01*
X116591Y405649D01*
X125937D01*
X126327Y405726D01*
X126658Y405947D01*
X126879Y406278D01*
X126923Y406385D01*
X127115Y406577D01*
X127365Y406680D01*
X127635D01*
X127885Y406577D01*
X128077Y406385D01*
X128121Y406278D01*
X128342Y405947D01*
X128673Y405726D01*
X129063Y405649D01*
X151783D01*
X152173Y405726D01*
X152504Y405947D01*
X153260Y406704D01*
X153481Y407035D01*
X153559Y407425D01*
Y410000D01*
X153481Y410390D01*
X153260Y410721D01*
X152260Y411721D01*
X151929Y411942D01*
X151539Y412020D01*
X129404D01*
X129014Y411942D01*
X128683Y411721D01*
X128385Y411423D01*
X128135Y411320D01*
X127865D01*
X127615Y411423D01*
X127317Y411721D01*
X126986Y411942D01*
X126596Y412020D01*
X116221D01*
X113020Y415221D01*
Y429078D01*
X116922Y432980D01*
X137578D01*
X147651Y422907D01*
X147982Y422686D01*
X148372Y422609D01*
X162628D01*
X163019Y422686D01*
X163349Y422907D01*
X164221Y423779D01*
X164442Y424110D01*
X164520Y424500D01*
X164520Y427500D01*
X164442Y427890D01*
X164221Y428221D01*
X163221Y429221D01*
X162890Y429442D01*
X162500Y429520D01*
X150922D01*
X146520Y433922D01*
Y443078D01*
X156422Y452980D01*
X163000D01*
X163390Y453058D01*
X163721Y453279D01*
X165631Y455189D01*
X165852Y455520D01*
X165929Y455910D01*
Y465366D01*
X174008D01*
X174034Y465235D01*
Y454446D01*
X174112Y454056D01*
X174333Y453725D01*
X180279Y447779D01*
X180610Y447558D01*
X181000Y447480D01*
X203367D01*
X203367Y447480D01*
X203375Y447482D01*
X203559Y447037D01*
X204037Y446559D01*
X204662Y446300D01*
X205338D01*
X205963Y446559D01*
X206441Y447037D01*
X206626Y447482D01*
X206633Y447480D01*
X208367D01*
X208367Y447480D01*
X208375Y447482D01*
X208559Y447037D01*
X209037Y446559D01*
X209662Y446300D01*
X210338D01*
X210963Y446559D01*
X211441Y447037D01*
X211626Y447482D01*
X211633Y447480D01*
X231500D01*
X231890Y447558D01*
X232221Y447779D01*
X238221Y453779D01*
X238442Y454110D01*
X238520Y454500D01*
Y465366D01*
X246208D01*
X246589Y464891D01*
X246589Y454392D01*
X246666Y454001D01*
X246887Y453671D01*
X246887Y453671D01*
X252779Y447779D01*
X253110Y447558D01*
X253500Y447480D01*
X316500Y447480D01*
X316890Y447558D01*
X317221Y447779D01*
X323103Y453661D01*
X323324Y453992D01*
X323401Y454382D01*
Y464957D01*
X323414Y464976D01*
X323492Y465366D01*
X331625D01*
Y454644D01*
X331702Y454254D01*
X331924Y453924D01*
X338068Y447779D01*
X338399Y447558D01*
X338789Y447480D01*
X361096D01*
X361486Y447558D01*
X361817Y447779D01*
X362115Y448077D01*
X362365Y448180D01*
X362635D01*
X362885Y448077D01*
X363183Y447779D01*
X363514Y447558D01*
X363904Y447480D01*
X388500D01*
X388890Y447558D01*
X389221Y447779D01*
X395721Y454279D01*
X395942Y454610D01*
X396020Y455000D01*
Y465366D01*
X403980D01*
X403980Y454500D01*
D02*
G37*
%LPC*%
G36*
X420338Y446700D02*
X419662D01*
X419037Y446441D01*
X418559Y445963D01*
X418300Y445338D01*
Y444662D01*
X418559Y444037D01*
X419037Y443559D01*
X419662Y443300D01*
X420338D01*
X420963Y443559D01*
X421441Y444037D01*
X421700Y444662D01*
Y445338D01*
X421441Y445963D01*
X420963Y446441D01*
X420338Y446700D01*
D02*
G37*
G36*
X367338Y442700D02*
X366662D01*
X366037Y442441D01*
X365559Y441963D01*
X365300Y441338D01*
Y440662D01*
X365559Y440037D01*
X366037Y439559D01*
X366662Y439300D01*
X367338D01*
X367963Y439559D01*
X368441Y440037D01*
X368700Y440662D01*
Y441338D01*
X368441Y441963D01*
X367963Y442441D01*
X367338Y442700D01*
D02*
G37*
G36*
X305338Y441700D02*
X304662D01*
X304037Y441441D01*
X303559Y440963D01*
X303300Y440338D01*
Y439662D01*
X303559Y439037D01*
X304037Y438559D01*
X304662Y438300D01*
X305338D01*
X305963Y438559D01*
X306441Y439037D01*
X306700Y439662D01*
Y440338D01*
X306441Y440963D01*
X305963Y441441D01*
X305338Y441700D01*
D02*
G37*
G36*
X238338D02*
X237662D01*
X237037Y441441D01*
X236559Y440963D01*
X236300Y440338D01*
Y439662D01*
X236559Y439037D01*
X237037Y438559D01*
X237662Y438300D01*
X238338D01*
X238963Y438559D01*
X239441Y439037D01*
X239700Y439662D01*
Y440338D01*
X239441Y440963D01*
X238963Y441441D01*
X238338Y441700D01*
D02*
G37*
G36*
X195338D02*
X194662D01*
X194037Y441441D01*
X193559Y440963D01*
X193300Y440338D01*
Y439662D01*
X193559Y439037D01*
X194037Y438559D01*
X194662Y438300D01*
X195338D01*
X195963Y438559D01*
X196441Y439037D01*
X196700Y439662D01*
Y440338D01*
X196441Y440963D01*
X195963Y441441D01*
X195338Y441700D01*
D02*
G37*
G36*
X285338Y439200D02*
X284662D01*
X284037Y438941D01*
X283559Y438463D01*
X283300Y437838D01*
Y437162D01*
X283559Y436537D01*
X284037Y436059D01*
X284662Y435800D01*
X285338D01*
X285963Y436059D01*
X286441Y436537D01*
X286700Y437162D01*
Y437838D01*
X286441Y438463D01*
X285963Y438941D01*
X285338Y439200D01*
D02*
G37*
G36*
X417338Y437700D02*
X416662D01*
X416037Y437441D01*
X415559Y436963D01*
X415300Y436338D01*
Y435662D01*
X415559Y435037D01*
X416037Y434559D01*
X416662Y434300D01*
X417338D01*
X417963Y434559D01*
X418441Y435037D01*
X418700Y435662D01*
Y436338D01*
X418441Y436963D01*
X417963Y437441D01*
X417338Y437700D01*
D02*
G37*
G36*
X125338Y428700D02*
X124662D01*
X124037Y428441D01*
X123559Y427963D01*
X123300Y427338D01*
Y426662D01*
X123559Y426037D01*
X124037Y425559D01*
X124662Y425300D01*
X125338D01*
X125963Y425559D01*
X126441Y426037D01*
X126700Y426662D01*
Y427338D01*
X126441Y427963D01*
X125963Y428441D01*
X125338Y428700D01*
D02*
G37*
G36*
X337338Y424500D02*
X336662D01*
X336037Y424241D01*
X335559Y423763D01*
X335300Y423138D01*
Y422462D01*
X335559Y421837D01*
X336037Y421359D01*
X336662Y421100D01*
X337338D01*
X337963Y421359D01*
X338441Y421837D01*
X338700Y422462D01*
Y423138D01*
X338441Y423763D01*
X337963Y424241D01*
X337338Y424500D01*
D02*
G37*
G36*
X242838Y421700D02*
X242162D01*
X241537Y421441D01*
X241059Y420963D01*
X240800Y420338D01*
Y419662D01*
X241059Y419037D01*
X241537Y418559D01*
X242162Y418300D01*
X242838D01*
X243463Y418559D01*
X243941Y419037D01*
X244200Y419662D01*
Y420338D01*
X243941Y420963D01*
X243463Y421441D01*
X242838Y421700D01*
D02*
G37*
G36*
X184338D02*
X183662D01*
X183037Y421441D01*
X182559Y420963D01*
X182300Y420338D01*
Y419662D01*
X182559Y419037D01*
X183037Y418559D01*
X183662Y418300D01*
X184338D01*
X184963Y418559D01*
X185441Y419037D01*
X185700Y419662D01*
Y420338D01*
X185441Y420963D01*
X184963Y421441D01*
X184338Y421700D01*
D02*
G37*
G36*
X124338D02*
X123662D01*
X123037Y421441D01*
X122559Y420963D01*
X122300Y420338D01*
Y419662D01*
X122559Y419037D01*
X123037Y418559D01*
X123662Y418300D01*
X124338D01*
X124963Y418559D01*
X125441Y419037D01*
X125700Y419662D01*
Y420338D01*
X125441Y420963D01*
X124963Y421441D01*
X124338Y421700D01*
D02*
G37*
G36*
X436338Y420700D02*
X435662D01*
X435037Y420441D01*
X434559Y419963D01*
X434300Y419338D01*
Y418662D01*
X434559Y418037D01*
X435037Y417559D01*
X435662Y417300D01*
X436338D01*
X436963Y417559D01*
X437441Y418037D01*
X437700Y418662D01*
Y419338D01*
X437441Y419963D01*
X436963Y420441D01*
X436338Y420700D01*
D02*
G37*
G36*
X128513Y420449D02*
X127837D01*
X127212Y420191D01*
X126734Y419712D01*
X126475Y419088D01*
Y418411D01*
X126734Y417787D01*
X127212Y417308D01*
X127837Y417049D01*
X128513D01*
X129138Y417308D01*
X129616Y417787D01*
X129875Y418411D01*
Y419088D01*
X129616Y419712D01*
X129138Y420191D01*
X128513Y420449D01*
D02*
G37*
G36*
X347838Y419200D02*
X347162D01*
X346537Y418941D01*
X346059Y418463D01*
X345800Y417838D01*
Y417162D01*
X346059Y416537D01*
X346537Y416059D01*
X347162Y415800D01*
X347838D01*
X348463Y416059D01*
X348941Y416537D01*
X349200Y417162D01*
Y417838D01*
X348941Y418463D01*
X348463Y418941D01*
X347838Y419200D01*
D02*
G37*
G36*
X125235Y417597D02*
X124559D01*
X123934Y417338D01*
X123456Y416860D01*
X123197Y416235D01*
Y415559D01*
X123456Y414934D01*
X123934Y414456D01*
X124559Y414197D01*
X125235D01*
X125860Y414456D01*
X126338Y414934D01*
X126597Y415559D01*
Y416235D01*
X126338Y416860D01*
X125860Y417338D01*
X125235Y417597D01*
D02*
G37*
G36*
X436338Y415700D02*
X435662D01*
X435037Y415441D01*
X434559Y414963D01*
X434300Y414338D01*
Y413662D01*
X434559Y413037D01*
X435037Y412559D01*
X435662Y412300D01*
X436338D01*
X436963Y412559D01*
X437441Y413037D01*
X437700Y413662D01*
Y414338D01*
X437441Y414963D01*
X436963Y415441D01*
X436338Y415700D01*
D02*
G37*
G36*
X167338Y415102D02*
X166662D01*
X166037Y414844D01*
X165559Y414365D01*
X165300Y413741D01*
Y413064D01*
X165559Y412439D01*
X165719Y412279D01*
X166029Y411952D01*
X165719Y411626D01*
X165559Y411465D01*
X165300Y410841D01*
Y410164D01*
X165559Y409540D01*
X166037Y409061D01*
X166662Y408802D01*
X167338D01*
X167963Y409061D01*
X168441Y409540D01*
X168700Y410164D01*
Y410841D01*
X168441Y411465D01*
X168281Y411626D01*
X167971Y411952D01*
X168281Y412279D01*
X168441Y412439D01*
X168700Y413064D01*
Y413741D01*
X168441Y414365D01*
X167963Y414844D01*
X167338Y415102D01*
D02*
G37*
G36*
X387838Y411700D02*
X387162D01*
X386537Y411441D01*
X386059Y410963D01*
X385800Y410338D01*
Y409662D01*
X386059Y409037D01*
X386537Y408559D01*
X387162Y408300D01*
X387838D01*
X388463Y408559D01*
X388941Y409037D01*
X389200Y409662D01*
Y410338D01*
X388941Y410963D01*
X388463Y411441D01*
X387838Y411700D01*
D02*
G37*
G36*
X367973Y413590D02*
X367027D01*
X366114Y413346D01*
X365295Y412873D01*
X364627Y412205D01*
X364154Y411386D01*
X363910Y410473D01*
Y409527D01*
X364154Y408614D01*
X364627Y407795D01*
X365295Y407127D01*
X366114Y406654D01*
X367027Y406410D01*
X367973D01*
X368886Y406654D01*
X369705Y407127D01*
X370373Y407795D01*
X370846Y408614D01*
X371091Y409527D01*
Y410473D01*
X370846Y411386D01*
X370373Y412205D01*
X369705Y412873D01*
X368886Y413346D01*
X367973Y413590D01*
D02*
G37*
G36*
X440338Y406700D02*
X439662D01*
X439037Y406441D01*
X438559Y405963D01*
X438300Y405338D01*
Y404662D01*
X438559Y404037D01*
X439037Y403559D01*
X439662Y403300D01*
X440338D01*
X440963Y403559D01*
X441441Y404037D01*
X441700Y404662D01*
Y405338D01*
X441441Y405963D01*
X440963Y406441D01*
X440338Y406700D01*
D02*
G37*
G36*
X404338D02*
X403662D01*
X403037Y406441D01*
X402559Y405963D01*
X402300Y405338D01*
Y404662D01*
X402559Y404037D01*
X403037Y403559D01*
X403662Y403300D01*
X404338D01*
X404963Y403559D01*
X405441Y404037D01*
X405700Y404662D01*
Y405338D01*
X405441Y405963D01*
X404963Y406441D01*
X404338Y406700D01*
D02*
G37*
G36*
X167338Y397600D02*
X166662D01*
X166037Y397341D01*
X165559Y396863D01*
X165300Y396238D01*
Y395562D01*
X165559Y394937D01*
X165719Y394777D01*
X166029Y394450D01*
X165719Y394123D01*
X165559Y393963D01*
X165300Y393338D01*
Y392662D01*
X165559Y392037D01*
X166037Y391559D01*
X166662Y391300D01*
X167338D01*
X167963Y391559D01*
X168441Y392037D01*
X168700Y392662D01*
Y393338D01*
X168441Y393963D01*
X168281Y394123D01*
X167971Y394450D01*
X168281Y394777D01*
X168441Y394937D01*
X168700Y395562D01*
Y396238D01*
X168441Y396863D01*
X167963Y397341D01*
X167338Y397600D01*
D02*
G37*
G36*
X308338Y386600D02*
X307662D01*
X307037Y386341D01*
X306559Y385863D01*
X306300Y385238D01*
Y384562D01*
X306559Y383937D01*
X306719Y383777D01*
X307029Y383450D01*
X306719Y383123D01*
X306559Y382963D01*
X306300Y382338D01*
Y381662D01*
X306559Y381037D01*
X307037Y380559D01*
X307662Y380300D01*
X308338D01*
X308963Y380559D01*
X309441Y381037D01*
X309700Y381662D01*
Y382338D01*
X309441Y382963D01*
X309281Y383123D01*
X308971Y383450D01*
X309281Y383777D01*
X309441Y383937D01*
X309700Y384562D01*
Y385238D01*
X309441Y385863D01*
X308963Y386341D01*
X308338Y386600D01*
D02*
G37*
G36*
X249372Y378906D02*
X248463D01*
X247585Y378670D01*
X246797Y378216D01*
X246583Y378002D01*
X232354D01*
X232140Y378216D01*
X231352Y378670D01*
X230474Y378906D01*
X229565D01*
X228687Y378670D01*
X227900Y378216D01*
X227257Y377573D01*
X226802Y376785D01*
X226567Y375907D01*
Y374998D01*
X226802Y374120D01*
X227257Y373333D01*
X227900Y372690D01*
X228687Y372235D01*
X229565Y372000D01*
X230474D01*
X231352Y372235D01*
X232140Y372690D01*
X232354Y372904D01*
X246583D01*
X246797Y372690D01*
X247585Y372235D01*
X248463Y372000D01*
X249372D01*
X250250Y372235D01*
X251037Y372690D01*
X251680Y373333D01*
X252135Y374120D01*
X252370Y374998D01*
Y375907D01*
X252135Y376785D01*
X251680Y377573D01*
X251037Y378216D01*
X250250Y378670D01*
X249372Y378906D01*
D02*
G37*
G36*
X388338Y376700D02*
X387662D01*
X387037Y376441D01*
X386559Y375963D01*
X386300Y375338D01*
Y374662D01*
X386559Y374037D01*
X387037Y373559D01*
X387662Y373300D01*
X388338D01*
X388963Y373559D01*
X389441Y374037D01*
X389700Y374662D01*
Y375338D01*
X389441Y375963D01*
X388963Y376441D01*
X388338Y376700D01*
D02*
G37*
G36*
X335338D02*
X334662D01*
X334037Y376441D01*
X333559Y375963D01*
X333300Y375338D01*
Y374662D01*
X333559Y374037D01*
X334037Y373559D01*
X334662Y373300D01*
X335338D01*
X335963Y373559D01*
X336441Y374037D01*
X336700Y374662D01*
Y375338D01*
X336441Y375963D01*
X335963Y376441D01*
X335338Y376700D01*
D02*
G37*
G36*
X315338D02*
X314662D01*
X314037Y376441D01*
X313559Y375963D01*
X313300Y375338D01*
Y374662D01*
X313559Y374037D01*
X314037Y373559D01*
X314662Y373300D01*
X315338D01*
X315963Y373559D01*
X316441Y374037D01*
X316700Y374662D01*
Y375338D01*
X316441Y375963D01*
X315963Y376441D01*
X315338Y376700D01*
D02*
G37*
G36*
X211577Y378906D02*
X210667D01*
X209789Y378670D01*
X209002Y378216D01*
X208359Y377573D01*
X207905Y376785D01*
X207669Y375907D01*
Y374998D01*
X207905Y374120D01*
X208359Y373333D01*
X209002Y372690D01*
X209789Y372235D01*
X210667Y372000D01*
X211577D01*
X212455Y372235D01*
X213242Y372690D01*
X213885Y373333D01*
X214339Y374120D01*
X214575Y374998D01*
Y375907D01*
X214339Y376785D01*
X213885Y377573D01*
X213242Y378216D01*
X212455Y378670D01*
X211577Y378906D01*
D02*
G37*
G36*
X297838Y374200D02*
X297162D01*
X296537Y373941D01*
X296059Y373463D01*
X295800Y372838D01*
Y372162D01*
X296059Y371537D01*
X296537Y371059D01*
X297162Y370800D01*
X297838D01*
X298463Y371059D01*
X298941Y371537D01*
X299200Y372162D01*
Y372838D01*
X298941Y373463D01*
X298463Y373941D01*
X297838Y374200D01*
D02*
G37*
G36*
X420338Y369700D02*
X419662D01*
X419037Y369441D01*
X418559Y368963D01*
X418300Y368338D01*
Y367662D01*
X418559Y367037D01*
X419037Y366559D01*
X419662Y366300D01*
X420338D01*
X420963Y366559D01*
X421441Y367037D01*
X421700Y367662D01*
Y368338D01*
X421441Y368963D01*
X420963Y369441D01*
X420338Y369700D01*
D02*
G37*
G36*
X395338D02*
X394662D01*
X394037Y369441D01*
X393559Y368963D01*
X393300Y368338D01*
Y367662D01*
X393559Y367037D01*
X394037Y366559D01*
X394662Y366300D01*
X395338D01*
X395963Y366559D01*
X396441Y367037D01*
X396700Y367662D01*
Y368338D01*
X396441Y368963D01*
X395963Y369441D01*
X395338Y369700D01*
D02*
G37*
G36*
X262488Y371622D02*
X253614D01*
Y362748D01*
X262488D01*
Y371622D01*
D02*
G37*
G36*
X328338Y365700D02*
X327662D01*
X327037Y365441D01*
X326559Y364963D01*
X326300Y364338D01*
Y363662D01*
X326559Y363037D01*
X327037Y362559D01*
X327662Y362300D01*
X328338D01*
X328963Y362559D01*
X329441Y363037D01*
X329700Y363662D01*
Y364338D01*
X329441Y364963D01*
X328963Y365441D01*
X328338Y365700D01*
D02*
G37*
G36*
X323338D02*
X322662D01*
X322037Y365441D01*
X321559Y364963D01*
X321300Y364338D01*
Y363662D01*
X321559Y363037D01*
X322037Y362559D01*
X322662Y362300D01*
X323338D01*
X323963Y362559D01*
X324441Y363037D01*
X324700Y363662D01*
Y364338D01*
X324441Y364963D01*
X323963Y365441D01*
X323338Y365700D01*
D02*
G37*
G36*
X232838Y361700D02*
X232162D01*
X231537Y361441D01*
X231059Y360963D01*
X230800Y360338D01*
Y359662D01*
X231059Y359037D01*
X231537Y358559D01*
X232162Y358300D01*
X232838D01*
X233463Y358559D01*
X233941Y359037D01*
X234200Y359662D01*
Y360338D01*
X233941Y360963D01*
X233463Y361441D01*
X232838Y361700D01*
D02*
G37*
G36*
X226338D02*
X225662D01*
X225037Y361441D01*
X224559Y360963D01*
X224300Y360338D01*
Y359662D01*
X224559Y359037D01*
X225037Y358559D01*
X225662Y358300D01*
X226338D01*
X226963Y358559D01*
X227441Y359037D01*
X227700Y359662D01*
Y360338D01*
X227441Y360963D01*
X226963Y361441D01*
X226338Y361700D01*
D02*
G37*
G36*
X265338Y359200D02*
X264662D01*
X264037Y358941D01*
X263559Y358463D01*
X263300Y357838D01*
Y357162D01*
X263559Y356537D01*
X264037Y356059D01*
X264662Y355800D01*
X265338D01*
X265963Y356059D01*
X266441Y356537D01*
X266700Y357162D01*
Y357838D01*
X266441Y358463D01*
X265963Y358941D01*
X265338Y359200D01*
D02*
G37*
G36*
X160788Y361700D02*
X160112D01*
X159487Y361441D01*
X159009Y360963D01*
X158750Y360338D01*
Y359662D01*
X159009Y359037D01*
X159219Y358827D01*
X159446Y358500D01*
X159219Y358173D01*
X159009Y357963D01*
X158750Y357338D01*
Y356662D01*
X159009Y356037D01*
X159487Y355559D01*
X160112Y355300D01*
X160788D01*
X161413Y355559D01*
X161891Y356037D01*
X162150Y356662D01*
Y357338D01*
X161891Y357963D01*
X161681Y358173D01*
X161454Y358500D01*
X161681Y358827D01*
X161891Y359037D01*
X162150Y359662D01*
Y360338D01*
X161891Y360963D01*
X161413Y361441D01*
X160788Y361700D01*
D02*
G37*
G36*
X258506Y360795D02*
X257597D01*
X256718Y360560D01*
X255931Y360105D01*
X255288Y359463D01*
X254834Y358675D01*
X254598Y357797D01*
Y356888D01*
X254834Y356010D01*
X255288Y355223D01*
X255931Y354580D01*
X256718Y354125D01*
X257597Y353890D01*
X258506D01*
X259384Y354125D01*
X260171Y354580D01*
X260814Y355223D01*
X261269Y356010D01*
X261504Y356888D01*
Y357797D01*
X261269Y358675D01*
X260814Y359463D01*
X260171Y360105D01*
X259384Y360560D01*
X258506Y360795D01*
D02*
G37*
G36*
X202403D02*
X201494D01*
X200616Y360560D01*
X199829Y360105D01*
X199186Y359463D01*
X198731Y358675D01*
X198496Y357797D01*
Y356888D01*
X198731Y356010D01*
X199186Y355223D01*
X199829Y354580D01*
X200616Y354125D01*
X201494Y353890D01*
X202403D01*
X203281Y354125D01*
X204069Y354580D01*
X204712Y355223D01*
X205166Y356010D01*
X205402Y356888D01*
Y357797D01*
X205166Y358675D01*
X204712Y359463D01*
X204069Y360105D01*
X203281Y360560D01*
X202403Y360795D01*
D02*
G37*
G36*
X420338Y354200D02*
X419662D01*
X419037Y353941D01*
X418559Y353463D01*
X418300Y352838D01*
Y352162D01*
X418559Y351537D01*
X419037Y351059D01*
X419662Y350800D01*
X420338D01*
X420963Y351059D01*
X421441Y351537D01*
X421700Y352162D01*
Y352838D01*
X421441Y353463D01*
X420963Y353941D01*
X420338Y354200D01*
D02*
G37*
G36*
X410338Y352700D02*
X409662D01*
X409037Y352441D01*
X408559Y351963D01*
X408300Y351338D01*
Y350662D01*
X408559Y350037D01*
X409037Y349559D01*
X409662Y349300D01*
X410338D01*
X410963Y349559D01*
X411441Y350037D01*
X411700Y350662D01*
Y351338D01*
X411441Y351963D01*
X410963Y352441D01*
X410338Y352700D01*
D02*
G37*
G36*
X405338D02*
X404662D01*
X404037Y352441D01*
X403559Y351963D01*
X403300Y351338D01*
Y350662D01*
X403559Y350037D01*
X404037Y349559D01*
X404662Y349300D01*
X405338D01*
X405963Y349559D01*
X406441Y350037D01*
X406700Y350662D01*
Y351338D01*
X406441Y351963D01*
X405963Y352441D01*
X405338Y352700D01*
D02*
G37*
G36*
X249464Y355190D02*
X248371D01*
X247316Y354907D01*
X246370Y354361D01*
X245597Y353588D01*
X245051Y352642D01*
X244768Y351586D01*
Y350494D01*
X245051Y349438D01*
X245597Y348492D01*
X246370Y347720D01*
X247316Y347173D01*
X248371Y346890D01*
X249464D01*
X250519Y347173D01*
X251466Y347720D01*
X252238Y348492D01*
X252784Y349438D01*
X253067Y350494D01*
Y351586D01*
X252784Y352642D01*
X252238Y353588D01*
X251466Y354361D01*
X250519Y354907D01*
X249464Y355190D01*
D02*
G37*
G36*
X211669D02*
X210576D01*
X209521Y354907D01*
X208575Y354361D01*
X207802Y353588D01*
X207256Y352642D01*
X206973Y351586D01*
Y350494D01*
X207256Y349438D01*
X207802Y348492D01*
X208575Y347720D01*
X209521Y347173D01*
X210576Y346890D01*
X211669D01*
X212724Y347173D01*
X213670Y347720D01*
X214443Y348492D01*
X214989Y349438D01*
X215272Y350494D01*
Y351586D01*
X214989Y352642D01*
X214443Y353588D01*
X213670Y354361D01*
X212724Y354907D01*
X211669Y355190D01*
D02*
G37*
G36*
X303338Y349700D02*
X302662D01*
X302037Y349441D01*
X301559Y348963D01*
X301300Y348338D01*
Y347662D01*
X301559Y347037D01*
X302037Y346559D01*
X302662Y346300D01*
X303338D01*
X303963Y346559D01*
X304441Y347037D01*
X304700Y347662D01*
Y348338D01*
X304441Y348963D01*
X303963Y349441D01*
X303338Y349700D01*
D02*
G37*
G36*
X297338D02*
X296662D01*
X296037Y349441D01*
X295559Y348963D01*
X295300Y348338D01*
Y347662D01*
X295559Y347037D01*
X296037Y346559D01*
X296662Y346300D01*
X297338D01*
X297963Y346559D01*
X298441Y347037D01*
X298700Y347662D01*
Y348338D01*
X298441Y348963D01*
X297963Y349441D01*
X297338Y349700D01*
D02*
G37*
G36*
X265338Y349200D02*
X264662D01*
X264037Y348941D01*
X263559Y348463D01*
X263300Y347838D01*
Y347162D01*
X263559Y346537D01*
X264037Y346059D01*
X264662Y345800D01*
X265338D01*
X265963Y346059D01*
X266441Y346537D01*
X266700Y347162D01*
Y347838D01*
X266441Y348463D01*
X265963Y348941D01*
X265338Y349200D01*
D02*
G37*
G36*
X206386Y351937D02*
X197512D01*
Y343063D01*
X206386D01*
Y351937D01*
D02*
G37*
G36*
X335838Y344700D02*
X335162D01*
X334537Y344441D01*
X334059Y343963D01*
X333800Y343338D01*
Y342662D01*
X334059Y342037D01*
X334537Y341559D01*
X335162Y341300D01*
X335838D01*
X336463Y341559D01*
X336941Y342037D01*
X337200Y342662D01*
Y343338D01*
X336941Y343963D01*
X336463Y344441D01*
X335838Y344700D01*
D02*
G37*
G36*
X287338Y343700D02*
X286662D01*
X286037Y343441D01*
X285559Y342963D01*
X285300Y342338D01*
Y341662D01*
X285559Y341037D01*
X286037Y340559D01*
X286662Y340300D01*
X287338D01*
X287963Y340559D01*
X288441Y341037D01*
X288700Y341662D01*
Y342338D01*
X288441Y342963D01*
X287963Y343441D01*
X287338Y343700D01*
D02*
G37*
G36*
X386338Y341700D02*
X385662D01*
X385037Y341441D01*
X384559Y340963D01*
X384300Y340338D01*
Y339662D01*
X384559Y339037D01*
X385037Y338559D01*
X385662Y338300D01*
X386338D01*
X386963Y338559D01*
X387441Y339037D01*
X387700Y339662D01*
Y340338D01*
X387441Y340963D01*
X386963Y341441D01*
X386338Y341700D01*
D02*
G37*
G36*
X290338Y340700D02*
X289662D01*
X289037Y340441D01*
X288559Y339963D01*
X288300Y339338D01*
Y338662D01*
X288559Y338037D01*
X289037Y337559D01*
X289662Y337300D01*
X290338D01*
X290963Y337559D01*
X291441Y338037D01*
X291700Y338662D01*
Y339338D01*
X291441Y339963D01*
X290963Y340441D01*
X290338Y340700D01*
D02*
G37*
G36*
X411338Y340200D02*
X410662D01*
X410037Y339941D01*
X409559Y339463D01*
X409300Y338838D01*
Y338162D01*
X409559Y337537D01*
X410037Y337059D01*
X410662Y336800D01*
X411338D01*
X411963Y337059D01*
X412441Y337537D01*
X412700Y338162D01*
Y338838D01*
X412441Y339463D01*
X411963Y339941D01*
X411338Y340200D01*
D02*
G37*
G36*
X345838Y339200D02*
X345162D01*
X344537Y338941D01*
X344059Y338463D01*
X343800Y337838D01*
Y337162D01*
X344059Y336537D01*
X344537Y336059D01*
X345162Y335800D01*
X345838D01*
X346463Y336059D01*
X346941Y336537D01*
X347200Y337162D01*
Y337838D01*
X346941Y338463D01*
X346463Y338941D01*
X345838Y339200D01*
D02*
G37*
G36*
X258506Y341110D02*
X257597D01*
X256718Y340875D01*
X255931Y340420D01*
X255288Y339777D01*
X254834Y338990D01*
X254598Y338112D01*
Y337203D01*
X254834Y336325D01*
X255288Y335537D01*
X255931Y334895D01*
X256718Y334440D01*
X257597Y334205D01*
X258506D01*
X259384Y334440D01*
X260171Y334895D01*
X260814Y335537D01*
X261269Y336325D01*
X261504Y337203D01*
Y338112D01*
X261269Y338990D01*
X260814Y339777D01*
X260171Y340420D01*
X259384Y340875D01*
X258506Y341110D01*
D02*
G37*
G36*
X202403D02*
X201494D01*
X200616Y340875D01*
X199829Y340420D01*
X199186Y339777D01*
X198731Y338990D01*
X198496Y338112D01*
Y337203D01*
X198731Y336325D01*
X199186Y335537D01*
X199829Y334895D01*
X200616Y334440D01*
X201494Y334205D01*
X202403D01*
X203281Y334440D01*
X204069Y334895D01*
X204712Y335537D01*
X205166Y336325D01*
X205402Y337203D01*
Y338112D01*
X205166Y338990D01*
X204712Y339777D01*
X204069Y340420D01*
X203281Y340875D01*
X202403Y341110D01*
D02*
G37*
G36*
X439338Y336700D02*
X438662D01*
X438037Y336441D01*
X437559Y335963D01*
X437300Y335338D01*
Y334662D01*
X437559Y334037D01*
X438037Y333559D01*
X438662Y333300D01*
X439338D01*
X439963Y333559D01*
X440441Y334037D01*
X440700Y334662D01*
Y335338D01*
X440441Y335963D01*
X439963Y336441D01*
X439338Y336700D01*
D02*
G37*
G36*
X359338Y335700D02*
X358662D01*
X358037Y335441D01*
X357559Y334963D01*
X357300Y334338D01*
Y333662D01*
X357559Y333037D01*
X358037Y332559D01*
X358662Y332300D01*
X359338D01*
X359963Y332559D01*
X360441Y333037D01*
X360700Y333662D01*
Y334338D01*
X360441Y334963D01*
X359963Y335441D01*
X359338Y335700D01*
D02*
G37*
G36*
X240338Y330700D02*
X239662D01*
X239037Y330441D01*
X238559Y329963D01*
X238300Y329338D01*
Y328802D01*
X238192Y328686D01*
X237978Y328544D01*
X237838Y328493D01*
X237338Y328700D01*
X236662D01*
X236162Y328493D01*
X236022Y328544D01*
X235808Y328686D01*
X235700Y328802D01*
Y329338D01*
X235441Y329963D01*
X234963Y330441D01*
X234338Y330700D01*
X233662D01*
X233037Y330441D01*
X232559Y329963D01*
X232300Y329338D01*
Y328662D01*
X232356Y328527D01*
X231973Y328144D01*
X231838Y328200D01*
X231162D01*
X231027Y328144D01*
X230644Y328527D01*
X230700Y328662D01*
Y329338D01*
X230441Y329963D01*
X229963Y330441D01*
X229338Y330700D01*
X228662D01*
X228037Y330441D01*
X227559Y329963D01*
X227300Y329338D01*
Y328802D01*
X227191Y328686D01*
X226978Y328544D01*
X226838Y328493D01*
X226338Y328700D01*
X225662D01*
X225162Y328493D01*
X225022Y328544D01*
X224809Y328686D01*
X224700Y328802D01*
Y329338D01*
X224441Y329963D01*
X223963Y330441D01*
X223338Y330700D01*
X222662D01*
X222037Y330441D01*
X221559Y329963D01*
X221300Y329338D01*
Y328662D01*
X221559Y328037D01*
X222037Y327559D01*
X222662Y327300D01*
X223338D01*
X223838Y327507D01*
X223978Y327456D01*
X224191Y327314D01*
X224300Y327198D01*
Y326662D01*
X224559Y326037D01*
X225037Y325559D01*
X225662Y325300D01*
X226338D01*
X226963Y325559D01*
X227441Y326037D01*
X227700Y326662D01*
Y327198D01*
X227808Y327314D01*
X228022Y327456D01*
X228162Y327507D01*
X228662Y327300D01*
X229338D01*
X229473Y327356D01*
X229856Y326973D01*
X229800Y326838D01*
Y326162D01*
X230059Y325537D01*
X230537Y325059D01*
X231162Y324800D01*
X231838D01*
X232463Y325059D01*
X232941Y325537D01*
X233200Y326162D01*
Y326838D01*
X233144Y326973D01*
X233527Y327356D01*
X233662Y327300D01*
X234338D01*
X234838Y327507D01*
X234978Y327456D01*
X235191Y327314D01*
X235300Y327198D01*
Y326662D01*
X235559Y326037D01*
X236037Y325559D01*
X236662Y325300D01*
X237338D01*
X237963Y325559D01*
X238441Y326037D01*
X238700Y326662D01*
Y327198D01*
X238808Y327314D01*
X239022Y327456D01*
X239162Y327507D01*
X239662Y327300D01*
X240338D01*
X240963Y327559D01*
X241441Y328037D01*
X241700Y328662D01*
Y329338D01*
X241441Y329963D01*
X240963Y330441D01*
X240338Y330700D01*
D02*
G37*
G36*
X155403Y333059D02*
X154597D01*
X153819Y332851D01*
X153122Y332448D01*
X152552Y331878D01*
X152149Y331181D01*
X151941Y330403D01*
Y329597D01*
X152149Y328819D01*
X152552Y328122D01*
X153122Y327552D01*
X153819Y327149D01*
X154597Y326941D01*
X155403D01*
X156181Y327149D01*
X156878Y327552D01*
X157448Y328122D01*
X157851Y328819D01*
X158059Y329597D01*
Y330403D01*
X157851Y331181D01*
X157448Y331878D01*
X156878Y332448D01*
X156181Y332851D01*
X155403Y333059D01*
D02*
G37*
G36*
X135403D02*
X134597D01*
X133819Y332851D01*
X133122Y332448D01*
X132552Y331878D01*
X132149Y331181D01*
X131941Y330403D01*
Y329597D01*
X132149Y328819D01*
X132552Y328122D01*
X133122Y327552D01*
X133819Y327149D01*
X134597Y326941D01*
X135403D01*
X136181Y327149D01*
X136878Y327552D01*
X137448Y328122D01*
X137851Y328819D01*
X138059Y329597D01*
Y330403D01*
X137851Y331181D01*
X137448Y331878D01*
X136878Y332448D01*
X136181Y332851D01*
X135403Y333059D01*
D02*
G37*
G36*
X275338Y329200D02*
X274662D01*
X274037Y328941D01*
X273559Y328463D01*
X273300Y327838D01*
Y327162D01*
X273559Y326537D01*
X274037Y326059D01*
X274662Y325800D01*
X275338D01*
X275963Y326059D01*
X276441Y326537D01*
X276700Y327162D01*
Y327838D01*
X276441Y328463D01*
X275963Y328941D01*
X275338Y329200D01*
D02*
G37*
G36*
X242838Y327200D02*
X242162D01*
X241537Y326941D01*
X241059Y326463D01*
X240800Y325838D01*
Y325162D01*
X241059Y324537D01*
X241537Y324059D01*
X242162Y323800D01*
X242838D01*
X243463Y324059D01*
X243941Y324537D01*
X244200Y325162D01*
Y325838D01*
X243941Y326463D01*
X243463Y326941D01*
X242838Y327200D01*
D02*
G37*
G36*
X220838D02*
X220162D01*
X219537Y326941D01*
X219059Y326463D01*
X218800Y325838D01*
Y325162D01*
X219059Y324537D01*
X219537Y324059D01*
X220162Y323800D01*
X220838D01*
X221463Y324059D01*
X221941Y324537D01*
X222200Y325162D01*
Y325838D01*
X221941Y326463D01*
X221463Y326941D01*
X220838Y327200D01*
D02*
G37*
G36*
X262488Y332252D02*
X253614D01*
Y323378D01*
X262488D01*
Y332252D01*
D02*
G37*
G36*
X188338Y325700D02*
X187662D01*
X187037Y325441D01*
X186559Y324963D01*
X186300Y324338D01*
Y323662D01*
X186559Y323037D01*
X187037Y322559D01*
X187662Y322300D01*
X188338D01*
X188963Y322559D01*
X189441Y323037D01*
X189700Y323662D01*
Y324338D01*
X189441Y324963D01*
X188963Y325441D01*
X188338Y325700D01*
D02*
G37*
G36*
X160788Y324700D02*
X160112D01*
X159487Y324441D01*
X159009Y323963D01*
X158750Y323338D01*
Y322662D01*
X159009Y322037D01*
X159487Y321559D01*
X160112Y321300D01*
X160788D01*
X161413Y321559D01*
X161891Y322037D01*
X162150Y322662D01*
Y323338D01*
X161891Y323963D01*
X161413Y324441D01*
X160788Y324700D01*
D02*
G37*
G36*
X407473Y327091D02*
X406527D01*
X405614Y326846D01*
X404795Y326373D01*
X404127Y325705D01*
X403654Y324886D01*
X403409Y323973D01*
Y323027D01*
X403654Y322114D01*
X404127Y321295D01*
X404795Y320627D01*
X405614Y320154D01*
X406527Y319910D01*
X407473D01*
X408386Y320154D01*
X409205Y320627D01*
X409873Y321295D01*
X410346Y322114D01*
X410591Y323027D01*
Y323973D01*
X410346Y324886D01*
X409873Y325705D01*
X409205Y326373D01*
X408386Y326846D01*
X407473Y327091D01*
D02*
G37*
G36*
X258506Y322606D02*
X257597D01*
X256718Y322371D01*
X255931Y321916D01*
X255288Y321274D01*
X254834Y320486D01*
X254598Y319608D01*
Y318699D01*
X254834Y317821D01*
X255288Y317034D01*
X255931Y316391D01*
X256718Y315936D01*
X257597Y315701D01*
X258506D01*
X259384Y315936D01*
X260171Y316391D01*
X260814Y317034D01*
X261269Y317821D01*
X261504Y318699D01*
Y319608D01*
X261269Y320486D01*
X260814Y321274D01*
X260171Y321916D01*
X259384Y322371D01*
X258506Y322606D01*
D02*
G37*
G36*
X202403D02*
X201494D01*
X200616Y322371D01*
X199829Y321916D01*
X199186Y321274D01*
X198731Y320486D01*
X198496Y319608D01*
Y318699D01*
X198731Y317821D01*
X199186Y317034D01*
X199829Y316391D01*
X200616Y315936D01*
X201494Y315701D01*
X202403D01*
X203281Y315936D01*
X204069Y316391D01*
X204712Y317034D01*
X205166Y317821D01*
X205402Y318699D01*
Y319608D01*
X205166Y320486D01*
X204712Y321274D01*
X204069Y321916D01*
X203281Y322371D01*
X202403Y322606D01*
D02*
G37*
G36*
X376788Y316200D02*
X376112D01*
X375487Y315941D01*
X375327Y315781D01*
X375000Y315471D01*
X374673Y315781D01*
X374513Y315941D01*
X373888Y316200D01*
X373212D01*
X372587Y315941D01*
X372109Y315463D01*
X371850Y314838D01*
Y314162D01*
X372109Y313537D01*
X372587Y313059D01*
X373212Y312800D01*
X373888D01*
X374513Y313059D01*
X374673Y313219D01*
X375000Y313529D01*
X375327Y313219D01*
X375487Y313059D01*
X376112Y312800D01*
X376788D01*
X377413Y313059D01*
X377891Y313537D01*
X378150Y314162D01*
Y314838D01*
X377891Y315463D01*
X377413Y315941D01*
X376788Y316200D01*
D02*
G37*
G36*
X195338Y317700D02*
X194662D01*
X194037Y317441D01*
X193559Y316963D01*
X193300Y316338D01*
Y315662D01*
X193559Y315037D01*
X194037Y314559D01*
X194662Y314300D01*
X195338D01*
X195963Y314559D01*
X196441Y315037D01*
X196700Y315662D01*
Y316338D01*
X196441Y316963D01*
X195963Y317441D01*
X195338Y317700D01*
D02*
G37*
G36*
X288338Y315700D02*
X287662D01*
X287037Y315441D01*
X286559Y314963D01*
X286300Y314338D01*
Y313662D01*
X286559Y313037D01*
X287037Y312559D01*
X287662Y312300D01*
X288338D01*
X288963Y312559D01*
X289441Y313037D01*
X289700Y313662D01*
Y314338D01*
X289441Y314963D01*
X288963Y315441D01*
X288338Y315700D01*
D02*
G37*
G36*
X160788Y314800D02*
X160112D01*
X159487Y314541D01*
X159009Y314063D01*
X158750Y313438D01*
Y312762D01*
X159009Y312137D01*
X159487Y311659D01*
X160112Y311400D01*
X160788D01*
X161413Y311659D01*
X161891Y312137D01*
X162150Y312762D01*
Y313438D01*
X161891Y314063D01*
X161413Y314541D01*
X160788Y314800D01*
D02*
G37*
G36*
X333338Y313700D02*
X332662D01*
X332037Y313441D01*
X331559Y312963D01*
X331300Y312338D01*
Y311662D01*
X331559Y311037D01*
X332037Y310559D01*
X332662Y310300D01*
X333338D01*
X333963Y310559D01*
X334441Y311037D01*
X334700Y311662D01*
Y312338D01*
X334441Y312963D01*
X333963Y313441D01*
X333338Y313700D01*
D02*
G37*
G36*
X285338Y307700D02*
X284662D01*
X284037Y307441D01*
X283559Y306963D01*
X283300Y306338D01*
Y305662D01*
X283559Y305037D01*
X284037Y304559D01*
X284662Y304300D01*
X285338D01*
X285963Y304559D01*
X286441Y305037D01*
X286700Y305662D01*
Y306338D01*
X286441Y306963D01*
X285963Y307441D01*
X285338Y307700D01*
D02*
G37*
G36*
X250008Y312567D02*
X241134D01*
Y303693D01*
X250008D01*
Y312567D01*
D02*
G37*
G36*
X228748D02*
X219874D01*
Y303693D01*
X228748D01*
Y312567D01*
D02*
G37*
G36*
X206386D02*
X197512D01*
Y303693D01*
X206386D01*
Y312567D01*
D02*
G37*
G36*
X267338Y306700D02*
X266662D01*
X266037Y306441D01*
X265559Y305963D01*
X265300Y305338D01*
Y304662D01*
X265559Y304037D01*
X266037Y303559D01*
X266662Y303300D01*
X267338D01*
X267963Y303559D01*
X268441Y304037D01*
X268700Y304662D01*
Y305338D01*
X268441Y305963D01*
X267963Y306441D01*
X267338Y306700D01*
D02*
G37*
G36*
X160788Y303700D02*
X160112D01*
X159487Y303441D01*
X159009Y302963D01*
X158750Y302338D01*
Y301662D01*
X159009Y301037D01*
X159487Y300559D01*
X160112Y300300D01*
X160788D01*
X161413Y300559D01*
X161891Y301037D01*
X162150Y301662D01*
Y302338D01*
X161891Y302963D01*
X161413Y303441D01*
X160788Y303700D01*
D02*
G37*
G36*
X284838Y303200D02*
X284162D01*
X283537Y302941D01*
X283059Y302463D01*
X282800Y301838D01*
Y301162D01*
X283059Y300537D01*
X283537Y300059D01*
X284162Y299800D01*
X284838D01*
X285463Y300059D01*
X285941Y300537D01*
X286200Y301162D01*
Y301838D01*
X285941Y302463D01*
X285463Y302941D01*
X284838Y303200D01*
D02*
G37*
G36*
X360338Y301700D02*
X359662D01*
X359037Y301441D01*
X358559Y300963D01*
X358300Y300338D01*
Y299662D01*
X358559Y299037D01*
X359037Y298559D01*
X359662Y298300D01*
X360338D01*
X360963Y298559D01*
X361441Y299037D01*
X361700Y299662D01*
Y300338D01*
X361441Y300963D01*
X360963Y301441D01*
X360338Y301700D01*
D02*
G37*
G36*
X294171Y299710D02*
X293495D01*
X292870Y299451D01*
X292392Y298973D01*
X292133Y298348D01*
Y297672D01*
X292392Y297047D01*
X292870Y296569D01*
X293495Y296310D01*
X294171D01*
X294796Y296569D01*
X295023Y296796D01*
X295523Y296589D01*
Y296282D01*
X295782Y295657D01*
X296260Y295179D01*
X296885Y294920D01*
X297561D01*
X298186Y295179D01*
X298664Y295657D01*
X298923Y296282D01*
Y296959D01*
X298664Y297583D01*
X298186Y298062D01*
X297561Y298320D01*
X296885D01*
X296260Y298062D01*
X296033Y297835D01*
X295533Y298042D01*
Y298348D01*
X295274Y298973D01*
X294796Y299451D01*
X294171Y299710D01*
D02*
G37*
G36*
X447973Y301091D02*
X447027D01*
X446114Y300846D01*
X445295Y300373D01*
X444627Y299705D01*
X444154Y298886D01*
X443910Y297973D01*
Y297027D01*
X444154Y296114D01*
X444627Y295295D01*
X445295Y294627D01*
X446114Y294154D01*
X447027Y293910D01*
X447973D01*
X448886Y294154D01*
X449705Y294627D01*
X450373Y295295D01*
X450846Y296114D01*
X451090Y297027D01*
Y297973D01*
X450846Y298886D01*
X450373Y299705D01*
X449705Y300373D01*
X448886Y300846D01*
X447973Y301091D01*
D02*
G37*
G36*
X308338Y294700D02*
X307662D01*
X307037Y294441D01*
X306559Y293963D01*
X306300Y293338D01*
Y292662D01*
X306559Y292037D01*
X307037Y291559D01*
X307662Y291300D01*
X308338D01*
X308963Y291559D01*
X309441Y292037D01*
X309700Y292662D01*
Y293338D01*
X309441Y293963D01*
X308963Y294441D01*
X308338Y294700D01*
D02*
G37*
G36*
X410473Y298091D02*
X409527D01*
X408614Y297846D01*
X407795Y297373D01*
X407127Y296705D01*
X406654Y295886D01*
X406410Y294973D01*
Y294027D01*
X406654Y293114D01*
X407127Y292295D01*
X407795Y291627D01*
X408614Y291154D01*
X409527Y290910D01*
X410473D01*
X411386Y291154D01*
X412205Y291627D01*
X412873Y292295D01*
X413346Y293114D01*
X413590Y294027D01*
Y294973D01*
X413346Y295886D01*
X412873Y296705D01*
X412205Y297373D01*
X411386Y297846D01*
X410473Y298091D01*
D02*
G37*
G36*
X117338Y293700D02*
X116662D01*
X116037Y293441D01*
X115559Y292963D01*
X115300Y292338D01*
Y291662D01*
X115559Y291037D01*
X116037Y290559D01*
X116662Y290300D01*
X117338D01*
X117963Y290559D01*
X118441Y291037D01*
X118700Y291662D01*
Y292338D01*
X118441Y292963D01*
X117963Y293441D01*
X117338Y293700D01*
D02*
G37*
G36*
X383338Y287700D02*
X382662D01*
X382037Y287441D01*
X381559Y286963D01*
X381300Y286338D01*
Y285662D01*
X381559Y285037D01*
X382037Y284559D01*
X382662Y284300D01*
X383338D01*
X383963Y284559D01*
X384441Y285037D01*
X384700Y285662D01*
Y286338D01*
X384441Y286963D01*
X383963Y287441D01*
X383338Y287700D01*
D02*
G37*
G36*
X371338D02*
X370662D01*
X370037Y287441D01*
X369559Y286963D01*
X369300Y286338D01*
Y285662D01*
X369559Y285037D01*
X370037Y284559D01*
X370662Y284300D01*
X371338D01*
X371963Y284559D01*
X372441Y285037D01*
X372700Y285662D01*
Y286338D01*
X372441Y286963D01*
X371963Y287441D01*
X371338Y287700D01*
D02*
G37*
G36*
X262488Y292882D02*
X253614D01*
Y284008D01*
X262488D01*
Y292882D01*
D02*
G37*
G36*
X447838Y286700D02*
X447162D01*
X446537Y286441D01*
X446059Y285963D01*
X445800Y285338D01*
Y284662D01*
X446059Y284037D01*
X446537Y283559D01*
X447162Y283300D01*
X447838D01*
X448463Y283559D01*
X448941Y284037D01*
X449200Y284662D01*
Y285338D01*
X448941Y285963D01*
X448463Y286441D01*
X447838Y286700D01*
D02*
G37*
G36*
X355338D02*
X354662D01*
X354037Y286441D01*
X353559Y285963D01*
X353300Y285338D01*
Y284662D01*
X353559Y284037D01*
X354037Y283559D01*
X354662Y283300D01*
X355338D01*
X355963Y283559D01*
X356441Y284037D01*
X356700Y284662D01*
Y285338D01*
X356441Y285963D01*
X355963Y286441D01*
X355338Y286700D01*
D02*
G37*
G36*
X157838Y284200D02*
X157162D01*
X156537Y283941D01*
X156059Y283463D01*
X155800Y282838D01*
Y282162D01*
X156059Y281537D01*
X156537Y281059D01*
X157162Y280800D01*
X157838D01*
X158463Y281059D01*
X158941Y281537D01*
X159200Y282162D01*
Y282838D01*
X158941Y283463D01*
X158463Y283941D01*
X157838Y284200D01*
D02*
G37*
G36*
X383338Y280700D02*
X382662D01*
X382037Y280441D01*
X381559Y279963D01*
X381300Y279338D01*
Y278662D01*
X381559Y278037D01*
X382037Y277559D01*
X382662Y277300D01*
X383338D01*
X383963Y277559D01*
X384441Y278037D01*
X384700Y278662D01*
Y279338D01*
X384441Y279963D01*
X383963Y280441D01*
X383338Y280700D01*
D02*
G37*
G36*
X361338D02*
X360662D01*
X360037Y280441D01*
X359559Y279963D01*
X359300Y279338D01*
Y278662D01*
X359559Y278037D01*
X360037Y277559D01*
X360662Y277300D01*
X361338D01*
X361963Y277559D01*
X362441Y278037D01*
X362700Y278662D01*
Y279338D01*
X362441Y279963D01*
X361963Y280441D01*
X361338Y280700D01*
D02*
G37*
G36*
X292838Y277200D02*
X292162D01*
X291537Y276941D01*
X291059Y276463D01*
X290800Y275838D01*
Y275162D01*
X291059Y274537D01*
X291537Y274059D01*
X292162Y273800D01*
X292838D01*
X293463Y274059D01*
X293941Y274537D01*
X294200Y275162D01*
Y275838D01*
X293941Y276463D01*
X293463Y276941D01*
X292838Y277200D01*
D02*
G37*
G36*
X282838D02*
X282162D01*
X281537Y276941D01*
X281059Y276463D01*
X280800Y275838D01*
Y275162D01*
X281059Y274537D01*
X281537Y274059D01*
X282162Y273800D01*
X282838D01*
X283463Y274059D01*
X283941Y274537D01*
X284200Y275162D01*
Y275838D01*
X283941Y276463D01*
X283463Y276941D01*
X282838Y277200D01*
D02*
G37*
G36*
X142973Y280591D02*
X142027D01*
X141114Y280346D01*
X140295Y279873D01*
X139627Y279205D01*
X139154Y278386D01*
X138909Y277473D01*
Y276527D01*
X139154Y275614D01*
X139627Y274795D01*
X140295Y274127D01*
X141114Y273654D01*
X142027Y273410D01*
X142973D01*
X143886Y273654D01*
X144705Y274127D01*
X145373Y274795D01*
X145846Y275614D01*
X146091Y276527D01*
Y277473D01*
X145846Y278386D01*
X145373Y279205D01*
X144705Y279873D01*
X143886Y280346D01*
X142973Y280591D01*
D02*
G37*
G36*
X186338Y276700D02*
X185662D01*
X185037Y276441D01*
X184559Y275963D01*
X184300Y275338D01*
Y274662D01*
X184559Y274037D01*
X185037Y273559D01*
X185662Y273300D01*
X186338D01*
X186963Y273559D01*
X187441Y274037D01*
X187700Y274662D01*
Y275338D01*
X187441Y275963D01*
X186963Y276441D01*
X186338Y276700D01*
D02*
G37*
G36*
X318338Y275700D02*
X317662D01*
X317037Y275441D01*
X316559Y274963D01*
X316300Y274338D01*
Y273662D01*
X316559Y273037D01*
X317037Y272559D01*
X317662Y272300D01*
X318338D01*
X318963Y272559D01*
X319441Y273037D01*
X319700Y273662D01*
Y274338D01*
X319441Y274963D01*
X318963Y275441D01*
X318338Y275700D01*
D02*
G37*
G36*
X206386Y273197D02*
X197512D01*
Y264323D01*
X206386D01*
Y273197D01*
D02*
G37*
G36*
X176338Y262700D02*
X175662D01*
X175037Y262441D01*
X174559Y261963D01*
X174300Y261338D01*
Y260662D01*
X174559Y260037D01*
X175037Y259559D01*
X175662Y259300D01*
X176338D01*
X176963Y259559D01*
X177441Y260037D01*
X177700Y260662D01*
Y261338D01*
X177441Y261963D01*
X176963Y262441D01*
X176338Y262700D01*
D02*
G37*
G36*
X262488Y253512D02*
X253614D01*
Y244638D01*
X262488D01*
Y253512D01*
D02*
G37*
G36*
X270338Y244700D02*
X269662D01*
X269037Y244441D01*
X268559Y243963D01*
X268300Y243338D01*
Y242662D01*
X268559Y242037D01*
X269037Y241559D01*
X269662Y241300D01*
X270338D01*
X270963Y241559D01*
X271441Y242037D01*
X271700Y242662D01*
Y243338D01*
X271441Y243963D01*
X270963Y244441D01*
X270338Y244700D01*
D02*
G37*
G36*
X185338Y240700D02*
X184662D01*
X184037Y240441D01*
X183559Y239963D01*
X183300Y239338D01*
Y238662D01*
X183559Y238037D01*
X184037Y237559D01*
X184662Y237300D01*
X185338D01*
X185963Y237559D01*
X186441Y238037D01*
X186700Y238662D01*
Y239338D01*
X186441Y239963D01*
X185963Y240441D01*
X185338Y240700D01*
D02*
G37*
G36*
X154838D02*
X154162D01*
X153537Y240441D01*
X153059Y239963D01*
X152800Y239338D01*
Y238662D01*
X153059Y238037D01*
X153537Y237559D01*
X154162Y237300D01*
X154838D01*
X155463Y237559D01*
X155941Y238037D01*
X156200Y238662D01*
Y239338D01*
X155941Y239963D01*
X155463Y240441D01*
X154838Y240700D01*
D02*
G37*
%LPD*%
D76*
X230020Y375453D02*
X248917D01*
D78*
X201949Y229390D02*
D03*
X235728D02*
D03*
D79*
X248917Y375453D02*
D03*
X230020D02*
D03*
D80*
X109134Y438543D02*
D03*
Y381457D02*
D03*
D81*
X132598Y438543D02*
D03*
Y381457D02*
D03*
D82*
X341000Y388000D02*
D03*
X432500Y444000D02*
D03*
X285000Y257500D02*
D03*
X155000Y440000D02*
D03*
D83*
X120000Y465200D02*
D03*
X450000D02*
D03*
Y240000D02*
D03*
X120000D02*
D03*
D84*
X115000Y330000D02*
D03*
X125000Y320000D02*
D03*
D86*
X337500Y244806D02*
D03*
Y224806D02*
D03*
X317500Y244806D02*
D03*
Y224806D02*
D03*
Y460394D02*
D03*
Y480394D02*
D03*
X337500Y460394D02*
D03*
Y480394D02*
D03*
X390000Y460394D02*
D03*
Y480394D02*
D03*
X410000Y460394D02*
D03*
Y480394D02*
D03*
X232500Y460394D02*
D03*
Y480394D02*
D03*
X252500Y460394D02*
D03*
Y480394D02*
D03*
X160000Y460394D02*
D03*
Y480394D02*
D03*
X180000Y460394D02*
D03*
Y480394D02*
D03*
X410000Y244806D02*
D03*
Y224806D02*
D03*
X390000Y244806D02*
D03*
Y224806D02*
D03*
D88*
X292500Y348569D02*
D03*
X310750Y379932D02*
D03*
X394800Y315000D02*
D03*
X295414Y313586D02*
D03*
X300000Y347000D02*
D03*
X320000Y362000D02*
D03*
X313500D02*
D03*
X421000Y305000D02*
D03*
X310500Y263685D02*
D03*
X310315Y254800D02*
D03*
X292000Y238000D02*
D03*
X273970Y276970D02*
D03*
X270800Y305154D02*
D03*
X328000Y312000D02*
D03*
X281000Y306000D02*
D03*
X341036Y260760D02*
D03*
X360000Y255000D02*
D03*
X380000Y289000D02*
D03*
X383000Y283000D02*
D03*
X360000Y290000D02*
D03*
Y296500D02*
D03*
X415000Y260000D02*
D03*
X410000Y439500D02*
D03*
X341500Y442500D02*
D03*
X187500Y445500D02*
D03*
X252500Y440740D02*
D03*
X465000Y465000D02*
D03*
Y255000D02*
D03*
Y225000D02*
D03*
X457500Y480000D02*
D03*
X450000Y255000D02*
D03*
Y225000D02*
D03*
X442500Y480000D02*
D03*
X435000Y465000D02*
D03*
Y255000D02*
D03*
Y225000D02*
D03*
X427500Y480000D02*
D03*
X420000Y465000D02*
D03*
X427500Y450000D02*
D03*
X420000Y255000D02*
D03*
X427500Y240000D02*
D03*
X420000Y225000D02*
D03*
X397500Y480000D02*
D03*
X382500D02*
D03*
X375000Y465000D02*
D03*
X382500Y450000D02*
D03*
X375000Y255000D02*
D03*
X382500Y240000D02*
D03*
X375000Y225000D02*
D03*
X367500Y480000D02*
D03*
X360000Y465000D02*
D03*
X367500Y450000D02*
D03*
Y240000D02*
D03*
X360000Y225000D02*
D03*
X352500Y480000D02*
D03*
X345000Y465000D02*
D03*
X352500Y450000D02*
D03*
X345000Y255000D02*
D03*
X352500Y240000D02*
D03*
X345000Y225000D02*
D03*
X330000D02*
D03*
X307500Y480000D02*
D03*
X300000Y465000D02*
D03*
X307500Y450000D02*
D03*
X300000Y225000D02*
D03*
X292500Y480000D02*
D03*
X285000Y465000D02*
D03*
X292500Y450000D02*
D03*
X285000Y225000D02*
D03*
X277500Y480000D02*
D03*
X270000Y465000D02*
D03*
X277500Y450000D02*
D03*
X262500Y480000D02*
D03*
Y450000D02*
D03*
X255000Y225000D02*
D03*
X225000Y465000D02*
D03*
Y225000D02*
D03*
X217500Y480000D02*
D03*
X210000Y465000D02*
D03*
X217500Y450000D02*
D03*
X210000Y225000D02*
D03*
X202500Y480000D02*
D03*
X195000Y465000D02*
D03*
Y225000D02*
D03*
X187500Y480000D02*
D03*
Y450000D02*
D03*
X180000Y225000D02*
D03*
X172500Y480000D02*
D03*
X150000Y465000D02*
D03*
Y225000D02*
D03*
X142500Y480000D02*
D03*
X135000Y465000D02*
D03*
X142500Y450000D02*
D03*
X135000Y225000D02*
D03*
X127500Y480000D02*
D03*
Y450000D02*
D03*
X120000Y255000D02*
D03*
Y225000D02*
D03*
X112500Y480000D02*
D03*
X105000Y465000D02*
D03*
X112500Y450000D02*
D03*
X105000Y405000D02*
D03*
Y375000D02*
D03*
X112500Y360000D02*
D03*
X105000Y345000D02*
D03*
Y315000D02*
D03*
Y285000D02*
D03*
Y255000D02*
D03*
Y225000D02*
D03*
X465000Y420000D02*
D03*
Y390000D02*
D03*
Y360000D02*
D03*
Y330000D02*
D03*
Y300000D02*
D03*
Y270000D02*
D03*
X457500Y435000D02*
D03*
X450000Y420000D02*
D03*
X457500Y405000D02*
D03*
Y375000D02*
D03*
X450000Y360000D02*
D03*
X457500Y345000D02*
D03*
Y285000D02*
D03*
X442500Y435000D02*
D03*
X435000Y390000D02*
D03*
X442500Y375000D02*
D03*
Y345000D02*
D03*
Y315000D02*
D03*
X427500Y375000D02*
D03*
Y345000D02*
D03*
X412500Y435000D02*
D03*
Y375000D02*
D03*
X397500Y435000D02*
D03*
Y375000D02*
D03*
Y345000D02*
D03*
X390000Y330000D02*
D03*
X397500Y255000D02*
D03*
X375000Y420000D02*
D03*
X382500Y405000D02*
D03*
X367500Y435000D02*
D03*
X360000Y420000D02*
D03*
X367500Y405000D02*
D03*
X360000Y390000D02*
D03*
Y360000D02*
D03*
X367500Y345000D02*
D03*
X352500Y405000D02*
D03*
Y375000D02*
D03*
X345000Y360000D02*
D03*
X337500Y405000D02*
D03*
X330000Y390000D02*
D03*
X337500Y285000D02*
D03*
X322500Y435000D02*
D03*
Y285000D02*
D03*
Y255000D02*
D03*
X307500Y435000D02*
D03*
X300000Y330000D02*
D03*
Y270000D02*
D03*
X292500Y405000D02*
D03*
Y375000D02*
D03*
X285000Y270000D02*
D03*
X292500Y255000D02*
D03*
X277500Y435000D02*
D03*
Y405000D02*
D03*
Y375000D02*
D03*
X270000Y330000D02*
D03*
X277500Y255000D02*
D03*
X262500Y435000D02*
D03*
Y405000D02*
D03*
X240000Y450000D02*
D03*
X247500Y435000D02*
D03*
Y405000D02*
D03*
X240000Y360000D02*
D03*
X247500Y345000D02*
D03*
X232500Y435000D02*
D03*
X217500D02*
D03*
Y405000D02*
D03*
X210000Y360000D02*
D03*
X195000D02*
D03*
Y300000D02*
D03*
X187500Y375000D02*
D03*
Y345000D02*
D03*
X180000Y300000D02*
D03*
X187500Y255000D02*
D03*
X180000Y240000D02*
D03*
X165000Y450000D02*
D03*
X172500Y375000D02*
D03*
Y255000D02*
D03*
X165000Y240000D02*
D03*
X157500Y435000D02*
D03*
X150000Y420000D02*
D03*
X157500Y375000D02*
D03*
X150000Y330000D02*
D03*
Y300000D02*
D03*
X157500Y255000D02*
D03*
X135000Y360000D02*
D03*
Y300000D02*
D03*
X142500Y255000D02*
D03*
X127500Y345000D02*
D03*
X120000Y330000D02*
D03*
X127500Y315000D02*
D03*
X114500Y341000D02*
D03*
X110500Y288000D02*
D03*
X165500Y235000D02*
D03*
X302500Y239500D02*
D03*
X299500Y446500D02*
D03*
X289000D02*
D03*
X362500Y447500D02*
D03*
X127500Y406000D02*
D03*
X126500Y403000D02*
D03*
X148962Y347436D02*
D03*
X146102Y409000D02*
D03*
X150000D02*
D03*
X114300Y395000D02*
D03*
X289780Y368220D02*
D03*
X330500Y362000D02*
D03*
X370000Y314000D02*
D03*
X363500Y315000D02*
D03*
X420000Y349500D02*
D03*
X403000Y348500D02*
D03*
X412500Y353000D02*
D03*
X371000Y283000D02*
D03*
X299000Y299500D02*
D03*
X294500Y301500D02*
D03*
X320500Y271500D02*
D03*
X176000Y258000D02*
D03*
X185000Y236000D02*
D03*
X195000Y312500D02*
D03*
X191000Y321000D02*
D03*
X436000Y410500D02*
D03*
Y422000D02*
D03*
X419500Y438000D02*
D03*
X422500Y447000D02*
D03*
X341000Y422500D02*
D03*
X305000Y443500D02*
D03*
X238000D02*
D03*
X310574Y386779D02*
D03*
X164500Y397500D02*
D03*
Y391500D02*
D03*
X169500Y408500D02*
D03*
X169324Y415347D02*
D03*
X227030Y429300D02*
D03*
X232030Y424530D02*
D03*
X199500Y414000D02*
D03*
X332000Y434000D02*
D03*
X175000Y430000D02*
D03*
X180000Y435000D02*
D03*
X282800Y407500D02*
D03*
X392500Y265000D02*
D03*
X155675Y364800D02*
D03*
X152000D02*
D03*
X277000Y323000D02*
D03*
X196000Y270000D02*
D03*
X408000Y409200D02*
D03*
X299000Y414500D02*
D03*
X303000Y293000D02*
D03*
Y272000D02*
D03*
X126729Y422789D02*
D03*
X114800Y420000D02*
D03*
X179750Y353000D02*
D03*
X216500Y329000D02*
D03*
X180000Y331000D02*
D03*
X196000Y260000D02*
D03*
X151000Y269000D02*
D03*
X162000Y268000D02*
D03*
X217500Y347500D02*
D03*
X242500D02*
D03*
X180000Y345000D02*
D03*
X407100Y368000D02*
D03*
X265000Y367500D02*
D03*
X382000Y374000D02*
D03*
X450000Y330000D02*
D03*
X449737Y319737D02*
D03*
X115000Y430000D02*
D03*
X162500Y242500D02*
D03*
X158240Y292500D02*
D03*
X382000Y314000D02*
D03*
X330000Y332000D02*
D03*
X432000Y368000D02*
D03*
X160039Y391573D02*
D03*
X306000Y422500D02*
D03*
X307500Y413500D02*
D03*
X222000Y360500D02*
D03*
X215500Y361000D02*
D03*
X236000Y360500D02*
D03*
X243000Y361500D02*
D03*
X245000Y329000D02*
D03*
X150000Y391500D02*
D03*
X160039Y425573D02*
D03*
X150000Y425500D02*
D03*
X395000Y398000D02*
D03*
X175000Y368500D02*
D03*
X165000D02*
D03*
X333000Y290000D02*
D03*
X377500Y275000D02*
D03*
X128000Y394000D02*
D03*
X143000Y400000D02*
D03*
X128000Y412000D02*
D03*
X342500Y407500D02*
D03*
X332500D02*
D03*
X376000Y360000D02*
D03*
X351500Y358500D02*
D03*
X440000Y400000D02*
D03*
X419000Y382900D02*
D03*
X415000Y432500D02*
D03*
X402500Y420000D02*
D03*
X320000Y332000D02*
D03*
X323000Y312000D02*
D03*
X274000Y317000D02*
D03*
X277000Y333000D02*
D03*
X351500Y337500D02*
D03*
X347500Y330000D02*
D03*
X392500Y420000D02*
D03*
X440000Y395000D02*
D03*
M02*
