G04*
G04 #@! TF.GenerationSoftware,Altium Limited,Altium Designer,24.8.2 (39)*
G04*
G04 Layer_Physical_Order=1*
G04 Layer_Color=255*
%FSLAX25Y25*%
%MOIN*%
G70*
G04*
G04 #@! TF.SameCoordinates,F580BFCB-8435-4B95-B66A-8E6D2DB6F108*
G04*
G04*
G04 #@! TF.FilePolarity,Positive*
G04*
G01*
G75*
%ADD13C,0.01500*%
%ADD17C,0.02000*%
G04:AMPARAMS|DCode=24|XSize=75mil|YSize=109.84mil|CornerRadius=9.38mil|HoleSize=0mil|Usage=FLASHONLY|Rotation=180.000|XOffset=0mil|YOffset=0mil|HoleType=Round|Shape=RoundedRectangle|*
%AMROUNDEDRECTD24*
21,1,0.07500,0.09109,0,0,180.0*
21,1,0.05625,0.10984,0,0,180.0*
1,1,0.01875,-0.02813,0.04555*
1,1,0.01875,0.02813,0.04555*
1,1,0.01875,0.02813,-0.04555*
1,1,0.01875,-0.02813,-0.04555*
%
%ADD24ROUNDEDRECTD24*%
G04:AMPARAMS|DCode=25|XSize=32.76mil|YSize=25.08mil|CornerRadius=6.27mil|HoleSize=0mil|Usage=FLASHONLY|Rotation=0.000|XOffset=0mil|YOffset=0mil|HoleType=Round|Shape=RoundedRectangle|*
%AMROUNDEDRECTD25*
21,1,0.03276,0.01254,0,0,0.0*
21,1,0.02022,0.02508,0,0,0.0*
1,1,0.01254,0.01011,-0.00627*
1,1,0.01254,-0.01011,-0.00627*
1,1,0.01254,-0.01011,0.00627*
1,1,0.01254,0.01011,0.00627*
%
%ADD25ROUNDEDRECTD25*%
G04:AMPARAMS|DCode=26|XSize=42.91mil|YSize=14.96mil|CornerRadius=3.97mil|HoleSize=0mil|Usage=FLASHONLY|Rotation=0.000|XOffset=0mil|YOffset=0mil|HoleType=Round|Shape=RoundedRectangle|*
%AMROUNDEDRECTD26*
21,1,0.04291,0.00703,0,0,0.0*
21,1,0.03498,0.01496,0,0,0.0*
1,1,0.00793,0.01749,-0.00352*
1,1,0.00793,-0.01749,-0.00352*
1,1,0.00793,-0.01749,0.00352*
1,1,0.00793,0.01749,0.00352*
%
%ADD26ROUNDEDRECTD26*%
G04:AMPARAMS|DCode=27|XSize=53.54mil|YSize=15.35mil|CornerRadius=3.92mil|HoleSize=0mil|Usage=FLASHONLY|Rotation=270.000|XOffset=0mil|YOffset=0mil|HoleType=Round|Shape=RoundedRectangle|*
%AMROUNDEDRECTD27*
21,1,0.05354,0.00752,0,0,270.0*
21,1,0.04571,0.01535,0,0,270.0*
1,1,0.00783,-0.00376,-0.02286*
1,1,0.00783,-0.00376,0.02286*
1,1,0.00783,0.00376,0.02286*
1,1,0.00783,0.00376,-0.02286*
%
%ADD27ROUNDEDRECTD27*%
G04:AMPARAMS|DCode=28|XSize=61.02mil|YSize=23.62mil|CornerRadius=5.91mil|HoleSize=0mil|Usage=FLASHONLY|Rotation=0.000|XOffset=0mil|YOffset=0mil|HoleType=Round|Shape=RoundedRectangle|*
%AMROUNDEDRECTD28*
21,1,0.06102,0.01181,0,0,0.0*
21,1,0.04921,0.02362,0,0,0.0*
1,1,0.01181,0.02461,-0.00591*
1,1,0.01181,-0.02461,-0.00591*
1,1,0.01181,-0.02461,0.00591*
1,1,0.01181,0.02461,0.00591*
%
%ADD28ROUNDEDRECTD28*%
G04:AMPARAMS|DCode=29|XSize=32.28mil|YSize=38.58mil|CornerRadius=8.23mil|HoleSize=0mil|Usage=FLASHONLY|Rotation=0.000|XOffset=0mil|YOffset=0mil|HoleType=Round|Shape=RoundedRectangle|*
%AMROUNDEDRECTD29*
21,1,0.03228,0.02212,0,0,0.0*
21,1,0.01582,0.03858,0,0,0.0*
1,1,0.01647,0.00791,-0.01106*
1,1,0.01647,-0.00791,-0.01106*
1,1,0.01647,-0.00791,0.01106*
1,1,0.01647,0.00791,0.01106*
%
%ADD29ROUNDEDRECTD29*%
%ADD30R,0.01870X0.00787*%
%ADD31R,0.10236X0.01181*%
G04:AMPARAMS|DCode=32|XSize=31.5mil|YSize=27.56mil|CornerRadius=6.89mil|HoleSize=0mil|Usage=FLASHONLY|Rotation=180.000|XOffset=0mil|YOffset=0mil|HoleType=Round|Shape=RoundedRectangle|*
%AMROUNDEDRECTD32*
21,1,0.03150,0.01378,0,0,180.0*
21,1,0.01772,0.02756,0,0,180.0*
1,1,0.01378,-0.00886,0.00689*
1,1,0.01378,0.00886,0.00689*
1,1,0.01378,0.00886,-0.00689*
1,1,0.01378,-0.00886,-0.00689*
%
%ADD32ROUNDEDRECTD32*%
G04:AMPARAMS|DCode=33|XSize=15.75mil|YSize=15.75mil|CornerRadius=3.94mil|HoleSize=0mil|Usage=FLASHONLY|Rotation=180.000|XOffset=0mil|YOffset=0mil|HoleType=Round|Shape=RoundedRectangle|*
%AMROUNDEDRECTD33*
21,1,0.01575,0.00787,0,0,180.0*
21,1,0.00787,0.01575,0,0,180.0*
1,1,0.00787,-0.00394,0.00394*
1,1,0.00787,0.00394,0.00394*
1,1,0.00787,0.00394,-0.00394*
1,1,0.00787,-0.00394,-0.00394*
%
%ADD33ROUNDEDRECTD33*%
%ADD34R,0.01968X0.07874*%
G04:AMPARAMS|DCode=35|XSize=34.25mil|YSize=38.19mil|CornerRadius=8.73mil|HoleSize=0mil|Usage=FLASHONLY|Rotation=270.000|XOffset=0mil|YOffset=0mil|HoleType=Round|Shape=RoundedRectangle|*
%AMROUNDEDRECTD35*
21,1,0.03425,0.02072,0,0,270.0*
21,1,0.01678,0.03819,0,0,270.0*
1,1,0.01747,-0.01036,-0.00839*
1,1,0.01747,-0.01036,0.00839*
1,1,0.01747,0.01036,0.00839*
1,1,0.01747,0.01036,-0.00839*
%
%ADD35ROUNDEDRECTD35*%
G04:AMPARAMS|DCode=36|XSize=34.25mil|YSize=38.19mil|CornerRadius=8.73mil|HoleSize=0mil|Usage=FLASHONLY|Rotation=180.000|XOffset=0mil|YOffset=0mil|HoleType=Round|Shape=RoundedRectangle|*
%AMROUNDEDRECTD36*
21,1,0.03425,0.02072,0,0,180.0*
21,1,0.01678,0.03819,0,0,180.0*
1,1,0.01747,-0.00839,0.01036*
1,1,0.01747,0.00839,0.01036*
1,1,0.01747,0.00839,-0.01036*
1,1,0.01747,-0.00839,-0.01036*
%
%ADD36ROUNDEDRECTD36*%
G04:AMPARAMS|DCode=37|XSize=15.75mil|YSize=15.75mil|CornerRadius=3.94mil|HoleSize=0mil|Usage=FLASHONLY|Rotation=90.000|XOffset=0mil|YOffset=0mil|HoleType=Round|Shape=RoundedRectangle|*
%AMROUNDEDRECTD37*
21,1,0.01575,0.00787,0,0,90.0*
21,1,0.00787,0.01575,0,0,90.0*
1,1,0.00787,0.00394,0.00394*
1,1,0.00787,0.00394,-0.00394*
1,1,0.00787,-0.00394,-0.00394*
1,1,0.00787,-0.00394,0.00394*
%
%ADD37ROUNDEDRECTD37*%
G04:AMPARAMS|DCode=38|XSize=31.5mil|YSize=27.56mil|CornerRadius=6.89mil|HoleSize=0mil|Usage=FLASHONLY|Rotation=90.000|XOffset=0mil|YOffset=0mil|HoleType=Round|Shape=RoundedRectangle|*
%AMROUNDEDRECTD38*
21,1,0.03150,0.01378,0,0,90.0*
21,1,0.01772,0.02756,0,0,90.0*
1,1,0.01378,0.00689,0.00886*
1,1,0.01378,0.00689,-0.00886*
1,1,0.01378,-0.00689,-0.00886*
1,1,0.01378,-0.00689,0.00886*
%
%ADD38ROUNDEDRECTD38*%
G04:AMPARAMS|DCode=39|XSize=32.28mil|YSize=38.58mil|CornerRadius=8.23mil|HoleSize=0mil|Usage=FLASHONLY|Rotation=90.000|XOffset=0mil|YOffset=0mil|HoleType=Round|Shape=RoundedRectangle|*
%AMROUNDEDRECTD39*
21,1,0.03228,0.02212,0,0,90.0*
21,1,0.01582,0.03858,0,0,90.0*
1,1,0.01647,0.01106,0.00791*
1,1,0.01647,0.01106,-0.00791*
1,1,0.01647,-0.01106,-0.00791*
1,1,0.01647,-0.01106,0.00791*
%
%ADD39ROUNDEDRECTD39*%
G04:AMPARAMS|DCode=40|XSize=61.02mil|YSize=23.62mil|CornerRadius=5.91mil|HoleSize=0mil|Usage=FLASHONLY|Rotation=90.000|XOffset=0mil|YOffset=0mil|HoleType=Round|Shape=RoundedRectangle|*
%AMROUNDEDRECTD40*
21,1,0.06102,0.01181,0,0,90.0*
21,1,0.04921,0.02362,0,0,90.0*
1,1,0.01181,0.00591,0.02461*
1,1,0.01181,0.00591,-0.02461*
1,1,0.01181,-0.00591,-0.02461*
1,1,0.01181,-0.00591,0.02461*
%
%ADD40ROUNDEDRECTD40*%
%ADD69C,0.00673*%
%ADD70C,0.00673*%
%ADD71C,0.01533*%
%ADD72C,0.04000*%
%ADD73C,0.00600*%
%ADD74C,0.00800*%
%ADD75C,0.01544*%
%ADD76C,0.03000*%
%ADD77C,0.04000*%
%ADD78R,0.07874X0.07874*%
%ADD79C,0.05906*%
%ADD80O,0.09055X0.05906*%
%ADD81O,0.12992X0.05906*%
%ADD82C,0.06181*%
%ADD83C,0.23622*%
%ADD84C,0.05118*%
%ADD85C,0.06299*%
%ADD86C,0.10236*%
%ADD87R,0.09055X0.09055*%
%ADD88C,0.02400*%
G36*
X162507Y392500D02*
Y390500D01*
X162007Y390000D01*
X157961Y390000D01*
Y390425D01*
X155091D01*
Y390425D01*
X154909D01*
Y390425D01*
X152039D01*
Y390287D01*
X151884Y390256D01*
X151596Y390064D01*
X147936D01*
X147507Y390493D01*
X147507Y392507D01*
X147955Y392955D01*
X148350D01*
X148576Y393000D01*
X152039D01*
Y392575D01*
X154909D01*
Y392575D01*
X155091D01*
Y392575D01*
X157961D01*
Y393000D01*
X162007D01*
X162507Y392500D01*
D02*
G37*
G36*
X233953Y374547D02*
X226087D01*
Y378449D01*
X233953D01*
Y374547D01*
D02*
G37*
G36*
X262000Y216529D02*
X198012D01*
Y378206D01*
X198013Y378209D01*
X215071D01*
Y374283D01*
X205787D01*
Y317620D01*
X205787Y317309D01*
X205787Y317309D01*
X205788Y317287D01*
X205788Y317287D01*
X205797Y317243D01*
X205797Y317243D01*
X205814Y317202D01*
X205815Y317201D01*
X205839Y317164D01*
X205854Y317148D01*
X205854Y317148D01*
X205875Y317129D01*
X205920Y317099D01*
X205971Y317078D01*
X206025Y317067D01*
X206052Y317066D01*
X206052Y317066D01*
X206187Y317066D01*
X254116D01*
Y373807D01*
X254116Y373997D01*
X254244Y374307D01*
X254244Y374307D01*
X254244Y374307D01*
X253744Y374307D01*
X244960Y374307D01*
Y378209D01*
X262000D01*
Y216529D01*
D02*
G37*
G36*
X162507Y426500D02*
Y424500D01*
X162013Y424005D01*
X158195D01*
X157961Y424417D01*
Y424425D01*
X155091D01*
Y424425D01*
X154909D01*
Y424425D01*
X152039D01*
Y424254D01*
X151500D01*
X151500Y424254D01*
X147746D01*
X147507Y424493D01*
X147507Y426507D01*
X148000Y427000D01*
X152039D01*
Y426575D01*
X154909D01*
Y426575D01*
X155091D01*
Y426575D01*
X157961D01*
Y427000D01*
X162007D01*
X162507Y426500D01*
D02*
G37*
G36*
X130000Y432000D02*
Y428807D01*
X129972D01*
Y426626D01*
X140152D01*
X140269Y426566D01*
X140675Y426339D01*
X140685Y426314D01*
X140694Y426310D01*
X140709Y426307D01*
Y424870D01*
X136248D01*
X136087Y424978D01*
X135591Y425076D01*
X127809D01*
X127313Y424978D01*
X126892Y424696D01*
X126685Y424489D01*
X126391D01*
X125766Y424230D01*
X125288Y423752D01*
X125029Y423127D01*
Y422451D01*
X125213Y422007D01*
X125037Y421528D01*
X124965Y421442D01*
X124964Y421441D01*
X124952Y421446D01*
X124338Y421700D01*
X123662D01*
X123037Y421441D01*
X122559Y420963D01*
X122300Y420338D01*
Y419662D01*
X122559Y419037D01*
X123037Y418559D01*
X123662Y418300D01*
X124338D01*
X124963Y418559D01*
X125441Y419037D01*
X125607Y419438D01*
X126079D01*
X126460Y419101D01*
X126475Y418957D01*
Y418411D01*
X126734Y417787D01*
X127212Y417308D01*
X127837Y417049D01*
X128513D01*
X129138Y417308D01*
X129472Y417643D01*
X129972Y417440D01*
Y416784D01*
X140709D01*
Y415028D01*
X129972D01*
Y414528D01*
X128528D01*
X127700Y413700D01*
X127662D01*
X127037Y413441D01*
X126559Y412963D01*
X126300Y412338D01*
Y412300D01*
X122000Y408000D01*
X117000D01*
X116000Y409000D01*
Y412338D01*
X116000Y418796D01*
X116241Y419037D01*
X116500Y419662D01*
Y420338D01*
X116241Y420963D01*
X116000Y421204D01*
X116000Y426000D01*
X123000Y433000D01*
X129000D01*
X130000Y432000D01*
D02*
G37*
G36*
X152039Y410075D02*
X154591D01*
X154909Y410075D01*
X154909Y410075D01*
X155091D01*
Y410075D01*
X155409Y410075D01*
X157961D01*
Y410494D01*
X162013D01*
X162507Y410000D01*
Y408000D01*
X162007Y407500D01*
X161041D01*
X160914Y407510D01*
Y407500D01*
X157961Y407500D01*
Y407925D01*
X155091D01*
Y407925D01*
X154909D01*
Y407925D01*
X152039D01*
Y407521D01*
X147979D01*
X147976Y407524D01*
X147973Y407521D01*
X143979D01*
X143500Y408000D01*
Y410000D01*
X144000Y410500D01*
X152039D01*
Y410075D01*
D02*
G37*
D13*
X392219Y409828D02*
G03*
X392897Y409547I677J677D01*
G01*
X286870Y345000D02*
X287000Y344870D01*
Y342000D02*
Y344870D01*
X310000Y345000D02*
X312047Y342953D01*
X308130Y345000D02*
X310000D01*
X312047Y342953D02*
X320000D01*
X421000Y305000D02*
X426913D01*
X426913Y305001D01*
X421000Y305000D02*
X421000Y305000D01*
X364723Y279172D02*
X365000Y279449D01*
X361172Y279172D02*
X364723D01*
X361000Y279000D02*
X361172Y279172D01*
X160551Y226949D02*
Y232000D01*
Y226949D02*
X167500Y220000D01*
X183212D01*
X154449Y232000D02*
X154474Y232026D01*
Y238974D01*
X154500Y239000D01*
X224311Y308130D02*
X231500Y315319D01*
X215177Y419547D02*
X237500D01*
X241804D01*
X242256Y420000D01*
X242500D01*
X440647Y290647D02*
X447500Y297500D01*
X437500Y290551D02*
X437596Y290647D01*
X440647D01*
X446949Y284449D02*
X447500Y285000D01*
X437500Y284449D02*
X446949D01*
X437543Y290595D02*
Y301217D01*
X437587Y301260D01*
X437500Y290551D02*
X437543Y290595D01*
X270000Y238051D02*
Y243000D01*
X387672Y409828D02*
X392219D01*
X367500Y410000D02*
X387500D01*
X403386Y410434D02*
X404434D01*
X405937Y411937D02*
X411144D01*
X392897Y409547D02*
X402500D01*
X403386Y410434D01*
X404434D02*
X405937Y411937D01*
X411161Y411142D02*
Y411919D01*
X411144Y411937D02*
X411161Y411919D01*
X362488Y441000D02*
X367000D01*
X135586Y415901D02*
X135591Y415906D01*
X157500Y282500D02*
X161949D01*
X182156Y264260D02*
X185601Y260815D01*
X191703Y260500D02*
X195256D01*
X176239Y264260D02*
X182156D01*
X195256Y260500D02*
X195756Y260000D01*
X196000D01*
X185601Y260500D02*
Y260815D01*
X156152Y262449D02*
X160598D01*
X162178Y264028D01*
X165834D01*
X166066Y264260D01*
X179976Y235000D02*
X179980Y234996D01*
Y234996D02*
X191437Y223539D01*
Y220000D02*
Y223539D01*
X179980Y234996D02*
Y234996D01*
X287953Y337671D02*
X289109Y338828D01*
X289828D01*
X290000Y339000D01*
X287953Y332500D02*
Y337671D01*
X333251Y373494D02*
X334756Y375000D01*
X335000D01*
X329006Y373494D02*
X333251D01*
X407272Y368172D02*
Y371721D01*
X407100Y368000D02*
X407272Y368172D01*
X265000Y357500D02*
X268925D01*
X265000Y347500D02*
X269449D01*
X357953Y330000D02*
X358828Y330875D01*
Y333828D01*
X359000Y334000D01*
X357953Y320000D02*
Y330000D01*
X117000Y292000D02*
X117026Y291974D01*
X122474D01*
X122500Y291949D01*
X357953Y320000D02*
X367069D01*
X437587Y308740D02*
Y314011D01*
Y305000D02*
Y308740D01*
X439047Y315472D02*
Y330000D01*
X407272Y371721D02*
X407500Y371949D01*
X432000Y368000D02*
X432172Y368172D01*
Y371621D02*
X432500Y371949D01*
X432172Y368172D02*
Y371621D01*
X342781Y417672D02*
X347328D01*
X342500Y417953D02*
X342781Y417672D01*
X347328D02*
X347500Y417500D01*
X268563Y220000D02*
X270000Y221437D01*
X329000Y373488D02*
X329006Y373494D01*
X282500Y275500D02*
Y279449D01*
X292500Y275500D02*
Y279449D01*
X226000Y360244D02*
X227301Y361545D01*
Y366908D01*
X226000Y360000D02*
Y360244D01*
X386000Y340000D02*
Y344449D01*
X330024Y342976D02*
X335476D01*
X330000Y342953D02*
X330024Y342976D01*
X335476D02*
X335500Y343000D01*
X332500Y417953D02*
X342500D01*
X325000Y418384D02*
X325431Y417953D01*
X325000Y418384D02*
Y419370D01*
X325431Y417953D02*
X332500D01*
X215000Y419370D02*
X215177Y419547D01*
X276437Y220000D02*
Y232520D01*
X277522Y233604D02*
Y234998D01*
X276437Y232520D02*
X277522Y233604D01*
X277524Y235000D02*
X278917D01*
X277522Y234998D02*
X277524Y235000D01*
X270000Y221437D02*
Y231949D01*
X100000Y298937D02*
X121260D01*
X122145Y298051D01*
X122500D01*
X120551Y344645D02*
X135000Y330197D01*
Y330000D02*
Y330197D01*
X120551Y344645D02*
Y345000D01*
X435551Y405000D02*
X440000D01*
X419000Y382900D02*
Y386450D01*
X413721Y384016D02*
X419685Y378051D01*
X418856Y386594D02*
Y388841D01*
Y386594D02*
X419000Y386450D01*
X419685Y378051D02*
X420000D01*
X413721Y384016D02*
Y388858D01*
X418839D02*
X418856Y388841D01*
X413721Y416431D02*
X415000Y417710D01*
X413721Y411142D02*
Y416431D01*
X415000Y417710D02*
Y421949D01*
X420000Y368000D02*
Y371949D01*
X437587Y314011D02*
X439047Y315472D01*
Y330000D02*
X439172Y330125D01*
X439000Y335000D02*
X439172Y334828D01*
Y330125D02*
Y334828D01*
X184172Y424723D02*
X184449Y425000D01*
X184000Y420000D02*
X184172Y420172D01*
Y424723D01*
X415000Y428051D02*
Y432500D01*
X402500Y415453D02*
Y420000D01*
X320000Y342953D02*
X330000D01*
X287953Y320000D02*
X287976Y319976D01*
Y314024D02*
Y319976D01*
Y314024D02*
X288000Y314000D01*
X367069Y320000D02*
X367500Y320431D01*
Y320630D01*
X178583Y235000D02*
X179976D01*
X392500Y415453D02*
Y420000D01*
X387500Y410000D02*
X387672Y409828D01*
X416297Y391300D02*
X419997Y395000D01*
X429449D01*
X420000Y378051D02*
X432500D01*
X435551Y395000D02*
X440000D01*
X416297Y388876D02*
Y391300D01*
X416280Y388858D02*
X416297Y388876D01*
X429449Y395000D02*
Y405000D01*
X395000Y368000D02*
Y371949D01*
Y378051D02*
X407500D01*
Y383287D02*
X411161Y386949D01*
Y388858D01*
X407500Y378051D02*
Y383287D01*
X227301Y366908D02*
X227535Y367142D01*
X230685Y361815D02*
Y367142D01*
Y361815D02*
X232500Y360000D01*
D17*
X188000Y324000D02*
Y324108D01*
X187047Y325061D02*
Y335000D01*
Y325061D02*
X188000Y324108D01*
X187047Y311742D02*
X189797Y314492D01*
X191539D02*
X192971Y315924D01*
X194923D02*
X195000Y316000D01*
X187047Y310000D02*
Y311742D01*
X189797Y314492D02*
X191539D01*
X192971Y315924D02*
X194923D01*
D24*
X167953Y335000D02*
D03*
X187047D02*
D03*
X167953Y310000D02*
D03*
X187047D02*
D03*
D25*
X176239Y271740D02*
D03*
Y268000D02*
D03*
Y264260D02*
D03*
X166066D02*
D03*
Y268000D02*
D03*
Y271740D02*
D03*
X427413Y308740D02*
D03*
Y305000D02*
D03*
Y301260D02*
D03*
X437587D02*
D03*
Y305000D02*
D03*
Y308740D02*
D03*
D26*
X178583Y235000D02*
D03*
X171417Y232441D02*
D03*
Y237559D02*
D03*
X278917Y235000D02*
D03*
X286083Y237559D02*
D03*
Y232441D02*
D03*
D27*
X411161Y388858D02*
D03*
X413721D02*
D03*
X416280D02*
D03*
X418839D02*
D03*
Y411142D02*
D03*
X416280D02*
D03*
X413721D02*
D03*
X411161D02*
D03*
D28*
X308130Y345000D02*
D03*
Y350000D02*
D03*
Y355000D02*
D03*
Y360000D02*
D03*
X286870D02*
D03*
Y355000D02*
D03*
Y350000D02*
D03*
Y345000D02*
D03*
D29*
X275551Y367500D02*
D03*
X269449D02*
D03*
X120551Y345000D02*
D03*
X114449D02*
D03*
X226949Y440000D02*
D03*
X233051D02*
D03*
X429449Y405000D02*
D03*
X435551D02*
D03*
Y395000D02*
D03*
X429449D02*
D03*
X160551Y232000D02*
D03*
X154449D02*
D03*
X356386Y451000D02*
D03*
X362488D02*
D03*
X320551Y407500D02*
D03*
X314449D02*
D03*
X210551D02*
D03*
X204449D02*
D03*
X378051Y335000D02*
D03*
X371949D02*
D03*
X184449Y435000D02*
D03*
X190551D02*
D03*
X356386Y441000D02*
D03*
X362488D02*
D03*
X190551Y425000D02*
D03*
X184449D02*
D03*
X269449Y357500D02*
D03*
X275551D02*
D03*
X168051Y282500D02*
D03*
X161949D02*
D03*
X275551Y347500D02*
D03*
X269449D02*
D03*
X185601Y260500D02*
D03*
X191703D02*
D03*
X302551Y232500D02*
D03*
X296449D02*
D03*
X168051Y247500D02*
D03*
X161949D02*
D03*
D30*
X153474Y421563D02*
D03*
Y423531D02*
D03*
X156526Y421563D02*
D03*
Y423531D02*
D03*
X153474Y425500D02*
D03*
Y427468D02*
D03*
Y429437D02*
D03*
X156526D02*
D03*
Y427468D02*
D03*
Y425500D02*
D03*
Y393468D02*
D03*
Y395437D02*
D03*
Y387563D02*
D03*
Y389531D02*
D03*
Y391500D02*
D03*
X153474Y395437D02*
D03*
Y393468D02*
D03*
Y391500D02*
D03*
Y389531D02*
D03*
Y387563D02*
D03*
X156526Y405063D02*
D03*
Y407031D02*
D03*
Y409000D02*
D03*
Y410968D02*
D03*
Y412937D02*
D03*
X153474D02*
D03*
Y410968D02*
D03*
Y409000D02*
D03*
Y407031D02*
D03*
Y405063D02*
D03*
D31*
X135591Y427716D02*
D03*
Y425748D02*
D03*
Y423779D02*
D03*
Y421811D02*
D03*
Y419842D02*
D03*
Y417874D02*
D03*
Y415906D02*
D03*
Y413937D02*
D03*
Y411969D02*
D03*
Y410000D02*
D03*
Y408032D02*
D03*
Y406063D02*
D03*
Y404095D02*
D03*
Y402126D02*
D03*
Y400157D02*
D03*
Y398189D02*
D03*
Y396220D02*
D03*
Y394252D02*
D03*
Y392284D02*
D03*
D32*
X183563Y220000D02*
D03*
X191437D02*
D03*
X268563D02*
D03*
X276437D02*
D03*
D33*
X187500Y221378D02*
D03*
X272500D02*
D03*
D34*
X216634Y334898D02*
D03*
X219784D02*
D03*
X222933D02*
D03*
X226083D02*
D03*
X229233D02*
D03*
X232382D02*
D03*
X235532D02*
D03*
X238682D02*
D03*
X241831D02*
D03*
X244981D02*
D03*
X243406Y367182D02*
D03*
X240256D02*
D03*
X237107D02*
D03*
X233957D02*
D03*
X230807D02*
D03*
X227658D02*
D03*
X224508D02*
D03*
X221359D02*
D03*
X218209D02*
D03*
X215059D02*
D03*
D35*
X320000Y337047D02*
D03*
Y342953D02*
D03*
X330000Y337047D02*
D03*
Y342953D02*
D03*
X342500Y412047D02*
D03*
Y417953D02*
D03*
X332500Y412047D02*
D03*
Y417953D02*
D03*
X237500Y419547D02*
D03*
Y425453D02*
D03*
X227500Y419547D02*
D03*
Y425453D02*
D03*
X358000Y315047D02*
D03*
Y320953D02*
D03*
X392500Y415453D02*
D03*
Y409547D02*
D03*
X402500Y415453D02*
D03*
Y409547D02*
D03*
D36*
X282047Y320000D02*
D03*
X287953D02*
D03*
X282047Y332500D02*
D03*
X287953D02*
D03*
X352047Y330000D02*
D03*
X357953D02*
D03*
X445453Y320000D02*
D03*
X439547D02*
D03*
X445453Y330000D02*
D03*
X439547D02*
D03*
X162047Y292500D02*
D03*
X167953D02*
D03*
X173953Y353000D02*
D03*
X168047D02*
D03*
X185699Y270500D02*
D03*
X191605D02*
D03*
D37*
X101378Y295000D02*
D03*
D38*
X100000Y291063D02*
D03*
Y298937D02*
D03*
D39*
X122500Y298051D02*
D03*
Y291949D02*
D03*
X337500Y434449D02*
D03*
Y440551D02*
D03*
X390000Y285551D02*
D03*
Y279449D02*
D03*
X329000Y367386D02*
D03*
Y373488D02*
D03*
X386000Y344449D02*
D03*
Y350551D02*
D03*
X395000Y378051D02*
D03*
Y371949D02*
D03*
X420000Y378051D02*
D03*
Y371949D02*
D03*
X415000Y428051D02*
D03*
Y421949D02*
D03*
X407500Y378051D02*
D03*
Y371949D02*
D03*
X432500Y378051D02*
D03*
Y371949D02*
D03*
X292500Y279449D02*
D03*
Y285551D02*
D03*
X282500Y279449D02*
D03*
Y285551D02*
D03*
X270000Y231949D02*
D03*
Y238051D02*
D03*
X272500Y285551D02*
D03*
Y279449D02*
D03*
X377500Y285551D02*
D03*
Y279449D02*
D03*
X437500Y284449D02*
D03*
Y290551D02*
D03*
X365000Y279449D02*
D03*
Y285551D02*
D03*
X156152Y268551D02*
D03*
Y262449D02*
D03*
D40*
X320000Y440630D02*
D03*
X315000D02*
D03*
Y419370D02*
D03*
X320000D02*
D03*
X325000Y440630D02*
D03*
X310000D02*
D03*
Y419370D02*
D03*
X325000D02*
D03*
X205000D02*
D03*
X210000D02*
D03*
X215000Y440630D02*
D03*
X210000D02*
D03*
X205000D02*
D03*
X200000D02*
D03*
Y419370D02*
D03*
X215000D02*
D03*
X367500Y299370D02*
D03*
X372500D02*
D03*
X377500D02*
D03*
X382500D02*
D03*
Y320630D02*
D03*
X377500D02*
D03*
X372500D02*
D03*
X367500D02*
D03*
D69*
X312012Y382861D02*
G03*
X316306Y384639I0J6072D01*
G01*
X308679Y384619D02*
G03*
X310078Y384039I1399J1399D01*
G01*
X308000Y382000D02*
G03*
X308679Y382281I0J960D01*
G01*
X310078Y382861D02*
G03*
X308679Y382281I0J-1979D01*
G01*
X315481Y385481D02*
G03*
X316911Y388932I-3451J3451D01*
G01*
X312000Y384039D02*
G03*
X315481Y385481I0J4923D01*
G01*
X308679Y384619D02*
G03*
X308000Y384900I-679J-679D01*
G01*
X320000Y419370D02*
G03*
X318105Y417475I0J-1895D01*
G01*
Y409946D02*
G03*
X320551Y407500I2446J0D01*
G01*
X318768Y406421D02*
G03*
X319970Y406919I0J1700D01*
G01*
X318768Y406421D02*
G03*
X318288Y406222I0J-679D01*
G01*
D02*
G03*
X318089Y405742I480J-480D01*
G01*
X165457Y393857D02*
G03*
X165503Y393857I0J1857D01*
G01*
X157925Y393857D02*
G03*
X157121Y393524I0J-1136D01*
G01*
X142162Y393790D02*
G03*
X142167Y393790I0J1211D01*
G01*
X142162Y393790D02*
G03*
X141503Y393344I0J-710D01*
G01*
X376478Y333882D02*
G03*
X377256Y334205I0J1101D01*
G01*
X377500Y321550D02*
G03*
X376958Y322858I-1850J0D01*
G01*
D02*
G03*
X376316Y323124I-642J-642D01*
G01*
X377096Y318540D02*
G03*
X377500Y319515I-975J975D01*
G01*
X376357Y318136D02*
G03*
X376929Y318373I0J809D01*
G01*
X376316Y333882D02*
G03*
X375813Y333674I0J-710D01*
G01*
D02*
G03*
X375605Y333172I502J-502D01*
G01*
X375813Y323332D02*
G03*
X376316Y323124I502J502D01*
G01*
Y318136D02*
G03*
X375813Y317928I0J-710D01*
G01*
X375605Y323834D02*
G03*
X375813Y323332I710J0D01*
G01*
X375605Y316358D02*
G03*
X376028Y315339I1442J0D01*
G01*
X375813Y317928D02*
G03*
X375605Y317425I502J-502D01*
G01*
X376450Y314500D02*
G03*
X376156Y315210I-1005J0D01*
G01*
D02*
G03*
X376156Y315211I-711J-710D01*
G01*
X167000Y410502D02*
G03*
X164961Y411347I-2039J-2039D01*
G01*
X156905D02*
G03*
X156526Y410968I0J-379D01*
G01*
X153474D02*
G03*
X153079Y411363I-395J0D01*
G01*
X142096Y411363D02*
G03*
X142101Y411363I0J1211D01*
G01*
X141098Y410617D02*
G03*
X141467Y410982I-390J761D01*
G01*
X316895Y417475D02*
G03*
X315000Y419370I-1895J0D01*
G01*
X315030Y406919D02*
G03*
X316232Y406421I1202J1202D01*
G01*
X314449Y407500D02*
G03*
X316895Y409946I0J2446D01*
G01*
X316911Y405742D02*
G03*
X316712Y406222I-679J0D01*
G01*
D02*
G03*
X316232Y406421I-480J-480D01*
G01*
X165652Y395039D02*
G03*
X166066Y395180I0J679D01*
G01*
X165652Y395039D02*
G03*
X165605Y395039I0J-1857D01*
G01*
X157121Y395381D02*
G03*
X157956Y395035I835J835D01*
G01*
X165457D02*
G03*
X165473Y395036I0J679D01*
G01*
X141736Y395142D02*
G03*
X142162Y395000I426J569D01*
G01*
X374395Y333172D02*
G03*
X374187Y333674I-710J0D01*
G01*
D02*
G03*
X373684Y333882I-502J-502D01*
G01*
X372744Y334205D02*
G03*
X373522Y333882I778J778D01*
G01*
X373684Y323124D02*
G03*
X374187Y323332I0J710D01*
G01*
X373072Y318372D02*
G03*
X373643Y318136I571J573D01*
G01*
X373684Y323124D02*
G03*
X373042Y322858I0J-908D01*
G01*
X372500Y319515D02*
G03*
X372904Y318540I1379J0D01*
G01*
X373042Y322858D02*
G03*
X372500Y321550I1308J-1308D01*
G01*
X374395Y317425D02*
G03*
X374187Y317928I-710J0D01*
G01*
X373973Y315339D02*
G03*
X374395Y316358I-1021J1019D01*
G01*
X374187Y317928D02*
G03*
X373684Y318136I-502J-502D01*
G01*
X373844Y315211D02*
G03*
X373550Y314500I710J-710D01*
G01*
X164961Y412558D02*
G03*
X167000Y413402I0J2884D01*
G01*
X156526Y412937D02*
G03*
X156905Y412558I379J0D01*
G01*
X153112Y412574D02*
G03*
X153474Y412937I0J363D01*
G01*
X142101Y412574D02*
G03*
X142096Y412574I-5J-1211D01*
G01*
X168795Y403372D02*
G03*
X160914Y406636I-7880J-7880D01*
G01*
X175238Y396929D02*
G03*
X182309Y394000I7071J7071D01*
G01*
X157264Y406834D02*
G03*
X156788Y407031I-477J-477D01*
G01*
X157264Y406834D02*
G03*
X157741Y406636I477J477D01*
G01*
X239148Y371777D02*
G03*
X239641Y370587I1682J0D01*
G01*
X240134Y369398D02*
G03*
X239641Y370587I-1682J0D01*
G01*
X235431Y390736D02*
G03*
X227551Y394000I-7880J-7880D01*
G01*
X239148Y383037D02*
G03*
X236333Y389833I-9611J0D01*
G01*
X153112Y406668D02*
G03*
X153474Y407031I0J363D01*
G01*
X142101Y406668D02*
G03*
X142096Y406668I-5J-1211D01*
G01*
X237477Y370587D02*
G03*
X237970Y371777I-1190J1190D01*
G01*
Y382388D02*
G03*
X235041Y389459I-10000J0D01*
G01*
X237477Y370587D02*
G03*
X236984Y369398I1190J-1190D01*
G01*
X234608Y389892D02*
G03*
X227537Y392821I-7071J-7071D01*
G01*
X174407Y396093D02*
G03*
X182305Y392821I7897J7897D01*
G01*
X157741Y405458D02*
G03*
X157264Y405260I0J-674D01*
G01*
X153474Y405063D02*
G03*
X153079Y405458I-395J0D01*
G01*
X142096Y405458D02*
G03*
X142101Y405458I0J1211D01*
G01*
X156788Y405063D02*
G03*
X157264Y405260I0J674D01*
G01*
X167971Y402529D02*
G03*
X160900Y405458I-7071J-7071D01*
G01*
X141098Y404711D02*
G03*
X141467Y405076I-390J761D01*
G01*
X216650Y385659D02*
G03*
X216735Y385567I1455J1255D01*
G01*
X219159Y379641D02*
G03*
X216735Y385567I-8481J-10D01*
G01*
X128378Y400747D02*
G03*
X128647Y400819I-45J709D01*
G01*
X126420Y400630D02*
G03*
X126463Y400632I0J710D01*
G01*
X126420Y400630D02*
G03*
X121290Y395500I0J-5130D01*
G01*
Y392500D02*
G03*
X125789Y388000I4500J0D01*
G01*
X152184Y387563D02*
G03*
X151128Y388000I-1056J-1056D01*
G01*
X183671Y389152D02*
G03*
X183666Y389152I-5J-1211D01*
G01*
X220369Y379620D02*
G03*
X220369Y379626I-1211J0D01*
G01*
X220369Y379648D02*
G03*
X217599Y386415I-9692J-17D01*
G01*
X220369Y369611D02*
G03*
X221339Y368642I970J0D01*
G01*
X217385Y386661D02*
G03*
X211957Y389152I-5440J-4693D01*
G01*
X217567Y386450D02*
G03*
X217597Y386417I538J464D01*
G01*
X128819Y399462D02*
G03*
X128453Y399539I-325J-632D01*
G01*
X128820Y399461D02*
G03*
X128819Y399462I-326J-631D01*
G01*
X126420Y399420D02*
G03*
X126536Y399423I0J1921D01*
G01*
X126420Y399420D02*
G03*
X122500Y395500I0J-3920D01*
G01*
Y392500D02*
G03*
X125789Y389211I3289J0D01*
G01*
X152638Y389531D02*
G03*
X151864Y389211I0J-1095D01*
G01*
X205533Y417204D02*
G03*
X206232Y416915I699J699D01*
G01*
X205000Y418491D02*
G03*
X205533Y417204I1820J0D01*
G01*
X206712Y416716D02*
G03*
X206232Y416915I-480J-480D01*
G01*
X206911Y416236D02*
G03*
X206712Y416716I-679J0D01*
G01*
X206232Y408579D02*
G03*
X206712Y408778I0J679D01*
G01*
X206712Y406222D02*
G03*
X206232Y406421I-480J-480D01*
G01*
X205030Y406919D02*
G03*
X206232Y406421I1202J1202D01*
G01*
X206911Y405742D02*
G03*
X206712Y406222I-679J0D01*
G01*
X206341Y403840D02*
G03*
X206911Y405217I-1376J1376D01*
G01*
X206020Y408579D02*
G03*
X205181Y408232I0J-1189D01*
G01*
D02*
G03*
X205180Y408231I840J-842D01*
G01*
X198358Y400000D02*
G03*
X205429Y402929I0J10000D01*
G01*
X188083D02*
G03*
X195154Y400000I7071J7071D01*
G01*
X153344Y423400D02*
G03*
X153474Y423531I0J131D01*
G01*
X142279Y423400D02*
G03*
X142274Y423400I-5J-1211D01*
G01*
X141564Y426339D02*
G03*
X141098Y427100I-855J0D01*
G01*
X141564Y424111D02*
G03*
X142274Y423400I710J0D01*
G01*
X171143Y419869D02*
G03*
X163216Y423152I-7927J-7927D01*
G01*
X157207Y423390D02*
G03*
X157820Y423136I613J613D01*
G01*
X208768Y416915D02*
G03*
X209467Y417204I0J988D01*
G01*
X209819Y408232D02*
G03*
X208980Y408579I-840J-842D01*
G01*
X209820Y408231D02*
G03*
X209819Y408232I-841J-841D01*
G01*
X208768Y416915D02*
G03*
X208288Y416716I0J-679D01*
G01*
D02*
G03*
X208089Y416236I480J-480D01*
G01*
Y409258D02*
G03*
X208288Y408778I679J0D01*
G01*
D02*
G03*
X208768Y408579I480J480D01*
G01*
X208768Y406421D02*
G03*
X209970Y406919I0J1700D01*
G01*
X208768Y406421D02*
G03*
X208288Y406222I0J-679D01*
G01*
D02*
G03*
X208089Y405742I480J-480D01*
G01*
X207347Y403180D02*
G03*
X208089Y404973I-1793J1793D01*
G01*
X198364Y398821D02*
G03*
X206258Y402091I0J11163D01*
G01*
X187253Y402093D02*
G03*
X195150Y398821I7897J7897D01*
G01*
X157820Y421958D02*
G03*
X157207Y421704I0J-867D01*
G01*
X153474Y421563D02*
G03*
X152847Y422190I-627J0D01*
G01*
X170287Y419013D02*
G03*
X163216Y421942I-7071J-7071D01*
G01*
X142274Y422190D02*
G03*
X141564Y421479I0J-710D01*
G01*
X141098Y418491D02*
G03*
X141564Y419252I-390J761D01*
G01*
X209467Y417204D02*
G03*
X210000Y418491I-1287J1287D01*
G01*
X206712Y408778D02*
G03*
X206911Y409258I-480J480D01*
G01*
X166066Y393720D02*
G03*
X165635Y393861I-414J-538D01*
G01*
X316833Y385167D02*
G03*
X318089Y388199I-3032J3032D01*
G01*
X141221Y395527D02*
G03*
X141098Y395604I-513J-685D01*
G01*
X141467Y407050D02*
G03*
X142096Y406668I630J329D01*
G01*
Y405458D02*
G03*
X141467Y405076I0J-710D01*
G01*
X218189Y368642D02*
G03*
X219159Y369611I0J970D01*
G01*
X141098Y392900D02*
G03*
X141503Y393344I-390J761D01*
G01*
X216468Y385870D02*
G03*
X211953Y387942I-4524J-3903D01*
G01*
X141467Y412955D02*
G03*
X142096Y412574I630J329D01*
G01*
X374187Y323332D02*
G03*
X374395Y323834I-502J502D01*
G01*
X142096Y411363D02*
G03*
X141467Y410982I0J-710D01*
G01*
X141467Y412955D02*
G03*
X141098Y413320I-758J-396D01*
G01*
X217599Y386415D02*
G03*
X217597Y386417I-864J-847D01*
G01*
X141467Y407050D02*
G03*
X141098Y407415I-758J-396D01*
G01*
X316306Y384639D02*
X316833Y385167D01*
X310078Y384039D02*
X312000D01*
X310078Y382861D02*
X312012D01*
X319970Y406919D02*
X320551Y407500D01*
X318105Y409946D02*
Y417475D01*
X318089Y388199D02*
Y405742D01*
X165503Y393857D02*
X165635Y393860D01*
X157925Y393857D02*
X165457D01*
X156581Y393524D02*
X157121D01*
X142167Y393790D02*
X142186Y393808D01*
X377256Y334205D02*
X378051Y335000D01*
X376316Y333882D02*
X376478D01*
X377500Y320630D02*
Y321550D01*
X376929Y318373D02*
X377096Y318540D01*
X376316Y318136D02*
X376357D01*
X375605Y323834D02*
Y333172D01*
X376028Y315339D02*
X376156Y315210D01*
X375605Y316358D02*
Y317425D01*
X156905Y411347D02*
X164961D01*
X142101Y411363D02*
X153079D01*
X142101Y411363D02*
X142101Y411363D01*
X153474Y410968D02*
X156526D01*
X140353Y410235D02*
X141098Y410617D01*
X316895Y409946D02*
Y417475D01*
X316911Y388932D02*
Y405742D01*
X314449Y407500D02*
X315030Y406919D01*
X166066Y395180D02*
X167000Y395900D01*
X157066Y395437D02*
X157121Y395381D01*
X141221Y395527D02*
X141736Y395142D01*
X165473Y395036D02*
X165605Y395039D01*
X157956Y395035D02*
X165457D01*
X142162Y395000D02*
X142635D01*
X374395Y323834D02*
Y333172D01*
X373522Y333882D02*
X373684D01*
X372904Y318540D02*
X373072Y318372D01*
X372500Y319515D02*
Y320630D01*
Y321550D01*
X374395Y316358D02*
Y317425D01*
X373844Y315211D02*
X373973Y315339D01*
X373643Y318136D02*
X373684D01*
X156905Y412558D02*
X164961D01*
X153474Y412937D02*
X156526D01*
X142101Y412574D02*
X153112D01*
X142101D02*
X142101D01*
X168795Y403372D02*
X175238Y396929D01*
X182309Y394000D02*
X227551D01*
X156526Y407031D02*
X156788D01*
X157741Y406636D02*
X160914D01*
X240134Y367142D02*
Y369398D01*
X235431Y390736D02*
X236333Y389833D01*
X239148Y371777D02*
Y383037D01*
X142101Y406668D02*
X153112D01*
X142101D02*
X142101D01*
X237970Y371777D02*
Y382388D01*
X182305Y392821D02*
X227537D01*
X236984Y367142D02*
Y369398D01*
X234608Y389892D02*
X235041Y389459D01*
X157741Y405458D02*
X160900D01*
X153474Y405063D02*
X154016D01*
X142101Y405458D02*
X153079D01*
X142101Y405458D02*
X142101Y405458D01*
X156526Y405063D02*
X156788D01*
X140353Y404330D02*
X141098Y404711D01*
X219159Y379641D02*
X219159Y379641D01*
X219159Y379620D02*
Y379641D01*
X216468Y385870D02*
X216650Y385659D01*
X128647Y400819D02*
X130828Y401891D01*
X125789Y388000D02*
X151128D01*
X126463Y400632D02*
X128378Y400747D01*
X121290Y392500D02*
Y395500D01*
X152184Y387563D02*
X153474D01*
X211914Y389152D02*
X211957D01*
X183671Y389152D02*
X183840D01*
X220369Y379626D02*
Y379648D01*
X220369Y379648D02*
X220369Y379648D01*
X220369Y369611D02*
Y379620D01*
X217385Y386661D02*
X217567Y386450D01*
X128819Y399462D02*
X128820Y399461D01*
X130078Y398808D01*
X152638Y389531D02*
X153474D01*
X128451Y399539D02*
X128453Y399539D01*
X126536Y399423D02*
X128451Y399539D01*
X122500Y392500D02*
Y395500D01*
X183499Y389152D02*
X183666D01*
X125789Y389211D02*
X151864D01*
X205000Y418491D02*
Y419370D01*
X206911Y409258D02*
Y416236D01*
X206020Y408579D02*
X206232D01*
X206911Y405217D02*
Y405742D01*
X205429Y402929D02*
X206341Y403840D01*
X204449Y407500D02*
X205181Y408232D01*
X176187Y414825D02*
X188083Y402929D01*
X195154Y400000D02*
X198358D01*
X151500Y423400D02*
X153344D01*
X142279Y423400D02*
X151500D01*
X142279D02*
X142279D01*
X141564Y425711D02*
Y426339D01*
X141564Y424111D02*
Y425711D01*
X158195Y423152D02*
X163216D01*
X157820Y423136D02*
X158179D01*
X208768Y408579D02*
X208980D01*
X208089Y409258D02*
Y416236D01*
X209819Y408232D02*
X210551Y407500D01*
X208089Y404973D02*
Y405742D01*
X206258Y402091D02*
X207347Y403180D01*
X195150Y398821D02*
X198364D01*
X157820Y421958D02*
X158179D01*
X158195Y421942D02*
X163216D01*
X157124Y421621D02*
X157207Y421704D01*
X142274Y422190D02*
X152847D01*
X142274Y422190D02*
X142274Y422190D01*
X153474Y421563D02*
X154016D01*
X170287Y419013D02*
X175958Y413342D01*
X141564Y419252D02*
Y421479D01*
X140353Y418109D02*
X141098Y418491D01*
X153474Y389531D02*
X154016D01*
X156526D02*
X157067D01*
X155984D02*
X156526D01*
X377500Y319515D02*
Y320630D01*
X156526Y395437D02*
X157066D01*
X155984D02*
X156526D01*
X153474D02*
X154016D01*
X152933D02*
X153474D01*
X156526Y387563D02*
X157067D01*
X155984D02*
X156526D01*
X153474D02*
X154016D01*
X153474Y393468D02*
X154016D01*
X152933D02*
X153474D01*
X155984Y407031D02*
X156526D01*
X171134Y399366D02*
X173250Y397250D01*
X170576Y399366D02*
X171134D01*
X170029Y398819D02*
X170576Y399366D01*
X169555Y398819D02*
X170029D01*
X168846Y399529D02*
X169555Y398819D01*
X168846Y399529D02*
Y400003D01*
X169393Y400550D01*
Y401107D01*
X167971Y402529D02*
X169393Y401107D01*
X167971Y402529D02*
X167971Y402529D01*
X173250Y397250D02*
X174407Y396093D01*
X176187Y414825D02*
Y414825D01*
X175949Y415063D02*
X176187Y414825D01*
X174985Y416027D02*
X175949Y415063D01*
X174985Y416027D02*
Y416585D01*
X175480Y417080D01*
Y417553D01*
X174770Y418263D02*
X175480Y417553D01*
X174297Y418263D02*
X174770D01*
X173802Y417768D02*
X174297Y418263D01*
X173244Y417768D02*
X173802D01*
X173244Y417768D02*
X173244Y417768D01*
X173006Y418006D02*
X173244Y417768D01*
X173006Y418006D02*
X173006D01*
X188719Y389134D02*
X191915D01*
X188325Y389528D02*
X188719Y389134D01*
X188325Y389528D02*
Y390103D01*
X187990Y390437D02*
X188325Y390103D01*
X186986Y390437D02*
X187990D01*
X186651Y390103D02*
X186986Y390437D01*
X186651Y389528D02*
Y390103D01*
X186257Y389134D02*
X186651Y389528D01*
X185920Y389134D02*
X186257D01*
X191915D02*
X208381D01*
X183859D02*
X185920D01*
X157124Y423473D02*
X157207Y423390D01*
X155984Y405063D02*
X156024D01*
X154413Y405460D02*
X155587D01*
X171143Y419869D02*
X173006Y418006D01*
X154413Y423134D02*
X155587D01*
X154016Y423531D02*
X154413Y423134D01*
X157067Y423531D02*
X157124Y423474D01*
X208400Y389115D02*
X211877D01*
X157067Y389531D02*
X157465Y389134D01*
X155587Y405460D02*
X155984Y405063D01*
X155587Y395039D02*
X155984Y395437D01*
X154413Y387960D02*
X155587D01*
X154016Y387563D02*
X154413Y387960D01*
X154413Y421960D02*
X155587D01*
X154413Y406634D02*
X155587D01*
X154016Y407031D02*
X154413Y406634D01*
X155587D02*
X155984Y407031D01*
X156526Y393468D02*
X156581Y393524D01*
X153474Y407031D02*
X154016D01*
Y405063D02*
X154413Y405460D01*
X157124Y423473D02*
Y423474D01*
X176003Y413342D02*
X187253Y402093D01*
X204449Y407500D02*
X205030Y406919D01*
X210000Y418491D02*
Y419370D01*
X209970Y406919D02*
X210551Y407500D01*
X175958Y413342D02*
X176003D01*
X154413Y389134D02*
X155587D01*
X211877Y389115D02*
X211914Y389152D01*
X155587Y389134D02*
X155984Y389531D01*
X183481Y389134D02*
X183499Y389152D01*
X207895Y387960D02*
X207914Y387942D01*
X154016Y395437D02*
X154413Y395039D01*
X148408Y393866D02*
X152535D01*
X142635Y395000D02*
X142654Y394981D01*
X154016Y393468D02*
X154413Y393866D01*
X158179Y421958D02*
X158195Y421942D01*
X158179Y423136D02*
X158195Y423152D01*
X173006Y418006D02*
Y418006D01*
X156526Y423531D02*
X157067D01*
X155587Y421960D02*
X155984Y421563D01*
X156526D02*
X157067D01*
X154413Y393866D02*
X155587D01*
X183007Y387960D02*
X183009Y387958D01*
X219159Y379620D02*
X219159Y379620D01*
X155984Y393468D02*
X156526D01*
X155587Y393866D02*
X155984Y393468D01*
X152535Y393866D02*
X152933Y393468D01*
X166066Y393720D02*
X167000Y393000D01*
X152535Y395039D02*
X152933Y395437D01*
X147864Y394981D02*
X147922Y395039D01*
X154413D02*
X155587D01*
X148350Y393808D02*
X148408Y393866D01*
X142186Y393808D02*
X148350D01*
X147922Y395039D02*
X152535D01*
X142654Y394981D02*
X147864D01*
X151500Y423400D02*
X151500Y423400D01*
X183348Y387960D02*
X207895D01*
X157067Y387563D02*
X157465Y387960D01*
X183007D01*
X141564Y425711D02*
X141564Y425711D01*
X153474Y423531D02*
X154016D01*
X183009Y387958D02*
X183345D01*
X157465Y389134D02*
X183481D01*
X135591Y417874D02*
X140353Y418109D01*
X130078Y398808D02*
X130828Y398424D01*
X140353Y413702D02*
X141098Y413320D01*
X371949Y335000D02*
X372744Y334205D01*
X130828Y398424D02*
X135591Y398189D01*
X130828Y401891D02*
X135591Y402126D01*
Y427716D02*
X140353Y427481D01*
X141098Y427100D01*
X219159Y369611D02*
Y379620D01*
X135591Y404095D02*
X140353Y404330D01*
X135591Y410000D02*
X140353Y410235D01*
X135591Y408032D02*
X140353Y407796D01*
X141098Y407415D01*
X140353Y392519D02*
X141098Y392900D01*
X135591Y413937D02*
X140353Y413702D01*
X135591Y392284D02*
X140353Y392519D01*
X135591Y396220D02*
X140353Y395985D01*
X141098Y395604D01*
X183345Y387958D02*
X183348Y387960D01*
X207914Y387942D02*
X211953D01*
X155587Y387960D02*
X155984Y387563D01*
X154016Y389531D02*
X154413Y389134D01*
X208381Y389134D02*
X208400Y389115D01*
X183840Y389152D02*
X183859Y389134D01*
X157067Y421563D02*
X157124Y421620D01*
X154016Y421563D02*
X154413Y421960D01*
X157124Y421620D02*
Y421621D01*
X155587Y423134D02*
X155984Y423531D01*
D70*
X130078Y398808D02*
D03*
D71*
X390000Y287728D02*
G03*
X387071Y294799I-10000J0D01*
G01*
X325000Y440630D02*
G03*
X325190Y440551I190J190D01*
G01*
X382915Y297334D02*
X384536D01*
X382500Y297749D02*
Y299370D01*
Y297749D02*
X382915Y297334D01*
X384536D02*
X387071Y294799D01*
X390000Y285551D02*
Y287728D01*
X383683Y279449D02*
X390000D01*
X383000Y279000D02*
X383235D01*
X383683Y279449D01*
X360000Y300000D02*
X367085D01*
X233051Y440000D02*
X238000D01*
X215412D02*
X227500D01*
X305235D02*
X305865Y440630D01*
X305000Y440000D02*
X305235D01*
X305865Y440630D02*
X310000D01*
X200000Y440415D02*
Y440630D01*
X199585Y440000D02*
X200000Y440415D01*
X195000Y440000D02*
X199585D01*
X337000Y422800D02*
Y423035D01*
X337500Y423535D01*
Y434449D01*
X367085Y300000D02*
X367500Y299585D01*
Y299370D02*
Y299585D01*
X325190Y440551D02*
X337500D01*
D72*
X450000Y437500D02*
D03*
X120000Y267500D02*
D03*
X450000D02*
D03*
D73*
X285000Y355000D02*
X286870D01*
X294500Y315500D02*
Y349397D01*
X288897Y355000D02*
X294500Y349397D01*
X285000Y306000D02*
X294500Y315500D01*
X286870Y355000D02*
X288897D01*
X272500Y285551D02*
X272657Y285709D01*
X272689D01*
X274067Y287086D02*
Y287118D01*
X284959Y298010D02*
X293833D01*
X272689Y285709D02*
X274067Y287086D01*
Y287118D02*
X284959Y298010D01*
X272815Y285551D02*
X282500D01*
X407000Y354000D02*
X410000Y351000D01*
X306500Y364000D02*
X323252D01*
X302500Y360000D02*
X306500Y364000D01*
X319000Y355000D02*
X328000Y364000D01*
X302500Y352500D02*
Y360000D01*
X308130Y355000D02*
X319000D01*
X323252Y364000D02*
X326252Y367000D01*
X364000D01*
X307715Y350415D02*
X308130Y350000D01*
X302500Y352500D02*
X304585Y350415D01*
X307715D01*
X295000Y360000D02*
X305000Y370000D01*
X286870Y360000D02*
X295000D01*
X364000Y367000D02*
X377000Y354000D01*
X407000D01*
X405000Y351000D02*
X427152Y328848D01*
X407000Y323500D02*
X421880Y308620D01*
X427293D01*
X427413Y308740D01*
X427152Y309001D02*
Y328848D01*
Y309001D02*
X427413Y308740D01*
Y301260D02*
X427797D01*
X410000Y351000D02*
X431000Y330000D01*
Y304463D02*
Y330000D01*
X427797Y301260D02*
X431000Y304463D01*
X421000Y301000D02*
X427449D01*
X414500Y294500D02*
X421000Y301000D01*
X410000Y294500D02*
X414500D01*
X376000Y351000D02*
X405000D01*
X267000Y305000D02*
Y338634D01*
X275551Y347185D01*
X128579Y421811D02*
X135591D01*
X127518Y420749D02*
X128579Y421811D01*
X126425Y420253D02*
X126921Y420749D01*
X127518D01*
X124253Y420253D02*
X126425D01*
X124000Y420000D02*
X124253Y420253D01*
X220346Y325654D02*
X220500Y325500D01*
X220346Y325654D02*
Y334174D01*
X275551Y357500D02*
X282500D01*
X285000Y355000D01*
X305000Y370000D02*
X365000D01*
X372500Y362500D01*
X380000D01*
X363000Y364000D02*
X376000Y351000D01*
X328000Y364000D02*
X363000D01*
X385000Y357500D02*
X415000D01*
X380000Y362500D02*
X385000Y357500D01*
X415000D02*
X420000Y352500D01*
X275551Y347185D02*
Y347500D01*
X285999Y350000D02*
X286870D01*
X285140Y349141D02*
X285999Y350000D01*
X275551Y347815D02*
X277736Y350000D01*
X286840D01*
X275551Y347500D02*
Y347815D01*
X219661Y334858D02*
X220346Y334174D01*
X237000Y327000D02*
Y327487D01*
X235409Y334858D02*
X236094Y334174D01*
Y328393D02*
Y334174D01*
Y328393D02*
X237000Y327487D01*
X233656Y329344D02*
X234000Y329000D01*
X232260Y331905D02*
X233656Y330510D01*
Y329344D02*
Y330510D01*
X232260Y331905D02*
Y334858D01*
X223000Y329000D02*
Y334669D01*
X222811Y334858D02*
X223000Y334669D01*
X238559Y334858D02*
X239243Y334174D01*
X240000Y329000D02*
Y329487D01*
X239243Y330244D02*
X240000Y329487D01*
X239243Y330244D02*
Y334174D01*
X241709Y334858D02*
X242393Y334174D01*
Y325607D02*
X242500Y325500D01*
X242393Y325607D02*
Y334174D01*
X225980Y327020D02*
Y334839D01*
X225961Y334858D02*
X225980Y334839D01*
Y327020D02*
X226000Y327000D01*
X229055Y334803D02*
X229110Y334858D01*
X229055Y329055D02*
Y334803D01*
X229000Y329000D02*
X229055Y329055D01*
D74*
X275948Y367103D02*
X277897D01*
X285000Y360000D02*
X286870D01*
X275551Y367500D02*
X275948Y367103D01*
X277897D02*
X285000Y360000D01*
X297000Y344000D02*
Y348000D01*
X302694Y343306D02*
Y347694D01*
X303000Y348000D01*
X296689Y238688D02*
X310700Y252700D01*
X311185D02*
X312415Y253930D01*
X310700Y252700D02*
X311185D01*
X312415Y254415D02*
X313000Y255000D01*
X312415Y253930D02*
Y254415D01*
X377500Y285551D02*
Y299370D01*
Y301240D01*
X382776Y285776D02*
X383000Y286000D01*
X377724Y285776D02*
X382776D01*
X377500Y285551D02*
X377724Y285776D01*
X360386Y445000D02*
X408000D01*
X417000Y436000D01*
X323000Y445000D02*
X352386D01*
X356386Y441000D01*
X321164Y443163D02*
X323000Y445000D01*
X296689Y233382D02*
Y238688D01*
X313000Y255000D02*
Y328000D01*
X286083Y232441D02*
X295267D01*
X295882Y233056D02*
Y233382D01*
X295267Y232441D02*
X295882Y233056D01*
Y233382D02*
X296689D01*
X356386Y441000D02*
X360386Y445000D01*
X326769Y454269D02*
X353117D01*
X356386Y451000D01*
X315000Y442500D02*
X326769Y454269D01*
X297000Y344000D02*
X313000Y328000D01*
X302694Y343306D02*
X318000Y328000D01*
X210000Y440630D02*
Y448000D01*
X318000Y274000D02*
Y328000D01*
X176119Y261119D02*
Y264140D01*
X176239Y264260D01*
X176000Y261000D02*
X176119Y261119D01*
X128175Y418749D02*
X128182D01*
X129272Y419839D01*
X135588D01*
X297223Y296400D02*
Y296620D01*
X292500Y291677D02*
X297223Y296400D01*
X190551Y425000D02*
X195000D01*
X208096Y438096D02*
X209233D01*
X195000Y425000D02*
X208096Y438096D01*
X176500Y247500D02*
X185000Y239000D01*
X356386Y451000D02*
X359386Y454000D01*
X411000D01*
X420000Y445000D01*
X436000Y419000D02*
X436306Y419306D01*
X135588Y419839D02*
X135591Y419842D01*
X292500Y285551D02*
Y291677D01*
X425491Y414000D02*
X436000D01*
X419206Y411510D02*
X423000D01*
X425491Y414000D01*
X418839Y411142D02*
X419206Y411510D01*
X421000Y419000D02*
X436000D01*
X416280Y411142D02*
X416367Y411229D01*
Y414367D02*
X421000Y419000D01*
X416367Y411229D02*
Y414367D01*
X205000Y440630D02*
Y448000D01*
X209233Y438096D02*
X210000Y438863D01*
Y440630D01*
X201240Y435000D02*
X205000Y438760D01*
X190551Y435000D02*
X201240D01*
X205000Y438760D02*
Y440630D01*
X320000Y442397D02*
X320767Y443163D01*
X320000Y440630D02*
Y442397D01*
X320767Y443163D02*
X321164D01*
X315000Y440630D02*
Y442500D01*
X365224Y285776D02*
X370776D01*
X365000Y285551D02*
X365224Y285776D01*
X370776D02*
X371000Y286000D01*
X168051Y247500D02*
X176500D01*
X170022Y237561D02*
X170024Y237559D01*
X170022Y237561D02*
Y238955D01*
X168051Y240925D02*
Y247500D01*
X170024Y237559D02*
X171417D01*
X168051Y240925D02*
X170022Y238955D01*
X365000Y290000D02*
X372500Y297500D01*
Y299370D01*
X365000Y285551D02*
Y290000D01*
D75*
X310409Y360409D02*
X311836Y361836D01*
X313336D01*
X313500Y362000D01*
X308539Y360409D02*
X310409D01*
X308130Y360000D02*
X308539Y360409D01*
X310407Y254892D02*
Y263593D01*
X310500Y263685D01*
X310315Y254800D02*
X310407Y254892D01*
X286083Y237559D02*
X291327D01*
X291768Y238000D02*
X292000D01*
X291327Y237559D02*
X291768Y238000D01*
X272500Y279449D02*
X272787D01*
X273626Y278610D01*
Y277546D02*
Y278610D01*
Y277546D02*
X273970Y277202D01*
Y276970D02*
Y277202D01*
X114449Y345000D02*
X114474Y344974D01*
Y341026D02*
X114500Y341000D01*
X114474Y341026D02*
Y344974D01*
X100000Y291063D02*
X107437D01*
X110500Y288000D01*
X167672Y234836D02*
X170067Y232441D01*
X165500Y235000D02*
X165664Y234836D01*
X170067Y232441D02*
X171417D01*
X165664Y234836D02*
X167672D01*
X302526Y232526D02*
X302551Y232500D01*
X302500Y239500D02*
X302526Y239474D01*
Y232526D02*
Y239474D01*
X362494Y447506D02*
Y450994D01*
X362488Y451000D02*
X362494Y450994D01*
Y447506D02*
X362500Y447500D01*
X135559Y406032D02*
X135591Y406063D01*
X127532Y406032D02*
X135559D01*
X127500Y406000D02*
X127532Y406032D01*
X363476Y315024D02*
X363500Y315000D01*
X358024Y315024D02*
X363476D01*
X358000Y315047D02*
X358024Y315024D01*
X227030Y429300D02*
X227194Y429136D01*
Y425759D02*
Y429136D01*
Y425759D02*
X227500Y425453D01*
X232262Y424530D02*
X233185Y425453D01*
X232030Y424530D02*
X232262D01*
X233185Y425453D02*
X237500D01*
X199664Y414164D02*
Y419034D01*
X199500Y414000D02*
X199664Y414164D01*
Y419034D02*
X200000Y419370D01*
X180000Y435000D02*
X184449D01*
X277000Y323000D02*
X277164Y322836D01*
X279353D01*
X195268Y270500D02*
X195768Y270000D01*
X196000D01*
X191605Y270500D02*
X195268D01*
X126819Y422789D02*
X127809Y423779D01*
X126729Y422789D02*
X126819D01*
X127809Y423779D02*
X135591D01*
X173953Y353000D02*
X179750D01*
X216506Y329006D02*
Y334852D01*
X216500Y329000D02*
X216506Y329006D01*
Y334852D02*
X216512Y334858D01*
X162000Y268000D02*
X166066D01*
X155867Y268836D02*
X156152Y268551D01*
X151000Y269000D02*
X151164Y268836D01*
X155867D01*
X265000Y367500D02*
X269449D01*
X445453Y330000D02*
X450000D01*
X445453Y320000D02*
X445584Y319869D01*
X449606D02*
X449737Y319737D01*
X445584Y319869D02*
X449606D01*
X161974Y242026D02*
X162000Y242000D01*
X161974Y242026D02*
Y247474D01*
X158240Y292500D02*
X163287D01*
X382000Y314000D02*
Y314232D01*
X330000Y332000D02*
Y337047D01*
X310000Y419370D02*
Y420991D01*
X307332Y421400D02*
X309591D01*
X306000Y422500D02*
X306232D01*
X307332Y421400D01*
X309591D02*
X310000Y420991D01*
X382000Y314232D02*
X382500Y314732D01*
Y320630D01*
X224173Y362905D02*
Y363977D01*
X222000Y360732D02*
X224173Y362905D01*
X222000Y360500D02*
Y360732D01*
X224173Y363977D02*
X224386Y364189D01*
Y367142D01*
X215149Y361582D02*
Y366929D01*
X214937Y367142D02*
X215149Y366929D01*
Y361582D02*
X215500Y361232D01*
Y361000D02*
Y361232D01*
X234047Y362685D02*
Y366929D01*
X233835Y367142D02*
X234047Y366929D01*
Y362685D02*
X236000Y360732D01*
Y360500D02*
Y360732D01*
X243142Y367000D02*
X243284Y367142D01*
X243142Y361642D02*
Y367000D01*
X243000Y361500D02*
X243142Y361642D01*
X244929Y329071D02*
Y334787D01*
X244858Y334858D02*
X244929Y334787D01*
Y329071D02*
X245000Y329000D01*
X377500Y275000D02*
Y279449D01*
X128146Y394146D02*
X135485D01*
X128000Y394000D02*
X128146Y394146D01*
X135485D02*
X135591Y394252D01*
Y400157D02*
X135669Y400079D01*
X142921D01*
X143000Y400000D01*
X135575Y411984D02*
X135591Y411969D01*
X128016Y411984D02*
X135575D01*
X128000Y412000D02*
X128016Y411984D01*
X342500Y407500D02*
Y412047D01*
X332500Y407500D02*
Y412047D01*
X320000Y332000D02*
Y337047D01*
X282047Y320000D02*
Y320142D01*
X279353Y322836D02*
X282047Y320142D01*
X277232Y333000D02*
X277732Y332500D01*
X282047D01*
X277000Y333000D02*
X277232D01*
X347500Y330000D02*
X352047D01*
X161949Y247500D02*
X161974Y247474D01*
D76*
X231500Y315319D02*
Y326500D01*
X142500Y277000D02*
X156000D01*
X161260Y271740D02*
X166066D01*
X156000Y277000D02*
X161260Y271740D01*
X185912Y270713D02*
Y274912D01*
X185699Y270500D02*
X185912Y270713D01*
Y274912D02*
X186000Y275000D01*
X179237Y268000D02*
X181737Y270500D01*
X176239Y268000D02*
X179237D01*
X181737Y270500D02*
X185699D01*
X168051Y273726D02*
Y282500D01*
X166066Y271740D02*
X168051Y273726D01*
X167953Y292500D02*
Y310000D01*
Y282929D02*
Y292500D01*
Y310000D02*
Y335000D01*
Y352500D01*
X208198Y376322D02*
X208512Y376009D01*
X210566D01*
D77*
X160450Y357000D02*
Y366550D01*
X118000Y408726D02*
X119000Y409726D01*
X118000Y381000D02*
Y408726D01*
X124897Y415897D02*
X124901Y415901D01*
X118000Y381000D02*
X127000Y372000D01*
X160450Y323000D02*
Y356450D01*
Y313100D02*
Y323000D01*
X155000Y372000D02*
X160450Y366550D01*
X127000Y372000D02*
X155000D01*
X119000Y409726D02*
Y415619D01*
Y421141D02*
X124858Y427000D01*
X119000Y415619D02*
Y421141D01*
X124619Y415619D02*
X124897Y415897D01*
X125000Y427000D02*
Y427275D01*
X119000Y415619D02*
X124619D01*
X125000Y427275D02*
X127704Y429979D01*
X160450Y302000D02*
Y313100D01*
X124858Y427000D02*
X125000D01*
D78*
X201949Y347500D02*
D03*
X258051Y367185D02*
D03*
Y327815D02*
D03*
X245571Y308130D02*
D03*
X224311D02*
D03*
X201949D02*
D03*
Y268760D02*
D03*
Y229390D02*
D03*
X235728D02*
D03*
X258051Y288445D02*
D03*
Y249075D02*
D03*
D79*
X201949Y357343D02*
D03*
Y337657D02*
D03*
X258051Y357343D02*
D03*
Y337657D02*
D03*
Y319153D02*
D03*
X201949D02*
D03*
X248917Y375453D02*
D03*
X230020D02*
D03*
X211122D02*
D03*
D80*
X109134Y438543D02*
D03*
Y381457D02*
D03*
D81*
X132598Y438543D02*
D03*
Y381457D02*
D03*
D82*
X142500Y277000D02*
D03*
X341000Y388000D02*
D03*
X367500Y410000D02*
D03*
X410000Y294500D02*
D03*
X407000Y323500D02*
D03*
X432500Y444000D02*
D03*
X285000Y257500D02*
D03*
X155000Y440000D02*
D03*
X447500Y297500D02*
D03*
D83*
X120000Y465200D02*
D03*
X450000D02*
D03*
Y240000D02*
D03*
X120000D02*
D03*
D84*
X155000Y330000D02*
D03*
X115000D02*
D03*
X125000Y320000D02*
D03*
X135000Y330000D02*
D03*
D85*
X248918Y351040D02*
D03*
X211122D02*
D03*
D86*
X337500Y244806D02*
D03*
Y224806D02*
D03*
X317500Y244806D02*
D03*
Y224806D02*
D03*
Y460394D02*
D03*
Y480394D02*
D03*
X337500Y460394D02*
D03*
Y480394D02*
D03*
X390000Y460394D02*
D03*
Y480394D02*
D03*
X410000Y460394D02*
D03*
Y480394D02*
D03*
X232500Y460394D02*
D03*
Y480394D02*
D03*
X252500Y460394D02*
D03*
Y480394D02*
D03*
X160000Y460394D02*
D03*
Y480394D02*
D03*
X180000Y460394D02*
D03*
Y480394D02*
D03*
X410000Y244806D02*
D03*
Y224806D02*
D03*
X390000Y244806D02*
D03*
Y224806D02*
D03*
D87*
X327500Y234806D02*
D03*
Y470394D02*
D03*
X400000D02*
D03*
X242500D02*
D03*
X170000D02*
D03*
X400000Y234806D02*
D03*
D88*
X287000Y342000D02*
D03*
X292500Y348569D02*
D03*
X310750Y379932D02*
D03*
X308000Y382000D02*
D03*
X394800Y315000D02*
D03*
X295414Y313586D02*
D03*
X297000Y348000D02*
D03*
X300000Y347000D02*
D03*
X320000Y362000D02*
D03*
X313500D02*
D03*
X323000Y364000D02*
D03*
X303000Y348000D02*
D03*
X421000Y305000D02*
D03*
X411000Y338500D02*
D03*
X410000Y351000D02*
D03*
X405000D02*
D03*
X310500Y263685D02*
D03*
X310315Y254800D02*
D03*
X292000Y238000D02*
D03*
X273970Y276970D02*
D03*
X270800Y305154D02*
D03*
X267000Y305000D02*
D03*
X333000Y312000D02*
D03*
X328000D02*
D03*
X281000Y306000D02*
D03*
X285000D02*
D03*
X361000Y279000D02*
D03*
X341036Y260760D02*
D03*
X360000Y255000D02*
D03*
X380000Y289000D02*
D03*
X383000Y286000D02*
D03*
Y283000D02*
D03*
Y279000D02*
D03*
X355000Y285000D02*
D03*
X360000Y290000D02*
D03*
Y296500D02*
D03*
Y300000D02*
D03*
X415000Y260000D02*
D03*
X410000Y439500D02*
D03*
X341500Y442500D02*
D03*
X187500Y445500D02*
D03*
X252500Y440740D02*
D03*
X465000Y465000D02*
D03*
Y255000D02*
D03*
Y225000D02*
D03*
X457500Y480000D02*
D03*
X450000Y255000D02*
D03*
Y225000D02*
D03*
X442500Y480000D02*
D03*
X435000Y465000D02*
D03*
Y255000D02*
D03*
Y225000D02*
D03*
X427500Y480000D02*
D03*
X420000Y465000D02*
D03*
X427500Y450000D02*
D03*
X420000Y255000D02*
D03*
X427500Y240000D02*
D03*
X420000Y225000D02*
D03*
X397500Y480000D02*
D03*
X382500D02*
D03*
X375000Y465000D02*
D03*
X382500Y450000D02*
D03*
X375000Y255000D02*
D03*
X382500Y240000D02*
D03*
X375000Y225000D02*
D03*
X367500Y480000D02*
D03*
X360000Y465000D02*
D03*
X367500Y450000D02*
D03*
Y240000D02*
D03*
X360000Y225000D02*
D03*
X352500Y480000D02*
D03*
X345000Y465000D02*
D03*
X352500Y450000D02*
D03*
X345000Y255000D02*
D03*
X352500Y240000D02*
D03*
X345000Y225000D02*
D03*
X330000D02*
D03*
X307500Y480000D02*
D03*
X300000Y465000D02*
D03*
X307500Y450000D02*
D03*
X300000Y225000D02*
D03*
X292500Y480000D02*
D03*
X285000Y465000D02*
D03*
X292500Y450000D02*
D03*
X285000Y225000D02*
D03*
X277500Y480000D02*
D03*
X270000Y465000D02*
D03*
X277500Y450000D02*
D03*
X262500Y480000D02*
D03*
Y450000D02*
D03*
X255000Y225000D02*
D03*
X225000Y465000D02*
D03*
Y225000D02*
D03*
X217500Y480000D02*
D03*
X210000Y465000D02*
D03*
X217500Y450000D02*
D03*
X210000Y225000D02*
D03*
X202500Y480000D02*
D03*
X195000Y465000D02*
D03*
Y225000D02*
D03*
X187500Y480000D02*
D03*
Y450000D02*
D03*
X180000Y225000D02*
D03*
X172500Y480000D02*
D03*
X150000Y465000D02*
D03*
Y225000D02*
D03*
X142500Y480000D02*
D03*
X135000Y465000D02*
D03*
X142500Y450000D02*
D03*
X135000Y225000D02*
D03*
X127500Y480000D02*
D03*
Y450000D02*
D03*
X120000Y255000D02*
D03*
Y225000D02*
D03*
X112500Y480000D02*
D03*
X105000Y465000D02*
D03*
X112500Y450000D02*
D03*
X105000Y405000D02*
D03*
Y375000D02*
D03*
X112500Y360000D02*
D03*
X105000Y345000D02*
D03*
Y315000D02*
D03*
Y285000D02*
D03*
Y255000D02*
D03*
Y225000D02*
D03*
X465000Y420000D02*
D03*
Y390000D02*
D03*
Y360000D02*
D03*
Y330000D02*
D03*
Y300000D02*
D03*
Y270000D02*
D03*
X457500Y435000D02*
D03*
X450000Y420000D02*
D03*
X457500Y405000D02*
D03*
Y375000D02*
D03*
X450000Y360000D02*
D03*
X457500Y345000D02*
D03*
Y285000D02*
D03*
X442500Y435000D02*
D03*
X435000Y390000D02*
D03*
X442500Y375000D02*
D03*
Y345000D02*
D03*
Y315000D02*
D03*
X427500Y375000D02*
D03*
Y345000D02*
D03*
X412500Y435000D02*
D03*
Y375000D02*
D03*
X397500Y435000D02*
D03*
Y375000D02*
D03*
Y345000D02*
D03*
X390000Y330000D02*
D03*
X397500Y255000D02*
D03*
X375000Y420000D02*
D03*
X382500Y405000D02*
D03*
X367500Y435000D02*
D03*
X360000Y420000D02*
D03*
X367500Y405000D02*
D03*
X360000Y390000D02*
D03*
Y360000D02*
D03*
X367500Y345000D02*
D03*
X352500Y405000D02*
D03*
Y375000D02*
D03*
X345000Y360000D02*
D03*
X337500Y405000D02*
D03*
X330000Y390000D02*
D03*
X337500Y285000D02*
D03*
X322500Y435000D02*
D03*
Y285000D02*
D03*
Y255000D02*
D03*
X307500Y435000D02*
D03*
X300000Y330000D02*
D03*
Y270000D02*
D03*
X292500Y405000D02*
D03*
Y375000D02*
D03*
X285000Y270000D02*
D03*
X292500Y255000D02*
D03*
X277500Y435000D02*
D03*
Y405000D02*
D03*
Y375000D02*
D03*
X270000Y330000D02*
D03*
X277500Y255000D02*
D03*
X262500Y435000D02*
D03*
Y405000D02*
D03*
X240000Y450000D02*
D03*
X247500Y435000D02*
D03*
Y405000D02*
D03*
X240000Y360000D02*
D03*
X247500Y345000D02*
D03*
X232500Y435000D02*
D03*
X217500D02*
D03*
Y405000D02*
D03*
X210000Y360000D02*
D03*
X195000D02*
D03*
Y300000D02*
D03*
X187500Y375000D02*
D03*
Y345000D02*
D03*
X180000Y300000D02*
D03*
X187500Y255000D02*
D03*
X180000Y240000D02*
D03*
X165000Y450000D02*
D03*
X172500Y375000D02*
D03*
Y255000D02*
D03*
X165000Y240000D02*
D03*
X157500Y435000D02*
D03*
X150000Y420000D02*
D03*
X157500Y375000D02*
D03*
X150000Y330000D02*
D03*
Y300000D02*
D03*
X157500Y255000D02*
D03*
X135000Y360000D02*
D03*
Y300000D02*
D03*
X142500Y255000D02*
D03*
X127500Y345000D02*
D03*
X120000Y330000D02*
D03*
X127500Y315000D02*
D03*
X114500Y341000D02*
D03*
X110500Y288000D02*
D03*
X165500Y235000D02*
D03*
X302500Y239500D02*
D03*
X299500Y446500D02*
D03*
X289000D02*
D03*
X362500Y447500D02*
D03*
X127500Y406000D02*
D03*
X126500Y403000D02*
D03*
X154500Y239000D02*
D03*
X148962Y347436D02*
D03*
X146102Y409000D02*
D03*
X150000D02*
D03*
X114300Y395000D02*
D03*
X289780Y368220D02*
D03*
X330500Y362000D02*
D03*
X370000Y314000D02*
D03*
X363500Y315000D02*
D03*
X420000Y349500D02*
D03*
X403000Y348500D02*
D03*
X412500Y353000D02*
D03*
X371000Y283000D02*
D03*
X299000Y299500D02*
D03*
X294500Y301500D02*
D03*
X320500Y271500D02*
D03*
X176000Y258000D02*
D03*
X185000Y236000D02*
D03*
X195000Y312500D02*
D03*
X191000Y321000D02*
D03*
X436000Y410500D02*
D03*
Y422000D02*
D03*
X419500Y438000D02*
D03*
X422500Y447000D02*
D03*
X341000Y422500D02*
D03*
X305000Y443500D02*
D03*
X238000D02*
D03*
Y440000D02*
D03*
X310574Y386779D02*
D03*
X164500Y397500D02*
D03*
Y391500D02*
D03*
X169500Y408500D02*
D03*
X169324Y415347D02*
D03*
X227030Y429300D02*
D03*
X232030Y424530D02*
D03*
X199500Y414000D02*
D03*
X242500Y420000D02*
D03*
X210000Y448000D02*
D03*
X160450Y357000D02*
D03*
X305000Y440000D02*
D03*
X332000Y434000D02*
D03*
X175000Y430000D02*
D03*
X180000Y435000D02*
D03*
X195000Y440000D02*
D03*
X282800Y407500D02*
D03*
X447500Y285000D02*
D03*
X270000Y243000D02*
D03*
X392500Y265000D02*
D03*
X318000Y274000D02*
D03*
X160450Y360000D02*
D03*
X155675Y364800D02*
D03*
X152000D02*
D03*
X277000Y323000D02*
D03*
X176000Y261000D02*
D03*
X196000Y270000D02*
D03*
X408000Y409200D02*
D03*
X299000Y414500D02*
D03*
X337000Y422800D02*
D03*
X367000Y441000D02*
D03*
X303000Y293000D02*
D03*
Y272000D02*
D03*
X126729Y422789D02*
D03*
X128175Y418749D02*
D03*
X124897Y415897D02*
D03*
X124000Y420000D02*
D03*
X114800D02*
D03*
X179750Y353000D02*
D03*
X160450Y313100D02*
D03*
Y302000D02*
D03*
X188000Y324000D02*
D03*
X216500Y329000D02*
D03*
X220500Y325500D02*
D03*
X180000Y331000D02*
D03*
X186000Y275000D02*
D03*
X196000Y260000D02*
D03*
X151000Y269000D02*
D03*
X157500Y282500D02*
D03*
X162000Y268000D02*
D03*
X217500Y347500D02*
D03*
X242500D02*
D03*
X180000Y345000D02*
D03*
X290000Y339000D02*
D03*
X335000Y375000D02*
D03*
X315000D02*
D03*
X407100Y368000D02*
D03*
X420000Y352500D02*
D03*
X265000Y367500D02*
D03*
Y357500D02*
D03*
Y347500D02*
D03*
X382000Y374000D02*
D03*
X450000Y330000D02*
D03*
X449737Y319737D02*
D03*
X297223Y296620D02*
D03*
X115000Y430000D02*
D03*
X359000Y334000D02*
D03*
X162500Y242500D02*
D03*
X158240Y292500D02*
D03*
X185000Y239000D02*
D03*
X117000Y292000D02*
D03*
X382000Y314000D02*
D03*
X330000Y332000D02*
D03*
X284500Y301500D02*
D03*
X432000Y368000D02*
D03*
X308000Y384900D02*
D03*
X160039Y391573D02*
D03*
X285000Y437500D02*
D03*
X306000Y422500D02*
D03*
X347500Y417500D02*
D03*
X307500Y413500D02*
D03*
X282500Y275500D02*
D03*
X292500D02*
D03*
X222000Y360500D02*
D03*
X226000Y360000D02*
D03*
X215500Y361000D02*
D03*
X236000Y360500D02*
D03*
X243000Y361500D02*
D03*
X245000Y329000D02*
D03*
X275000Y327500D02*
D03*
X150000Y391500D02*
D03*
X160039Y425573D02*
D03*
X150000Y425500D02*
D03*
X386000Y340000D02*
D03*
X404000Y405000D02*
D03*
X395000Y398000D02*
D03*
X335500Y343000D02*
D03*
X175000Y368500D02*
D03*
X165000D02*
D03*
X333000Y290000D02*
D03*
X377500Y275000D02*
D03*
X128000Y394000D02*
D03*
X143000Y400000D02*
D03*
X128000Y412000D02*
D03*
X125000Y427000D02*
D03*
X342500Y407500D02*
D03*
X332500D02*
D03*
X167000Y410502D02*
D03*
Y413402D02*
D03*
X293833Y298010D02*
D03*
X328000Y364000D02*
D03*
X376000Y360000D02*
D03*
X351500Y358500D02*
D03*
X440000Y400000D02*
D03*
Y405000D02*
D03*
X436000Y414000D02*
D03*
X419000Y382900D02*
D03*
X436000Y419000D02*
D03*
X420000Y368000D02*
D03*
X439000Y335000D02*
D03*
X184000Y420000D02*
D03*
X205000Y448000D02*
D03*
X415000Y432500D02*
D03*
X417000Y436000D02*
D03*
X420000Y445000D02*
D03*
X402500Y420000D02*
D03*
X320000Y332000D02*
D03*
X323000Y312000D02*
D03*
X288000Y314000D02*
D03*
X274000Y317000D02*
D03*
X277000Y333000D02*
D03*
X297500Y372500D02*
D03*
X351500Y337500D02*
D03*
X345500D02*
D03*
X347500Y330000D02*
D03*
X371000Y286000D02*
D03*
X308000Y293000D02*
D03*
X392500Y420000D02*
D03*
X387500Y410000D02*
D03*
X440000Y395000D02*
D03*
X388000Y375000D02*
D03*
X395000Y368000D02*
D03*
X160450Y323000D02*
D03*
X195000Y316000D02*
D03*
X232500Y360000D02*
D03*
X376450Y314500D02*
D03*
X373550D02*
D03*
X237000Y327000D02*
D03*
X234000Y329000D02*
D03*
X226000Y327000D02*
D03*
X223000Y329000D02*
D03*
X231500Y326500D02*
D03*
X240000Y329000D02*
D03*
X242500Y325500D02*
D03*
X229000Y329000D02*
D03*
X167000Y393000D02*
D03*
Y395900D02*
D03*
M02*
