G04*
G04 #@! TF.GenerationSoftware,Altium Limited,Altium Designer,24.8.2 (39)*
G04*
G04 Layer_Color=16711935*
%FSLAX25Y25*%
%MOIN*%
G70*
G04*
G04 #@! TF.SameCoordinates,F580BFCB-8435-4B95-B66A-8E6D2DB6F108*
G04*
G04*
G04 #@! TF.FilePolarity,Negative*
G04*
G01*
G75*
G04:AMPARAMS|DCode=46|XSize=38.28mil|YSize=44.58mil|CornerRadius=11.23mil|HoleSize=0mil|Usage=FLASHONLY|Rotation=0.000|XOffset=0mil|YOffset=0mil|HoleType=Round|Shape=RoundedRectangle|*
%AMROUNDEDRECTD46*
21,1,0.03828,0.02212,0,0,0.0*
21,1,0.01582,0.04458,0,0,0.0*
1,1,0.02246,0.00791,-0.01106*
1,1,0.02246,-0.00791,-0.01106*
1,1,0.02246,-0.00791,0.01106*
1,1,0.02246,0.00791,0.01106*
%
%ADD46ROUNDEDRECTD46*%
G04:AMPARAMS|DCode=52|XSize=40.25mil|YSize=44.19mil|CornerRadius=11.73mil|HoleSize=0mil|Usage=FLASHONLY|Rotation=270.000|XOffset=0mil|YOffset=0mil|HoleType=Round|Shape=RoundedRectangle|*
%AMROUNDEDRECTD52*
21,1,0.04025,0.02072,0,0,270.0*
21,1,0.01678,0.04419,0,0,270.0*
1,1,0.02347,-0.01036,-0.00839*
1,1,0.02347,-0.01036,0.00839*
1,1,0.02347,0.01036,0.00839*
1,1,0.02347,0.01036,-0.00839*
%
%ADD52ROUNDEDRECTD52*%
G04:AMPARAMS|DCode=53|XSize=40.25mil|YSize=44.19mil|CornerRadius=11.73mil|HoleSize=0mil|Usage=FLASHONLY|Rotation=180.000|XOffset=0mil|YOffset=0mil|HoleType=Round|Shape=RoundedRectangle|*
%AMROUNDEDRECTD53*
21,1,0.04025,0.02072,0,0,180.0*
21,1,0.01678,0.04419,0,0,180.0*
1,1,0.02347,-0.00839,0.01036*
1,1,0.02347,0.00839,0.01036*
1,1,0.02347,0.00839,-0.01036*
1,1,0.02347,-0.00839,-0.01036*
%
%ADD53ROUNDEDRECTD53*%
%ADD56C,0.12000*%
G04:AMPARAMS|DCode=57|XSize=38.28mil|YSize=44.58mil|CornerRadius=11.23mil|HoleSize=0mil|Usage=FLASHONLY|Rotation=90.000|XOffset=0mil|YOffset=0mil|HoleType=Round|Shape=RoundedRectangle|*
%AMROUNDEDRECTD57*
21,1,0.03828,0.02212,0,0,90.0*
21,1,0.01582,0.04458,0,0,90.0*
1,1,0.02246,0.01106,0.00791*
1,1,0.02246,0.01106,-0.00791*
1,1,0.02246,-0.01106,-0.00791*
1,1,0.02246,-0.01106,0.00791*
%
%ADD57ROUNDEDRECTD57*%
%ADD59R,0.08474X0.08474*%
%ADD60C,0.06506*%
%ADD61O,0.09555X0.06406*%
%ADD62O,0.13492X0.06406*%
%ADD63C,0.06781*%
%ADD64C,0.24222*%
%ADD65C,0.05718*%
%ADD66C,0.06899*%
%ADD67C,0.10836*%
%ADD68R,0.09655X0.09655*%
G04:AMPARAMS|DCode=100|XSize=51.67mil|YSize=29.62mil|CornerRadius=8.91mil|HoleSize=0mil|Usage=FLASHONLY|Rotation=0.000|XOffset=0mil|YOffset=0mil|HoleType=Round|Shape=RoundedRectangle|*
%AMROUNDEDRECTD100*
21,1,0.05167,0.01181,0,0,0.0*
21,1,0.03386,0.02962,0,0,0.0*
1,1,0.01781,0.01693,-0.00591*
1,1,0.01781,-0.01693,-0.00591*
1,1,0.01781,-0.01693,0.00591*
1,1,0.01781,0.01693,0.00591*
%
%ADD100ROUNDEDRECTD100*%
G04:AMPARAMS|DCode=101|XSize=39.47mil|YSize=19.78mil|CornerRadius=6.45mil|HoleSize=0mil|Usage=FLASHONLY|Rotation=270.000|XOffset=0mil|YOffset=0mil|HoleType=Round|Shape=RoundedRectangle|*
%AMROUNDEDRECTD101*
21,1,0.03947,0.00689,0,0,270.0*
21,1,0.02657,0.01978,0,0,270.0*
1,1,0.01289,-0.00345,-0.01329*
1,1,0.01289,-0.00345,0.01329*
1,1,0.01289,0.00345,0.01329*
1,1,0.01289,0.00345,-0.01329*
%
%ADD101ROUNDEDRECTD101*%
G04:AMPARAMS|DCode=102|XSize=53.24mil|YSize=30.02mil|CornerRadius=8.88mil|HoleSize=0mil|Usage=FLASHONLY|Rotation=270.000|XOffset=0mil|YOffset=0mil|HoleType=Round|Shape=RoundedRectangle|*
%AMROUNDEDRECTD102*
21,1,0.05324,0.01225,0,0,270.0*
21,1,0.03548,0.03002,0,0,270.0*
1,1,0.01777,-0.00612,-0.01774*
1,1,0.01777,-0.00612,0.01774*
1,1,0.01777,0.00612,0.01774*
1,1,0.01777,0.00612,-0.01774*
%
%ADD102ROUNDEDRECTD102*%
G04:AMPARAMS|DCode=103|XSize=90.65mil|YSize=31.59mil|CornerRadius=9.27mil|HoleSize=0mil|Usage=FLASHONLY|Rotation=90.000|XOffset=0mil|YOffset=0mil|HoleType=Round|Shape=RoundedRectangle|*
%AMROUNDEDRECTD103*
21,1,0.09065,0.01305,0,0,90.0*
21,1,0.07211,0.03159,0,0,90.0*
1,1,0.01854,0.00653,0.03605*
1,1,0.01854,0.00653,-0.03605*
1,1,0.01854,-0.00653,-0.03605*
1,1,0.01854,-0.00653,0.03605*
%
%ADD103ROUNDEDRECTD103*%
G04:AMPARAMS|DCode=104|XSize=48.91mil|YSize=74.9mil|CornerRadius=12.87mil|HoleSize=0mil|Usage=FLASHONLY|Rotation=0.000|XOffset=0mil|YOffset=0mil|HoleType=Round|Shape=RoundedRectangle|*
%AMROUNDEDRECTD104*
21,1,0.04891,0.04916,0,0,0.0*
21,1,0.02317,0.07490,0,0,0.0*
1,1,0.02574,0.01159,-0.02458*
1,1,0.02574,-0.01159,-0.02458*
1,1,0.02574,-0.01159,0.02458*
1,1,0.02574,0.01159,0.02458*
%
%ADD104ROUNDEDRECTD104*%
G04:AMPARAMS|DCode=105|XSize=40.05mil|YSize=34.35mil|CornerRadius=10.09mil|HoleSize=0mil|Usage=FLASHONLY|Rotation=270.000|XOffset=0mil|YOffset=0mil|HoleType=Round|Shape=RoundedRectangle|*
%AMROUNDEDRECTD105*
21,1,0.04005,0.01417,0,0,270.0*
21,1,0.01988,0.03435,0,0,270.0*
1,1,0.02017,-0.00709,-0.00994*
1,1,0.02017,-0.00709,0.00994*
1,1,0.02017,0.00709,0.00994*
1,1,0.02017,0.00709,-0.00994*
%
%ADD105ROUNDEDRECTD105*%
%ADD106R,0.01781X0.02568*%
%ADD107R,0.01387X0.01702*%
G04:AMPARAMS|DCode=108|XSize=51.67mil|YSize=77.65mil|CornerRadius=12.82mil|HoleSize=0mil|Usage=FLASHONLY|Rotation=270.000|XOffset=0mil|YOffset=0mil|HoleType=Round|Shape=RoundedRectangle|*
%AMROUNDEDRECTD108*
21,1,0.05167,0.05202,0,0,270.0*
21,1,0.02603,0.07765,0,0,270.0*
1,1,0.02564,-0.02601,-0.01302*
1,1,0.02564,-0.02601,0.01302*
1,1,0.02564,0.02601,0.01302*
1,1,0.02564,0.02601,-0.01302*
%
%ADD108ROUNDEDRECTD108*%
G04:AMPARAMS|DCode=109|XSize=49.7mil|YSize=63.87mil|CornerRadius=12.83mil|HoleSize=0mil|Usage=FLASHONLY|Rotation=270.000|XOffset=0mil|YOffset=0mil|HoleType=Round|Shape=RoundedRectangle|*
%AMROUNDEDRECTD109*
21,1,0.04970,0.03821,0,0,270.0*
21,1,0.02404,0.06387,0,0,270.0*
1,1,0.02567,-0.01910,-0.01202*
1,1,0.02567,-0.01910,0.01202*
1,1,0.02567,0.01910,0.01202*
1,1,0.02567,0.01910,-0.01202*
%
%ADD109ROUNDEDRECTD109*%
%ADD110C,0.03000*%
D46*
X166949Y302500D02*
D03*
X173051D02*
D03*
X166949Y312500D02*
D03*
X173051D02*
D03*
X311949Y440000D02*
D03*
X318051D02*
D03*
X310949Y427500D02*
D03*
X317051D02*
D03*
X288051Y428500D02*
D03*
X281949D02*
D03*
X190551Y440000D02*
D03*
X184449D02*
D03*
X353051Y300000D02*
D03*
X346949D02*
D03*
X285551Y327500D02*
D03*
X279449D02*
D03*
X303051Y377500D02*
D03*
X296949D02*
D03*
X279449Y317500D02*
D03*
X285551D02*
D03*
X302500Y367500D02*
D03*
X296398D02*
D03*
X301949Y408500D02*
D03*
X308051D02*
D03*
X346949Y290000D02*
D03*
X353051D02*
D03*
X148949Y343000D02*
D03*
X155051D02*
D03*
D52*
X337500Y254547D02*
D03*
Y260453D02*
D03*
X185390Y336953D02*
D03*
Y331047D02*
D03*
X165000Y362953D02*
D03*
Y357047D02*
D03*
X175000Y362953D02*
D03*
Y357047D02*
D03*
X290000Y437047D02*
D03*
Y442953D02*
D03*
X300000Y437047D02*
D03*
Y442953D02*
D03*
X337500Y450453D02*
D03*
Y444547D02*
D03*
X410000Y450453D02*
D03*
Y444547D02*
D03*
X252500Y450693D02*
D03*
Y444787D02*
D03*
X180000Y451453D02*
D03*
Y445547D02*
D03*
X410000Y254547D02*
D03*
Y260453D02*
D03*
D53*
X120453Y415000D02*
D03*
X114547D02*
D03*
X120453Y425000D02*
D03*
X114547D02*
D03*
X115453Y390000D02*
D03*
X109547D02*
D03*
X377953Y270000D02*
D03*
X372047D02*
D03*
X302047Y287500D02*
D03*
X307953D02*
D03*
X302047Y277500D02*
D03*
X307953D02*
D03*
X387953Y360000D02*
D03*
X382047D02*
D03*
X387953Y370000D02*
D03*
X382047D02*
D03*
X240453Y352500D02*
D03*
X234547D02*
D03*
X219547D02*
D03*
X225453D02*
D03*
X345047Y353000D02*
D03*
X350953D02*
D03*
Y343000D02*
D03*
X345047D02*
D03*
D56*
X120000Y267500D02*
D03*
X450000Y437500D02*
D03*
Y267500D02*
D03*
D57*
X165000Y322839D02*
D03*
Y328942D02*
D03*
X195390Y337051D02*
D03*
Y330949D02*
D03*
X327500Y434449D02*
D03*
Y440551D02*
D03*
X175000Y434449D02*
D03*
Y440551D02*
D03*
X365000Y285551D02*
D03*
Y279449D02*
D03*
X377500D02*
D03*
Y285551D02*
D03*
X387500Y270551D02*
D03*
Y264449D02*
D03*
X327500Y264778D02*
D03*
Y270880D02*
D03*
X290000Y308051D02*
D03*
Y301949D02*
D03*
X310000Y369449D02*
D03*
Y375551D02*
D03*
X287500Y411949D02*
D03*
Y418051D02*
D03*
X320000Y369449D02*
D03*
Y375551D02*
D03*
X400000Y270551D02*
D03*
Y264449D02*
D03*
X415000Y341949D02*
D03*
Y348051D02*
D03*
D59*
X201949Y347500D02*
D03*
X258051Y367185D02*
D03*
Y327815D02*
D03*
X245571Y308130D02*
D03*
X224311D02*
D03*
X201949D02*
D03*
Y268760D02*
D03*
Y229390D02*
D03*
X235728D02*
D03*
X258051Y288445D02*
D03*
Y249075D02*
D03*
D60*
X201949Y357343D02*
D03*
Y337657D02*
D03*
X258051Y357343D02*
D03*
Y337657D02*
D03*
Y319153D02*
D03*
X201949D02*
D03*
X248917Y375453D02*
D03*
X230020D02*
D03*
X211122D02*
D03*
D61*
X109134Y438543D02*
D03*
Y381457D02*
D03*
D62*
X132598Y438543D02*
D03*
Y381457D02*
D03*
D63*
X142500Y277000D02*
D03*
X341000Y388000D02*
D03*
X367500Y410000D02*
D03*
X410000Y294500D02*
D03*
X407000Y323500D02*
D03*
X432500Y444000D02*
D03*
X285000Y257500D02*
D03*
X155000Y440000D02*
D03*
X447500Y297500D02*
D03*
D64*
X120000Y465200D02*
D03*
X450000D02*
D03*
Y240000D02*
D03*
X120000D02*
D03*
D65*
X155000Y330000D02*
D03*
X115000D02*
D03*
X125000Y320000D02*
D03*
X135000Y330000D02*
D03*
D66*
X248918Y351040D02*
D03*
X211122D02*
D03*
D67*
X337500Y244806D02*
D03*
Y224806D02*
D03*
X317500Y244806D02*
D03*
Y224806D02*
D03*
Y460394D02*
D03*
Y480394D02*
D03*
X337500Y460394D02*
D03*
Y480394D02*
D03*
X390000Y460394D02*
D03*
Y480394D02*
D03*
X410000Y460394D02*
D03*
Y480394D02*
D03*
X232500Y460394D02*
D03*
Y480394D02*
D03*
X252500Y460394D02*
D03*
Y480394D02*
D03*
X160000Y460394D02*
D03*
Y480394D02*
D03*
X180000Y460394D02*
D03*
Y480394D02*
D03*
X410000Y244806D02*
D03*
Y224806D02*
D03*
X390000Y244806D02*
D03*
Y224806D02*
D03*
D68*
X327500Y234806D02*
D03*
Y470394D02*
D03*
X400000D02*
D03*
X242500D02*
D03*
X170000D02*
D03*
X400000Y234806D02*
D03*
D100*
X174843Y347131D02*
D03*
Y343390D02*
D03*
Y339650D02*
D03*
X165157D02*
D03*
Y343390D02*
D03*
Y347131D02*
D03*
D101*
X301559Y418669D02*
D03*
X296441D02*
D03*
X299000D02*
D03*
X296441Y427331D02*
D03*
X299000D02*
D03*
X301559D02*
D03*
D102*
X321260Y280157D02*
D03*
X328740D02*
D03*
Y289843D02*
D03*
X325000D02*
D03*
X321260D02*
D03*
D103*
X332500Y355630D02*
D03*
X327500D02*
D03*
X322500D02*
D03*
X317500D02*
D03*
X312500D02*
D03*
X307500D02*
D03*
X302500D02*
D03*
X297500D02*
D03*
Y319370D02*
D03*
X302500D02*
D03*
X307500D02*
D03*
X312500D02*
D03*
X317500D02*
D03*
X322500D02*
D03*
X327500D02*
D03*
X332500D02*
D03*
X400000Y361870D02*
D03*
X405000D02*
D03*
X410000D02*
D03*
X415000D02*
D03*
X420000D02*
D03*
X425000D02*
D03*
X430000D02*
D03*
X435000D02*
D03*
Y398130D02*
D03*
X430000D02*
D03*
X425000D02*
D03*
X420000D02*
D03*
X415000D02*
D03*
X410000D02*
D03*
X405000D02*
D03*
X400000D02*
D03*
D104*
X120827Y402500D02*
D03*
X109173D02*
D03*
D105*
X175000Y321980D02*
D03*
Y328020D02*
D03*
D106*
X225157Y322500D02*
D03*
X228701D02*
D03*
X231850D02*
D03*
X235000D02*
D03*
X238543D02*
D03*
X236968Y319350D02*
D03*
X233425D02*
D03*
X230276D02*
D03*
X226732D02*
D03*
D107*
X329287Y255200D02*
D03*
X327713D02*
D03*
X329287Y450000D02*
D03*
X327713D02*
D03*
X400213D02*
D03*
X401787D02*
D03*
X242713D02*
D03*
X244287D02*
D03*
X170213D02*
D03*
X171787D02*
D03*
X401787Y255200D02*
D03*
X400213D02*
D03*
D108*
X225000Y334193D02*
D03*
Y345807D02*
D03*
X235000Y334193D02*
D03*
Y345807D02*
D03*
D109*
X154000Y352654D02*
D03*
Y359347D02*
D03*
D110*
X287000Y342000D02*
D03*
X292500Y348569D02*
D03*
X310750Y379932D02*
D03*
X308000Y382000D02*
D03*
X394800Y315000D02*
D03*
X295414Y313586D02*
D03*
X297000Y348000D02*
D03*
X300000Y347000D02*
D03*
X320000Y362000D02*
D03*
X313500D02*
D03*
X323000Y364000D02*
D03*
X303000Y348000D02*
D03*
X421000Y305000D02*
D03*
X411000Y338500D02*
D03*
X410000Y351000D02*
D03*
X405000D02*
D03*
X310500Y263685D02*
D03*
X310315Y254800D02*
D03*
X292000Y238000D02*
D03*
X273970Y276970D02*
D03*
X270800Y305154D02*
D03*
X267000Y305000D02*
D03*
X333000Y312000D02*
D03*
X328000D02*
D03*
X281000Y306000D02*
D03*
X285000D02*
D03*
X361000Y279000D02*
D03*
X341036Y260760D02*
D03*
X360000Y255000D02*
D03*
X380000Y289000D02*
D03*
X383000Y286000D02*
D03*
Y283000D02*
D03*
Y279000D02*
D03*
X355000Y285000D02*
D03*
X360000Y290000D02*
D03*
Y296500D02*
D03*
Y300000D02*
D03*
X415000Y260000D02*
D03*
X410000Y439500D02*
D03*
X341500Y442500D02*
D03*
X187500Y445500D02*
D03*
X252500Y440740D02*
D03*
X465000Y465000D02*
D03*
Y255000D02*
D03*
Y225000D02*
D03*
X457500Y480000D02*
D03*
X450000Y255000D02*
D03*
Y225000D02*
D03*
X442500Y480000D02*
D03*
X435000Y465000D02*
D03*
Y255000D02*
D03*
Y225000D02*
D03*
X427500Y480000D02*
D03*
X420000Y465000D02*
D03*
X427500Y450000D02*
D03*
X420000Y255000D02*
D03*
X427500Y240000D02*
D03*
X420000Y225000D02*
D03*
X397500Y480000D02*
D03*
X382500D02*
D03*
X375000Y465000D02*
D03*
X382500Y450000D02*
D03*
X375000Y255000D02*
D03*
X382500Y240000D02*
D03*
X375000Y225000D02*
D03*
X367500Y480000D02*
D03*
X360000Y465000D02*
D03*
X367500Y450000D02*
D03*
Y240000D02*
D03*
X360000Y225000D02*
D03*
X352500Y480000D02*
D03*
X345000Y465000D02*
D03*
X352500Y450000D02*
D03*
X345000Y255000D02*
D03*
X352500Y240000D02*
D03*
X345000Y225000D02*
D03*
X330000D02*
D03*
X307500Y480000D02*
D03*
X300000Y465000D02*
D03*
X307500Y450000D02*
D03*
X300000Y225000D02*
D03*
X292500Y480000D02*
D03*
X285000Y465000D02*
D03*
X292500Y450000D02*
D03*
X285000Y225000D02*
D03*
X277500Y480000D02*
D03*
X270000Y465000D02*
D03*
X277500Y450000D02*
D03*
X262500Y480000D02*
D03*
Y450000D02*
D03*
X255000Y225000D02*
D03*
X225000Y465000D02*
D03*
Y225000D02*
D03*
X217500Y480000D02*
D03*
X210000Y465000D02*
D03*
X217500Y450000D02*
D03*
X210000Y225000D02*
D03*
X202500Y480000D02*
D03*
X195000Y465000D02*
D03*
Y225000D02*
D03*
X187500Y480000D02*
D03*
Y450000D02*
D03*
X180000Y225000D02*
D03*
X172500Y480000D02*
D03*
X150000Y465000D02*
D03*
Y225000D02*
D03*
X142500Y480000D02*
D03*
X135000Y465000D02*
D03*
X142500Y450000D02*
D03*
X135000Y225000D02*
D03*
X127500Y480000D02*
D03*
Y450000D02*
D03*
X120000Y255000D02*
D03*
Y225000D02*
D03*
X112500Y480000D02*
D03*
X105000Y465000D02*
D03*
X112500Y450000D02*
D03*
X105000Y405000D02*
D03*
Y375000D02*
D03*
X112500Y360000D02*
D03*
X105000Y345000D02*
D03*
Y315000D02*
D03*
Y285000D02*
D03*
Y255000D02*
D03*
Y225000D02*
D03*
X465000Y420000D02*
D03*
Y390000D02*
D03*
Y360000D02*
D03*
Y330000D02*
D03*
Y300000D02*
D03*
Y270000D02*
D03*
X457500Y435000D02*
D03*
X450000Y420000D02*
D03*
X457500Y405000D02*
D03*
Y375000D02*
D03*
X450000Y360000D02*
D03*
X457500Y345000D02*
D03*
Y285000D02*
D03*
X442500Y435000D02*
D03*
X435000Y390000D02*
D03*
X442500Y375000D02*
D03*
Y345000D02*
D03*
Y315000D02*
D03*
X427500Y375000D02*
D03*
Y345000D02*
D03*
X412500Y435000D02*
D03*
Y375000D02*
D03*
X397500Y435000D02*
D03*
Y375000D02*
D03*
Y345000D02*
D03*
X390000Y330000D02*
D03*
X397500Y255000D02*
D03*
X375000Y420000D02*
D03*
X382500Y405000D02*
D03*
X367500Y435000D02*
D03*
X360000Y420000D02*
D03*
X367500Y405000D02*
D03*
X360000Y390000D02*
D03*
Y360000D02*
D03*
X367500Y345000D02*
D03*
X352500Y405000D02*
D03*
Y375000D02*
D03*
X345000Y360000D02*
D03*
X337500Y405000D02*
D03*
X330000Y390000D02*
D03*
X337500Y285000D02*
D03*
X322500Y435000D02*
D03*
Y285000D02*
D03*
Y255000D02*
D03*
X307500Y435000D02*
D03*
X300000Y330000D02*
D03*
Y270000D02*
D03*
X292500Y405000D02*
D03*
Y375000D02*
D03*
X285000Y270000D02*
D03*
X292500Y255000D02*
D03*
X277500Y435000D02*
D03*
Y405000D02*
D03*
Y375000D02*
D03*
X270000Y330000D02*
D03*
X277500Y255000D02*
D03*
X262500Y435000D02*
D03*
Y405000D02*
D03*
X240000Y450000D02*
D03*
X247500Y435000D02*
D03*
Y405000D02*
D03*
X240000Y360000D02*
D03*
X247500Y345000D02*
D03*
X232500Y435000D02*
D03*
X217500D02*
D03*
Y405000D02*
D03*
X210000Y360000D02*
D03*
X195000D02*
D03*
Y300000D02*
D03*
X187500Y375000D02*
D03*
Y345000D02*
D03*
X180000Y300000D02*
D03*
X187500Y255000D02*
D03*
X180000Y240000D02*
D03*
X165000Y450000D02*
D03*
X172500Y375000D02*
D03*
Y255000D02*
D03*
X165000Y240000D02*
D03*
X157500Y435000D02*
D03*
X150000Y420000D02*
D03*
X157500Y375000D02*
D03*
X150000Y330000D02*
D03*
Y300000D02*
D03*
X157500Y255000D02*
D03*
X135000Y360000D02*
D03*
Y300000D02*
D03*
X142500Y255000D02*
D03*
X127500Y345000D02*
D03*
X120000Y330000D02*
D03*
X127500Y315000D02*
D03*
X114500Y341000D02*
D03*
X110500Y288000D02*
D03*
X165500Y235000D02*
D03*
X302500Y239500D02*
D03*
X299500Y446500D02*
D03*
X289000D02*
D03*
X362500Y447500D02*
D03*
X127500Y406000D02*
D03*
X126500Y403000D02*
D03*
X154500Y239000D02*
D03*
X148962Y347436D02*
D03*
X146102Y409000D02*
D03*
X150000D02*
D03*
X114300Y395000D02*
D03*
X289780Y368220D02*
D03*
X330500Y362000D02*
D03*
X370000Y314000D02*
D03*
X363500Y315000D02*
D03*
X420000Y349500D02*
D03*
X403000Y348500D02*
D03*
X412500Y353000D02*
D03*
X371000Y283000D02*
D03*
X299000Y299500D02*
D03*
X294500Y301500D02*
D03*
X320500Y271500D02*
D03*
X176000Y258000D02*
D03*
X185000Y236000D02*
D03*
X195000Y312500D02*
D03*
X191000Y321000D02*
D03*
X436000Y410500D02*
D03*
Y422000D02*
D03*
X419500Y438000D02*
D03*
X422500Y447000D02*
D03*
X341000Y422500D02*
D03*
X305000Y443500D02*
D03*
X238000D02*
D03*
Y440000D02*
D03*
X310574Y386779D02*
D03*
X164500Y397500D02*
D03*
Y391500D02*
D03*
X169500Y408500D02*
D03*
X169324Y415347D02*
D03*
X227030Y429300D02*
D03*
X232030Y424530D02*
D03*
X199500Y414000D02*
D03*
X242500Y420000D02*
D03*
X210000Y448000D02*
D03*
X160450Y357000D02*
D03*
X305000Y440000D02*
D03*
X332000Y434000D02*
D03*
X175000Y430000D02*
D03*
X180000Y435000D02*
D03*
X195000Y440000D02*
D03*
X282800Y407500D02*
D03*
X447500Y285000D02*
D03*
X270000Y243000D02*
D03*
X392500Y265000D02*
D03*
X318000Y274000D02*
D03*
X160450Y360000D02*
D03*
X155675Y364800D02*
D03*
X152000D02*
D03*
X277000Y323000D02*
D03*
X176000Y261000D02*
D03*
X196000Y270000D02*
D03*
X408000Y409200D02*
D03*
X299000Y414500D02*
D03*
X337000Y422800D02*
D03*
X367000Y441000D02*
D03*
X303000Y293000D02*
D03*
Y272000D02*
D03*
X126729Y422789D02*
D03*
X128175Y418749D02*
D03*
X124897Y415897D02*
D03*
X124000Y420000D02*
D03*
X114800D02*
D03*
X179750Y353000D02*
D03*
X160450Y313100D02*
D03*
Y302000D02*
D03*
X188000Y324000D02*
D03*
X216500Y329000D02*
D03*
X220500Y325500D02*
D03*
X180000Y331000D02*
D03*
X186000Y275000D02*
D03*
X196000Y260000D02*
D03*
X151000Y269000D02*
D03*
X157500Y282500D02*
D03*
X162000Y268000D02*
D03*
X217500Y347500D02*
D03*
X242500D02*
D03*
X180000Y345000D02*
D03*
X290000Y339000D02*
D03*
X335000Y375000D02*
D03*
X315000D02*
D03*
X407100Y368000D02*
D03*
X420000Y352500D02*
D03*
X265000Y367500D02*
D03*
Y357500D02*
D03*
Y347500D02*
D03*
X382000Y374000D02*
D03*
X450000Y330000D02*
D03*
X449737Y319737D02*
D03*
X297223Y296620D02*
D03*
X115000Y430000D02*
D03*
X359000Y334000D02*
D03*
X162500Y242500D02*
D03*
X158240Y292500D02*
D03*
X185000Y239000D02*
D03*
X117000Y292000D02*
D03*
X382000Y314000D02*
D03*
X330000Y332000D02*
D03*
X284500Y301500D02*
D03*
X432000Y368000D02*
D03*
X308000Y384900D02*
D03*
X160039Y391573D02*
D03*
X285000Y437500D02*
D03*
X306000Y422500D02*
D03*
X347500Y417500D02*
D03*
X307500Y413500D02*
D03*
X282500Y275500D02*
D03*
X292500D02*
D03*
X222000Y360500D02*
D03*
X226000Y360000D02*
D03*
X215500Y361000D02*
D03*
X236000Y360500D02*
D03*
X243000Y361500D02*
D03*
X245000Y329000D02*
D03*
X275000Y327500D02*
D03*
X150000Y391500D02*
D03*
X160039Y425573D02*
D03*
X150000Y425500D02*
D03*
X386000Y340000D02*
D03*
X404000Y405000D02*
D03*
X395000Y398000D02*
D03*
X335500Y343000D02*
D03*
X175000Y368500D02*
D03*
X165000D02*
D03*
X333000Y290000D02*
D03*
X377500Y275000D02*
D03*
X128000Y394000D02*
D03*
X143000Y400000D02*
D03*
X128000Y412000D02*
D03*
X125000Y427000D02*
D03*
X342500Y407500D02*
D03*
X332500D02*
D03*
X167000Y410502D02*
D03*
Y413402D02*
D03*
X293833Y298010D02*
D03*
X328000Y364000D02*
D03*
X376000Y360000D02*
D03*
X351500Y358500D02*
D03*
X440000Y400000D02*
D03*
Y405000D02*
D03*
X436000Y414000D02*
D03*
X419000Y382900D02*
D03*
X436000Y419000D02*
D03*
X420000Y368000D02*
D03*
X439000Y335000D02*
D03*
X184000Y420000D02*
D03*
X205000Y448000D02*
D03*
X415000Y432500D02*
D03*
X417000Y436000D02*
D03*
X420000Y445000D02*
D03*
X402500Y420000D02*
D03*
X320000Y332000D02*
D03*
X323000Y312000D02*
D03*
X288000Y314000D02*
D03*
X274000Y317000D02*
D03*
X277000Y333000D02*
D03*
X297500Y372500D02*
D03*
X351500Y337500D02*
D03*
X345500D02*
D03*
X347500Y330000D02*
D03*
X371000Y286000D02*
D03*
X308000Y293000D02*
D03*
X392500Y420000D02*
D03*
X387500Y410000D02*
D03*
X440000Y395000D02*
D03*
X388000Y375000D02*
D03*
X395000Y368000D02*
D03*
X160450Y323000D02*
D03*
X195000Y316000D02*
D03*
X232500Y360000D02*
D03*
X376450Y314500D02*
D03*
X373550D02*
D03*
X237000Y327000D02*
D03*
X234000Y329000D02*
D03*
X226000Y327000D02*
D03*
X223000Y329000D02*
D03*
X231500Y326500D02*
D03*
X240000Y329000D02*
D03*
X242500Y325500D02*
D03*
X229000Y329000D02*
D03*
X167000Y393000D02*
D03*
Y395900D02*
D03*
M02*
