G04*
G04 #@! TF.GenerationSoftware,Altium Limited,Altium Designer,24.8.2 (39)*
G04*
G04 Layer_Color=32896*
%FSLAX25Y25*%
%MOIN*%
G70*
G04*
G04 #@! TF.SameCoordinates,F580BFCB-8435-4B95-B66A-8E6D2DB6F108*
G04*
G04*
G04 #@! TF.FilePolarity,Positive*
G04*
G01*
G75*
%ADD10C,0.01181*%
%ADD11C,0.01250*%
%ADD14C,0.00500*%
%ADD16C,0.00787*%
%ADD18C,0.00598*%
%ADD20C,0.00472*%
%ADD22C,0.00700*%
%ADD23C,0.01000*%
%ADD73C,0.00600*%
%ADD112C,0.01417*%
D10*
X302150Y415315D02*
G03*
X302150Y415315I-591J0D01*
G01*
D11*
X179474Y347131D02*
G03*
X179474Y347131I-625J0D01*
G01*
X321885Y293927D02*
G03*
X321885Y293927I-625J0D01*
G01*
X333125Y313415D02*
G03*
X333125Y313415I-625J0D01*
G01*
X400625Y404085D02*
G03*
X400625Y404085I-625J0D01*
G01*
D14*
X294768Y420244D02*
Y425756D01*
X303232Y420244D02*
Y425756D01*
X303000Y417244D02*
Y420244D01*
D16*
X331894Y255200D02*
G03*
X331894Y255200I-394J0D01*
G01*
Y450000D02*
G03*
X331894Y450000I-394J0D01*
G01*
X404394D02*
G03*
X404394Y450000I-394J0D01*
G01*
X246894D02*
G03*
X246894Y450000I-394J0D01*
G01*
X174394D02*
G03*
X174394Y450000I-394J0D01*
G01*
X404394Y255200D02*
G03*
X404394Y255200I-394J0D01*
G01*
D18*
X166535Y349414D02*
X173465D01*
X166535Y337367D02*
X173465D01*
Y349099D02*
X176831D01*
X319272Y288465D02*
Y291910D01*
X331024Y281535D02*
Y288465D01*
X318976Y281535D02*
Y288465D01*
X334567Y315433D02*
Y322539D01*
Y352461D02*
X335669D01*
Y322539D02*
Y352461D01*
X334567Y322539D02*
X335669D01*
X294331Y352461D02*
X295433D01*
X294331Y322539D02*
Y352461D01*
Y322539D02*
X295433D01*
X112091Y405925D02*
X117909D01*
X112091Y399075D02*
X117909D01*
X228543Y337248D02*
Y342752D01*
X221457Y337248D02*
Y342752D01*
X238543Y337248D02*
Y342752D01*
X231457Y337248D02*
Y342752D01*
X169335Y300610D02*
X170665D01*
X169335Y304390D02*
X170665D01*
X169335Y310610D02*
X170665D01*
X169335Y314390D02*
X170665D01*
X166890Y325225D02*
Y326556D01*
X163110Y325225D02*
Y326556D01*
X193501Y333335D02*
Y334665D01*
X197280Y333335D02*
Y334665D01*
X314335Y441890D02*
X315665D01*
X314335Y438110D02*
X315665D01*
X329390Y436835D02*
Y438165D01*
X325610Y436835D02*
Y438165D01*
X313335Y425610D02*
X314665D01*
X313335Y429390D02*
X314665D01*
X284335Y430390D02*
X285665D01*
X284335Y426610D02*
X285665D01*
X186835Y441890D02*
X188165D01*
X186835Y438110D02*
X188165D01*
X176890Y436835D02*
Y438165D01*
X173110Y436835D02*
Y438165D01*
X363110Y281835D02*
Y283165D01*
X366890Y281835D02*
Y283165D01*
X379390Y281835D02*
Y283165D01*
X375610Y281835D02*
Y283165D01*
X385610Y266835D02*
Y268165D01*
X389390Y266835D02*
Y268165D01*
X349335Y301890D02*
X350665D01*
X349335Y298110D02*
X350665D01*
X329390Y267163D02*
Y268494D01*
X325610Y267163D02*
Y268494D01*
X281835Y329390D02*
X283165D01*
X281835Y325610D02*
X283165D01*
X299335Y379390D02*
X300665D01*
X299335Y375610D02*
X300665D01*
X288110Y304335D02*
Y305665D01*
X291890Y304335D02*
Y305665D01*
X311890Y371835D02*
Y373165D01*
X308110Y371835D02*
Y373165D01*
X281835Y315610D02*
X283165D01*
X281835Y319390D02*
X283165D01*
X298783Y369390D02*
X300114D01*
X298783Y365610D02*
X300114D01*
X304335Y410390D02*
X305665D01*
X304335Y406610D02*
X305665D01*
X289390Y414335D02*
Y415665D01*
X285610Y414335D02*
Y415665D01*
X349335Y288110D02*
X350665D01*
X349335Y291890D02*
X350665D01*
X321890Y371835D02*
Y373165D01*
X318110Y371835D02*
Y373165D01*
X397933Y394961D02*
Y402067D01*
X396831Y365039D02*
X397933D01*
X396831D02*
Y394961D01*
X397933D01*
X437067Y365039D02*
X438169D01*
Y394961D01*
X437067D02*
X438169D01*
X398110Y266835D02*
Y268165D01*
X401890Y266835D02*
Y268165D01*
X416890Y344335D02*
Y345665D01*
X413110Y344335D02*
Y345665D01*
X151335Y341110D02*
X152665D01*
X151335Y344890D02*
X152665D01*
D20*
X172874Y321752D02*
Y329488D01*
X177126Y321752D02*
Y328248D01*
D22*
X169399Y336349D02*
Y332600D01*
X168649Y331851D01*
X167150D01*
X166400Y332600D01*
Y336349D01*
X164901Y331851D02*
X163401D01*
X164151D01*
Y336349D01*
X164901Y335599D01*
X302749Y434252D02*
Y430503D01*
X301999Y429753D01*
X300500D01*
X299750Y430503D01*
Y434252D01*
X298250Y433502D02*
X297500Y434252D01*
X296001D01*
X295251Y433502D01*
Y432752D01*
X296001Y432003D01*
X296751D01*
X296001D01*
X295251Y431253D01*
Y430503D01*
X296001Y429753D01*
X297500D01*
X298250Y430503D01*
X340249Y286249D02*
Y282501D01*
X339499Y281751D01*
X338000D01*
X337250Y282501D01*
Y286249D01*
X332751D02*
X334251Y285500D01*
X335750Y284000D01*
Y282501D01*
X335000Y281751D01*
X333501D01*
X332751Y282501D01*
Y283250D01*
X333501Y284000D01*
X335750D01*
X292835Y347249D02*
Y343500D01*
X292085Y342751D01*
X290586D01*
X289836Y343500D01*
Y347249D01*
X286087Y342751D02*
Y347249D01*
X288336Y345000D01*
X285337D01*
X280839Y347249D02*
X282338Y346499D01*
X283838Y345000D01*
Y343500D01*
X283088Y342751D01*
X281589D01*
X280839Y343500D01*
Y344250D01*
X281589Y345000D01*
X283838D01*
X119249Y406751D02*
Y411249D01*
X116999D01*
X116250Y410499D01*
Y409000D01*
X116999Y408250D01*
X119249D01*
X117749D02*
X116250Y406751D01*
X112501D02*
Y411249D01*
X114750Y409000D01*
X111751D01*
X184998Y326249D02*
Y321750D01*
X182749D01*
X181999Y322500D01*
Y325499D01*
X182749Y326249D01*
X184998D01*
X180500Y321750D02*
X179000D01*
X179750D01*
Y326249D01*
X180500Y325499D01*
X221123Y322749D02*
Y318251D01*
X218874D01*
X218124Y319001D01*
Y322000D01*
X218874Y322749D01*
X221123D01*
X216625Y318251D02*
X215125D01*
X215875D01*
Y322749D01*
X216625Y322000D01*
X210627Y318251D02*
Y322749D01*
X212876Y320500D01*
X209877D01*
X324023Y257349D02*
Y252851D01*
X321774D01*
X321024Y253601D01*
Y256599D01*
X321774Y257349D01*
X324023D01*
X319525Y252851D02*
X318025D01*
X318775D01*
Y257349D01*
X319525Y256599D01*
X315776D02*
X315026Y257349D01*
X313527D01*
X312777Y256599D01*
Y255850D01*
X313527Y255100D01*
X314276D01*
X313527D01*
X312777Y254350D01*
Y253601D01*
X313527Y252851D01*
X315026D01*
X315776Y253601D01*
X217799Y335701D02*
X218549Y334951D01*
Y333452D01*
X217799Y332702D01*
X214801D01*
X214051Y333452D01*
Y334951D01*
X214801Y335701D01*
X217799Y337200D02*
X218549Y337950D01*
Y339450D01*
X217799Y340199D01*
X217050D01*
X216300Y339450D01*
Y338700D01*
Y339450D01*
X215550Y340199D01*
X214801D01*
X214051Y339450D01*
Y337950D01*
X214801Y337200D01*
X217799Y341699D02*
X218549Y342449D01*
Y343948D01*
X217799Y344698D01*
X217050D01*
X216300Y343948D01*
Y343199D01*
Y343948D01*
X215550Y344698D01*
X214801D01*
X214051Y343948D01*
Y342449D01*
X214801Y341699D01*
X147800Y354326D02*
X148549Y353576D01*
Y352076D01*
X147800Y351327D01*
X144800D01*
X144051Y352076D01*
Y353576D01*
X144800Y354326D01*
X144051Y355825D02*
Y357325D01*
Y356575D01*
X148549D01*
X147800Y355825D01*
X144051Y359574D02*
Y361073D01*
Y360324D01*
X148549D01*
X147800Y359574D01*
X350149Y256299D02*
X350899Y257049D01*
X352398D01*
X353148Y256299D01*
Y253300D01*
X352398Y252551D01*
X350899D01*
X350149Y253300D01*
X346400Y252551D02*
Y257049D01*
X348650Y254800D01*
X345651D01*
X344151Y252551D02*
X342652D01*
X343402D01*
Y257049D01*
X344151Y256299D01*
X107000Y416999D02*
X107750Y417749D01*
X109249D01*
X109999Y416999D01*
Y414001D01*
X109249Y413251D01*
X107750D01*
X107000Y414001D01*
X105500Y413251D02*
X104001D01*
X104751D01*
Y417749D01*
X105500Y416999D01*
X107250Y427000D02*
X108000Y427749D01*
X109499D01*
X110249Y427000D01*
Y424001D01*
X109499Y423251D01*
X108000D01*
X107250Y424001D01*
X102751Y423251D02*
X105750D01*
X102751Y426250D01*
Y427000D01*
X103501Y427749D01*
X105000D01*
X105750Y427000D01*
X124350Y391100D02*
X125100Y391849D01*
X126599D01*
X127349Y391100D01*
Y388101D01*
X126599Y387351D01*
X125100D01*
X124350Y388101D01*
X122850Y391100D02*
X122100Y391849D01*
X120601D01*
X119851Y391100D01*
Y390350D01*
X120601Y389600D01*
X121351D01*
X120601D01*
X119851Y388850D01*
Y388101D01*
X120601Y387351D01*
X122100D01*
X122850Y388101D01*
X181500Y336750D02*
X182249Y336000D01*
Y334501D01*
X181500Y333751D01*
X178500D01*
X177751Y334501D01*
Y336000D01*
X178500Y336750D01*
X177751Y340499D02*
X182249D01*
X180000Y338250D01*
Y341249D01*
X166299Y369850D02*
X167049Y369100D01*
Y367601D01*
X166299Y366851D01*
X163301D01*
X162551Y367601D01*
Y369100D01*
X163301Y369850D01*
Y371350D02*
X162551Y372099D01*
Y373599D01*
X163301Y374349D01*
X166299D01*
X167049Y373599D01*
Y372099D01*
X166299Y371350D01*
X165550D01*
X164800Y372099D01*
Y374349D01*
X183099Y357276D02*
X183849Y356526D01*
Y355027D01*
X183099Y354277D01*
X180101D01*
X179351Y355027D01*
Y356526D01*
X180101Y357276D01*
X179351Y358775D02*
Y360275D01*
Y359525D01*
X183849D01*
X183099Y358775D01*
Y362524D02*
X183849Y363274D01*
Y364773D01*
X183099Y365523D01*
X180101D01*
X179351Y364773D01*
Y363274D01*
X180101Y362524D01*
X183099D01*
X286199Y438676D02*
X286949Y437926D01*
Y436427D01*
X286199Y435677D01*
X283201D01*
X282451Y436427D01*
Y437926D01*
X283201Y438676D01*
X282451Y440175D02*
Y441675D01*
Y440925D01*
X286949D01*
X286199Y440175D01*
X282451Y446173D02*
X286949D01*
X284700Y443924D01*
Y446923D01*
X296499Y438876D02*
X297249Y438126D01*
Y436627D01*
X296499Y435877D01*
X293500D01*
X292751Y436627D01*
Y438126D01*
X293500Y438876D01*
X292751Y440375D02*
Y441875D01*
Y441125D01*
X297249D01*
X296499Y440375D01*
X297249Y447123D02*
Y444124D01*
X295000D01*
X295750Y445624D01*
Y446373D01*
X295000Y447123D01*
X293500D01*
X292751Y446373D01*
Y444874D01*
X293500Y444124D01*
X377324Y265700D02*
X378074Y266449D01*
X379573D01*
X380323Y265700D01*
Y262701D01*
X379573Y261951D01*
X378074D01*
X377324Y262701D01*
X375825Y261951D02*
X374325D01*
X375075D01*
Y266449D01*
X375825Y265700D01*
X372076D02*
X371326Y266449D01*
X369827D01*
X369077Y265700D01*
Y264950D01*
X369827Y264200D01*
X369077Y263450D01*
Y262701D01*
X369827Y261951D01*
X371326D01*
X372076Y262701D01*
Y263450D01*
X371326Y264200D01*
X372076Y264950D01*
Y265700D01*
X371326Y264200D02*
X369827D01*
X295749Y289000D02*
X296499Y289749D01*
X297998D01*
X298748Y289000D01*
Y286000D01*
X297998Y285251D01*
X296499D01*
X295749Y286000D01*
X291251Y285251D02*
X294250D01*
X291251Y288250D01*
Y289000D01*
X292001Y289749D01*
X293500D01*
X294250Y289000D01*
X289751Y285251D02*
X288252D01*
X289001D01*
Y289749D01*
X289751Y289000D01*
X295999Y281500D02*
X296749Y282249D01*
X298248D01*
X298998Y281500D01*
Y278501D01*
X298248Y277751D01*
X296749D01*
X295999Y278501D01*
X291500Y277751D02*
X294499D01*
X291500Y280750D01*
Y281500D01*
X292250Y282249D01*
X293750D01*
X294499Y281500D01*
X287002Y277751D02*
X290001D01*
X287002Y280750D01*
Y281500D01*
X287752Y282249D01*
X289251D01*
X290001Y281500D01*
X387499Y366499D02*
X388249Y367249D01*
X389748D01*
X390498Y366499D01*
Y363500D01*
X389748Y362751D01*
X388249D01*
X387499Y363500D01*
X383000Y362751D02*
X385999D01*
X383000Y365750D01*
Y366499D01*
X383750Y367249D01*
X385250D01*
X385999Y366499D01*
X381501Y367249D02*
X378502D01*
Y366499D01*
X381501Y363500D01*
Y362751D01*
X382499Y377500D02*
X383249Y378249D01*
X384748D01*
X385498Y377500D01*
Y374500D01*
X384748Y373751D01*
X383249D01*
X382499Y374500D01*
X378000Y373751D02*
X380999D01*
X378000Y376750D01*
Y377500D01*
X378750Y378249D01*
X380250D01*
X380999Y377500D01*
X376501D02*
X375751Y378249D01*
X374252D01*
X373502Y377500D01*
Y376750D01*
X374252Y376000D01*
X373502Y375250D01*
Y374500D01*
X374252Y373751D01*
X375751D01*
X376501Y374500D01*
Y375250D01*
X375751Y376000D01*
X376501Y376750D01*
Y377500D01*
X375751Y376000D02*
X374252D01*
X243847Y337001D02*
X244597Y336251D01*
Y334752D01*
X243847Y334002D01*
X240848D01*
X240099Y334752D01*
Y336251D01*
X240848Y337001D01*
X243847Y338500D02*
X244597Y339250D01*
Y340750D01*
X243847Y341499D01*
X243097D01*
X242348Y340750D01*
Y340000D01*
Y340750D01*
X241598Y341499D01*
X240848D01*
X240099Y340750D01*
Y339250D01*
X240848Y338500D01*
X243847Y342999D02*
X244597Y343749D01*
Y345248D01*
X243847Y345998D01*
X240848D01*
X240099Y345248D01*
Y343749D01*
X240848Y342999D01*
X243847D01*
X250849Y358200D02*
X251599Y358949D01*
X253099D01*
X253848Y358200D01*
Y355201D01*
X253099Y354451D01*
X251599D01*
X250849Y355201D01*
X249350Y358200D02*
X248600Y358949D01*
X247100D01*
X246351Y358200D01*
Y357450D01*
X247100Y356700D01*
X247850D01*
X247100D01*
X246351Y355950D01*
Y355201D01*
X247100Y354451D01*
X248600D01*
X249350Y355201D01*
X244851Y354451D02*
X243352D01*
X244102D01*
Y358949D01*
X244851Y358200D01*
X214899Y358100D02*
X215649Y358849D01*
X217148D01*
X217898Y358100D01*
Y355100D01*
X217148Y354351D01*
X215649D01*
X214899Y355100D01*
X213400Y358100D02*
X212650Y358849D01*
X211150D01*
X210401Y358100D01*
Y357350D01*
X211150Y356600D01*
X211900D01*
X211150D01*
X210401Y355850D01*
Y355100D01*
X211150Y354351D01*
X212650D01*
X213400Y355100D01*
X206652Y354351D02*
Y358849D01*
X208901Y356600D01*
X205902D01*
X366873Y354999D02*
X367623Y355749D01*
X369123D01*
X369872Y354999D01*
Y352000D01*
X369123Y351251D01*
X367623D01*
X366873Y352000D01*
X363125Y351251D02*
Y355749D01*
X365374Y353500D01*
X362375D01*
X360875Y351251D02*
X359376D01*
X360126D01*
Y355749D01*
X360875Y354999D01*
X354128Y355749D02*
X357127D01*
Y353500D01*
X355627Y354250D01*
X354877D01*
X354128Y353500D01*
Y352000D01*
X354877Y351251D01*
X356377D01*
X357127Y352000D01*
X366873Y344000D02*
X367623Y344749D01*
X369123D01*
X369872Y344000D01*
Y341001D01*
X369123Y340251D01*
X367623D01*
X366873Y341001D01*
X363125Y340251D02*
Y344749D01*
X365374Y342500D01*
X362375D01*
X360875Y340251D02*
X359376D01*
X360126D01*
Y344749D01*
X360875Y344000D01*
X354128Y344749D02*
X355627Y344000D01*
X357127Y342500D01*
Y341001D01*
X356377Y340251D01*
X354877D01*
X354128Y341001D01*
Y341750D01*
X354877Y342500D01*
X357127D01*
X325249Y452249D02*
Y447751D01*
X323000D01*
X322250Y448500D01*
Y451500D01*
X323000Y452249D01*
X325249D01*
X320750Y451500D02*
X320001Y452249D01*
X318501D01*
X317751Y451500D01*
Y450750D01*
X318501Y450000D01*
X317751Y449250D01*
Y448500D01*
X318501Y447751D01*
X320001D01*
X320750Y448500D01*
Y449250D01*
X320001Y450000D01*
X320750Y450750D01*
Y451500D01*
X320001Y450000D02*
X318501D01*
X403749Y446749D02*
Y442251D01*
X401500D01*
X400750Y443001D01*
Y445999D01*
X401500Y446749D01*
X403749D01*
X399250Y443001D02*
X398500Y442251D01*
X397001D01*
X396251Y443001D01*
Y445999D01*
X397001Y446749D01*
X398500D01*
X399250Y445999D01*
Y445250D01*
X398500Y444500D01*
X396251D01*
X240123Y452249D02*
Y447751D01*
X237874D01*
X237124Y448500D01*
Y451500D01*
X237874Y452249D01*
X240123D01*
X235625Y447751D02*
X234125D01*
X234875D01*
Y452249D01*
X235625Y451500D01*
X231876D02*
X231126Y452249D01*
X229627D01*
X228877Y451500D01*
Y448500D01*
X229627Y447751D01*
X231126D01*
X231876Y448500D01*
Y451500D01*
X167873Y452249D02*
Y447751D01*
X165624D01*
X164874Y448500D01*
Y451500D01*
X165624Y452249D01*
X167873D01*
X163375Y447751D02*
X161875D01*
X162625D01*
Y452249D01*
X163375Y451500D01*
X159626Y447751D02*
X158127D01*
X158876D01*
Y452249D01*
X159626Y451500D01*
X396023Y257449D02*
Y252951D01*
X393774D01*
X393024Y253700D01*
Y256699D01*
X393774Y257449D01*
X396023D01*
X391525Y252951D02*
X390025D01*
X390775D01*
Y257449D01*
X391525Y256699D01*
X384777Y252951D02*
X387776D01*
X384777Y255950D01*
Y256699D01*
X385527Y257449D01*
X387026D01*
X387776Y256699D01*
X172499Y293951D02*
Y298449D01*
X170250D01*
X169500Y297699D01*
Y296200D01*
X170250Y295450D01*
X172499D01*
X171000D02*
X169500Y293951D01*
X168000D02*
X166501D01*
X167251D01*
Y298449D01*
X168000Y297699D01*
X172749Y304751D02*
Y309249D01*
X170500D01*
X169750Y308500D01*
Y307000D01*
X170500Y306250D01*
X172749D01*
X171249D02*
X169750Y304751D01*
X165251D02*
X168250D01*
X165251Y307750D01*
Y308500D01*
X166001Y309249D01*
X167500D01*
X168250Y308500D01*
X157749Y321251D02*
Y325749D01*
X155499D01*
X154750Y324999D01*
Y323500D01*
X155499Y322750D01*
X157749D01*
X156249D02*
X154750Y321251D01*
X153250Y324999D02*
X152500Y325749D01*
X151001D01*
X150251Y324999D01*
Y324250D01*
X151001Y323500D01*
X151751D01*
X151001D01*
X150251Y322750D01*
Y322001D01*
X151001Y321251D01*
X152500D01*
X153250Y322001D01*
X199351Y325951D02*
X203849D01*
Y328201D01*
X203099Y328950D01*
X201600D01*
X200850Y328201D01*
Y325951D01*
Y327451D02*
X199351Y328950D01*
X203099Y330450D02*
X203849Y331200D01*
Y332699D01*
X203099Y333449D01*
X202350D01*
X201600Y332699D01*
X200850Y333449D01*
X200100D01*
X199351Y332699D01*
Y331200D01*
X200100Y330450D01*
X200850D01*
X201600Y331200D01*
X202350Y330450D01*
X203099D01*
X201600Y331200D02*
Y332699D01*
X315849Y443851D02*
Y448349D01*
X313599D01*
X312850Y447600D01*
Y446100D01*
X313599Y445350D01*
X315849D01*
X314349D02*
X312850Y443851D01*
X311350Y444600D02*
X310600Y443851D01*
X309101D01*
X308351Y444600D01*
Y447600D01*
X309101Y448349D01*
X310600D01*
X311350Y447600D01*
Y446850D01*
X310600Y446100D01*
X308351D01*
X332873Y426551D02*
Y431049D01*
X330624D01*
X329874Y430300D01*
Y428800D01*
X330624Y428050D01*
X332873D01*
X331374D02*
X329874Y426551D01*
X328375D02*
X326875D01*
X327625D01*
Y431049D01*
X328375Y430300D01*
X324626Y426551D02*
X323127D01*
X323876D01*
Y431049D01*
X324626Y430300D01*
X319623Y430751D02*
Y435249D01*
X317374D01*
X316624Y434500D01*
Y433000D01*
X317374Y432250D01*
X319623D01*
X318124D02*
X316624Y430751D01*
X315125D02*
X313625D01*
X314375D01*
Y435249D01*
X315125Y434500D01*
X308377Y430751D02*
X311376D01*
X308377Y433750D01*
Y434500D01*
X309127Y435249D01*
X310626D01*
X311376Y434500D01*
X277587Y426251D02*
Y430749D01*
X275338D01*
X274588Y429999D01*
Y428500D01*
X275338Y427750D01*
X277587D01*
X276087D02*
X274588Y426251D01*
X273088D02*
X271589D01*
X272339D01*
Y430749D01*
X273088Y429999D01*
X269340D02*
X268590Y430749D01*
X267090D01*
X266340Y429999D01*
Y429250D01*
X267090Y428500D01*
X267840D01*
X267090D01*
X266340Y427750D01*
Y427001D01*
X267090Y426251D01*
X268590D01*
X269340Y427001D01*
X194623Y432751D02*
Y437249D01*
X192374D01*
X191624Y436500D01*
Y435000D01*
X192374Y434250D01*
X194623D01*
X193124D02*
X191624Y432751D01*
X190125D02*
X188625D01*
X189375D01*
Y437249D01*
X190125Y436500D01*
X184127Y432751D02*
Y437249D01*
X186376Y435000D01*
X183377D01*
X167251Y432377D02*
X171749D01*
Y434626D01*
X171000Y435376D01*
X169500D01*
X168750Y434626D01*
Y432377D01*
Y433876D02*
X167251Y435376D01*
Y436875D02*
Y438375D01*
Y437625D01*
X171749D01*
X171000Y436875D01*
X171749Y443623D02*
X171000Y442124D01*
X169500Y440624D01*
X168000D01*
X167251Y441374D01*
Y442873D01*
X168000Y443623D01*
X168750D01*
X169500Y442873D01*
Y440624D01*
X370523Y289251D02*
Y293749D01*
X368274D01*
X367524Y293000D01*
Y291500D01*
X368274Y290750D01*
X370523D01*
X369024D02*
X367524Y289251D01*
X366025D02*
X364525D01*
X365275D01*
Y293749D01*
X366025Y293000D01*
X362276Y293749D02*
X359277D01*
Y293000D01*
X362276Y290001D01*
Y289251D01*
X386274Y290251D02*
Y294749D01*
X384025D01*
X383275Y294000D01*
Y292500D01*
X384025Y291750D01*
X386274D01*
X384774D02*
X383275Y290251D01*
X381775D02*
X380276D01*
X381026D01*
Y294749D01*
X381775Y294000D01*
X378027D02*
X377277Y294749D01*
X375777D01*
X375027Y294000D01*
Y293250D01*
X375777Y292500D01*
X375027Y291750D01*
Y291001D01*
X375777Y290251D01*
X377277D01*
X378027Y291001D01*
Y291750D01*
X377277Y292500D01*
X378027Y293250D01*
Y294000D01*
X377277Y292500D02*
X375777D01*
X394123Y273751D02*
Y278249D01*
X391874D01*
X391124Y277500D01*
Y276000D01*
X391874Y275250D01*
X394123D01*
X392624D02*
X391124Y273751D01*
X389625D02*
X388125D01*
X388875D01*
Y278249D01*
X389625Y277500D01*
X385876Y274500D02*
X385126Y273751D01*
X383627D01*
X382877Y274500D01*
Y277500D01*
X383627Y278249D01*
X385126D01*
X385876Y277500D01*
Y276750D01*
X385126Y276000D01*
X382877D01*
X354982Y303751D02*
Y308249D01*
X352733D01*
X351983Y307500D01*
Y306000D01*
X352733Y305250D01*
X354982D01*
X353483D02*
X351983Y303751D01*
X347484D02*
X350483D01*
X347484Y306750D01*
Y307500D01*
X348234Y308249D01*
X349734D01*
X350483Y307500D01*
X345985Y303751D02*
X344485D01*
X345235D01*
Y308249D01*
X345985Y307500D01*
X342998Y266079D02*
Y270578D01*
X340749D01*
X339999Y269828D01*
Y268329D01*
X340749Y267579D01*
X342998D01*
X341498D02*
X339999Y266079D01*
X335501D02*
X338499D01*
X335501Y269078D01*
Y269828D01*
X336250Y270578D01*
X337750D01*
X338499Y269828D01*
X331002Y266079D02*
X334001D01*
X331002Y269078D01*
Y269828D01*
X331752Y270578D01*
X333251D01*
X334001Y269828D01*
X291498Y330751D02*
Y335249D01*
X289249D01*
X288499Y334500D01*
Y333000D01*
X289249Y332250D01*
X291498D01*
X289999D02*
X288499Y330751D01*
X287000Y334500D02*
X286250Y335249D01*
X284750D01*
X284000Y334500D01*
Y333750D01*
X284750Y333000D01*
X285500D01*
X284750D01*
X284000Y332250D01*
Y331501D01*
X284750Y330751D01*
X286250D01*
X287000Y331501D01*
X279502Y330751D02*
X282501D01*
X279502Y333750D01*
Y334500D01*
X280252Y335249D01*
X281751D01*
X282501Y334500D01*
X305549Y380751D02*
Y385249D01*
X303300D01*
X302550Y384500D01*
Y383000D01*
X303300Y382250D01*
X305549D01*
X304050D02*
X302550Y380751D01*
X301051Y384500D02*
X300301Y385249D01*
X298801D01*
X298052Y384500D01*
Y383750D01*
X298801Y383000D01*
X299551D01*
X298801D01*
X298052Y382250D01*
Y381501D01*
X298801Y380751D01*
X300301D01*
X301051Y381501D01*
X296552Y384500D02*
X295802Y385249D01*
X294303D01*
X293553Y384500D01*
Y383750D01*
X294303Y383000D01*
X295053D01*
X294303D01*
X293553Y382250D01*
Y381501D01*
X294303Y380751D01*
X295802D01*
X296552Y381501D01*
X305498Y302251D02*
Y306749D01*
X303249D01*
X302499Y305999D01*
Y304500D01*
X303249Y303750D01*
X305498D01*
X303998D02*
X302499Y302251D01*
X300999Y305999D02*
X300250Y306749D01*
X298750D01*
X298001Y305999D01*
Y305250D01*
X298750Y304500D01*
X299500D01*
X298750D01*
X298001Y303750D01*
Y303000D01*
X298750Y302251D01*
X300250D01*
X300999Y303000D01*
X293502Y306749D02*
X295001Y305999D01*
X296501Y304500D01*
Y303000D01*
X295751Y302251D01*
X294252D01*
X293502Y303000D01*
Y303750D01*
X294252Y304500D01*
X296501D01*
X312751Y366002D02*
X317249D01*
Y368251D01*
X316499Y369001D01*
X315000D01*
X314250Y368251D01*
Y366002D01*
Y367501D02*
X312751Y369001D01*
X316499Y370500D02*
X317249Y371250D01*
Y372750D01*
X316499Y373499D01*
X315750D01*
X315000Y372750D01*
Y372000D01*
Y372750D01*
X314250Y373499D01*
X313500D01*
X312751Y372750D01*
Y371250D01*
X313500Y370500D01*
X317249Y374999D02*
Y377998D01*
X316499D01*
X313500Y374999D01*
X312751D01*
X285248Y310251D02*
Y314749D01*
X282999D01*
X282249Y314000D01*
Y312500D01*
X282999Y311750D01*
X285248D01*
X283749D02*
X282249Y310251D01*
X278501D02*
Y314749D01*
X280750Y312500D01*
X277751D01*
X276251Y310251D02*
X274752D01*
X275501D01*
Y314749D01*
X276251Y314000D01*
X292998Y368251D02*
Y372749D01*
X290749D01*
X289999Y372000D01*
Y370500D01*
X290749Y369750D01*
X292998D01*
X291498D02*
X289999Y368251D01*
X286250D02*
Y372749D01*
X288499Y370500D01*
X285501D01*
X281002Y368251D02*
X284001D01*
X281002Y371250D01*
Y372000D01*
X281752Y372749D01*
X283251D01*
X284001Y372000D01*
X310746Y400251D02*
Y404749D01*
X308497D01*
X307747Y404000D01*
Y402500D01*
X308497Y401750D01*
X310746D01*
X309247D02*
X307747Y400251D01*
X303249Y404749D02*
X306247D01*
Y402500D01*
X304748Y403250D01*
X303998D01*
X303249Y402500D01*
Y401000D01*
X303998Y400251D01*
X305498D01*
X306247Y401000D01*
X301749Y404000D02*
X300999Y404749D01*
X299500D01*
X298750Y404000D01*
Y401000D01*
X299500Y400251D01*
X300999D01*
X301749Y401000D01*
Y404000D01*
X282348Y412951D02*
Y417449D01*
X280099D01*
X279349Y416700D01*
Y415200D01*
X280099Y414450D01*
X282348D01*
X280849D02*
X279349Y412951D01*
X274851Y417449D02*
X277850D01*
Y415200D01*
X276350Y415950D01*
X275601D01*
X274851Y415200D01*
Y413700D01*
X275601Y412951D01*
X277100D01*
X277850Y413700D01*
X273351Y412951D02*
X271852D01*
X272602D01*
Y417449D01*
X273351Y416700D01*
X355998Y292751D02*
Y297249D01*
X353749D01*
X352999Y296499D01*
Y295000D01*
X353749Y294250D01*
X355998D01*
X354499D02*
X352999Y292751D01*
X348500Y297249D02*
X351500D01*
Y295000D01*
X350000Y295750D01*
X349250D01*
X348500Y295000D01*
Y293500D01*
X349250Y292751D01*
X350750D01*
X351500Y293500D01*
X344002Y292751D02*
X347001D01*
X344002Y295750D01*
Y296499D01*
X344752Y297249D01*
X346251D01*
X347001Y296499D01*
X323751Y366753D02*
X328249D01*
Y369002D01*
X327500Y369752D01*
X326000D01*
X325250Y369002D01*
Y366753D01*
Y368252D02*
X323751Y369752D01*
X328249Y374250D02*
Y371251D01*
X326000D01*
X326750Y372751D01*
Y373500D01*
X326000Y374250D01*
X324500D01*
X323751Y373500D01*
Y372001D01*
X324500Y371251D01*
X327500Y375750D02*
X328249Y376500D01*
Y377999D01*
X327500Y378749D01*
X326750D01*
X326000Y377999D01*
Y377249D01*
Y377999D01*
X325250Y378749D01*
X324500D01*
X323751Y377999D01*
Y376500D01*
X324500Y375750D01*
Y380248D02*
X323751Y380998D01*
Y382498D01*
X324500Y383247D01*
X327500D01*
X328249Y382498D01*
Y380998D01*
X327500Y380248D01*
X326750D01*
X326000Y380998D01*
Y383247D01*
X394749Y383749D02*
Y380000D01*
X393999Y379251D01*
X392499D01*
X391750Y380000D01*
Y383749D01*
X390250Y380000D02*
X389500Y379251D01*
X388001D01*
X387251Y380000D01*
Y382999D01*
X388001Y383749D01*
X389500D01*
X390250Y382999D01*
Y382250D01*
X389500Y381500D01*
X387251D01*
X408898Y273951D02*
Y278449D01*
X406649D01*
X405899Y277699D01*
Y276200D01*
X406649Y275450D01*
X408898D01*
X407399D02*
X405899Y273951D01*
X401401Y278449D02*
X402900Y277699D01*
X404399Y276200D01*
Y274700D01*
X403650Y273951D01*
X402150D01*
X401401Y274700D01*
Y275450D01*
X402150Y276200D01*
X404399D01*
X399901Y277699D02*
X399151Y278449D01*
X397652D01*
X396902Y277699D01*
Y276950D01*
X397652Y276200D01*
X398401D01*
X397652D01*
X396902Y275450D01*
Y274700D01*
X397652Y273951D01*
X399151D01*
X399901Y274700D01*
X411498Y342251D02*
Y346749D01*
X409249D01*
X408499Y346000D01*
Y344500D01*
X409249Y343750D01*
X411498D01*
X409999D02*
X408499Y342251D01*
X404001Y346749D02*
X405500Y346000D01*
X406999Y344500D01*
Y343001D01*
X406250Y342251D01*
X404750D01*
X404001Y343001D01*
Y343750D01*
X404750Y344500D01*
X406999D01*
X400252Y342251D02*
Y346749D01*
X402501Y344500D01*
X399502D01*
X155349Y334551D02*
Y339049D01*
X153100D01*
X152350Y338299D01*
Y336800D01*
X153100Y336050D01*
X155349D01*
X153849D02*
X152350Y334551D01*
X147851Y339049D02*
X149351Y338299D01*
X150850Y336800D01*
Y335300D01*
X150101Y334551D01*
X148601D01*
X147851Y335300D01*
Y336050D01*
X148601Y336800D01*
X150850D01*
X351452Y448048D02*
X352201Y448798D01*
X353701D01*
X354451Y448048D01*
Y445049D01*
X353701Y444300D01*
X352201D01*
X351452Y445049D01*
X349952Y448048D02*
X349202Y448798D01*
X347703D01*
X346953Y448048D01*
Y447299D01*
X347703Y446549D01*
X348453D01*
X347703D01*
X346953Y445799D01*
Y445049D01*
X347703Y444300D01*
X349202D01*
X349952Y445049D01*
X342455Y448798D02*
X343954Y448048D01*
X345454Y446549D01*
Y445049D01*
X344704Y444300D01*
X343204D01*
X342455Y445049D01*
Y445799D01*
X343204Y446549D01*
X345454D01*
X422799Y452299D02*
X423549Y453049D01*
X425048D01*
X425798Y452299D01*
Y449300D01*
X425048Y448551D01*
X423549D01*
X422799Y449300D01*
X421300Y452299D02*
X420550Y453049D01*
X419050D01*
X418300Y452299D01*
Y451550D01*
X419050Y450800D01*
X419800D01*
X419050D01*
X418300Y450050D01*
Y449300D01*
X419050Y448551D01*
X420550D01*
X421300Y449300D01*
X416801Y453049D02*
X413802D01*
Y452299D01*
X416801Y449300D01*
Y448551D01*
X266452Y448289D02*
X267201Y449039D01*
X268701D01*
X269451Y448289D01*
Y445290D01*
X268701Y444540D01*
X267201D01*
X266452Y445290D01*
X264952Y448289D02*
X264202Y449039D01*
X262703D01*
X261953Y448289D01*
Y447539D01*
X262703Y446789D01*
X263453D01*
X262703D01*
X261953Y446039D01*
Y445290D01*
X262703Y444540D01*
X264202D01*
X264952Y445290D01*
X260454Y448289D02*
X259704Y449039D01*
X258204D01*
X257454Y448289D01*
Y447539D01*
X258204Y446789D01*
X257454Y446039D01*
Y445290D01*
X258204Y444540D01*
X259704D01*
X260454Y445290D01*
Y446039D01*
X259704Y446789D01*
X260454Y447539D01*
Y448289D01*
X259704Y446789D02*
X258204D01*
X193952Y449049D02*
X194701Y449798D01*
X196201D01*
X196951Y449049D01*
Y446049D01*
X196201Y445300D01*
X194701D01*
X193952Y446049D01*
X192452Y449049D02*
X191702Y449798D01*
X190203D01*
X189453Y449049D01*
Y448299D01*
X190203Y447549D01*
X190953D01*
X190203D01*
X189453Y446799D01*
Y446049D01*
X190203Y445300D01*
X191702D01*
X192452Y446049D01*
X187953D02*
X187204Y445300D01*
X185704D01*
X184955Y446049D01*
Y449049D01*
X185704Y449798D01*
X187204D01*
X187953Y449049D01*
Y448299D01*
X187204Y447549D01*
X184955D01*
X416199Y268600D02*
X416949Y269349D01*
X418448D01*
X419198Y268600D01*
Y265600D01*
X418448Y264851D01*
X416949D01*
X416199Y265600D01*
X412450Y264851D02*
Y269349D01*
X414700Y267100D01*
X411700D01*
X410201Y268600D02*
X409451Y269349D01*
X407952D01*
X407202Y268600D01*
Y265600D01*
X407952Y264851D01*
X409451D01*
X410201Y265600D01*
Y268600D01*
D23*
X226051Y325689D02*
G03*
X226051Y325689I-500J0D01*
G01*
D73*
X238878Y318376D02*
X239950D01*
Y320468D01*
X223750Y318376D02*
X224822D01*
X223750D02*
Y320468D01*
D112*
X175709Y331614D02*
G03*
X175709Y331614I-709J0D01*
G01*
M02*
