M48
;Layer_Color=9474304
;FILE_FORMAT=2:5
INCH,LZ
;TYPE=PLATED
T01F00S00C0.01200
T02F00S00C0.03150
T03F00S00C0.03346
T05F00S00C0.03740
T06F00S00C0.04000
T07F00S00C0.04016
T08F00S00C0.04134
T09F00S00C0.05906
T10F00S00C0.06693
T11F00S00C0.12500
;TYPE=NON_PLATED
T13F00S00C0.06299
%
T01
X033Y0225
X0345
X036
X0375
X03825Y024
X03675
X03525
X036Y0255
X0375
X03975
X03925Y0265
X0383Y0279
Y0283
Y0286
X038Y0289
X0371Y0286
Y0283
X0361Y0279
X0355Y0285
X036Y029
Y02965
Y03
X0333Y029
X03375Y0285
X03225
X03205Y02715
X0318Y0274
X03225Y0255
X0345
X0341036Y026076
X03775Y0275
X0415Y026
X042Y0255
X0435
X045
X0465
Y027
X04575Y0285
X04475
X0465Y03
X0421Y0305
X04275Y024
X0435Y0225
X045
X0465
X042
X0333Y0312
X0328
X0323
X0308Y0293
X0303
X0297223Y029662
X0299Y02995
X02945Y03015
X0293833Y029801
X02845Y03015
X0285Y0306
X0281
X02708Y0305154
X0267Y0305
X027397Y027697
X02825Y02755
X0285Y027
X02925Y02755
X03Y027
X0303Y0272
X03105Y0263685
X0310315Y02548
X02925Y0255
X02775
X027Y0243
X0292Y0238
X03025Y02395
X03Y0225
X0285
X0255
X0225
X021
X0195
X018
Y024
X0185Y0239
Y0236
X01655Y0235
X0165Y024
X01625Y02425
X01575Y0255
X01725
X0176Y0258
Y0261
X01875Y0255
X0196Y026
Y027
X0186Y0275
X018Y03
X0195
X016045Y0302
X015824Y02925
X01575Y02825
X0162Y0268
X0151Y0269
X01425Y0255
X012
X0105
Y0285
X01105Y0288
X0117Y0292
X0135Y03
X015
X01545Y0239
X015Y0225
X0135
X012
X0105
Y0315
X01275
X012Y033
X01145Y0341
X0105Y0345
X01125Y036
X0105Y0375
X01143Y0395
X0128Y0394
X01265Y0403
X01275Y0406
X0128Y0412
X0128175Y0418749
X0124Y042
X0124897Y0415897
X0126729Y0422789
X0125Y0427
X0115Y043
X01148Y042
X0105Y0405
X0143Y04
X0146102Y0409
X015
Y042
Y04255
X01425Y045
X01275
X01125
X0105Y0465
X0135
X015
Y03915
X0152Y03648
X0155675
X0148962Y0347436
X015Y033
X01275Y0345
X0135Y036
X016045
Y0357
X0165Y03685
X0175
X01725Y0375
X01875
X0195Y036
X021
X02155Y0361
X0222Y03605
X0226Y036
X02325
X0236Y03605
X024Y036
X0243Y03615
X02425Y03475
X02475Y0345
X0245Y0329
X024
X0237Y0327
X0234Y0329
X02315Y03265
X0229Y0329
X0226Y0327
X0223Y0329
X02205Y03255
X02165Y0329
X02175Y03475
X01875Y0345
X018
X017975Y0353
X018Y0331
X0188Y0324
X0191Y0321
X0195Y0316
Y03125
X016045Y03131
Y0323
X01575Y0375
X0160039Y0391573
X01645Y03915
X0167Y0393
Y03959
X01645Y03975
X0167Y0410502
Y0413402
X0169324Y0415347
X01695Y04085
X0184Y042
X0175Y043
X018Y0435
X01875Y04455
Y045
X0195Y044
X0205Y0448
X021
X02175Y045
Y0435
X02325
X0238Y044
Y04435
X024Y045
X02525Y044074
X02475Y0435
X02625
Y045
X02775
X02925
X0289Y04465
X02995
X0305Y04435
Y044
X03075Y0435
X0306Y04225
X03075Y04135
X0299Y04145
X02925Y0405
X02828Y04075
X02775Y0405
X02625
X02475
X02425Y042
X023203Y042453
X022703Y04293
X02175Y0405
X01995Y0414
X0160039Y0425573
X01575Y0435
X0165Y045
X0195Y0465
X021
X0225
X027
X0285
X03
X03075Y045
X0285Y04375
X02775Y0435
Y0375
X02925
X02975Y03725
X028978Y036822
X02925Y0348569
X0297Y0348
X03Y0347
X0303Y0348
X03Y033
X029Y0339
X0287Y0342
X0277Y0333
X0275Y03275
X0277Y0323
X0274Y0317
X027Y033
X0265Y03475
Y03575
Y03675
X0308Y0382
Y03849
X0310574Y0386779
X031075Y0379932
X0295414Y0313586
X0288Y0314
X02425Y03255
X032Y0332
X033
X03355Y0343
X03455Y03375
X03515
X0359Y0334
X03475Y033
X03635Y0315
X037Y0314
X037355Y03145
X037645
X0382Y0314
X03948Y0315
X039Y033
X0386Y034
X03975Y0345
X0403Y03485
X0405Y0351
X041
X04125Y0353
X042Y03525
Y03495
X04275Y0345
X04425
X0439Y0335
X045Y033
X0449737Y0319737
X04425Y0315
X0465Y033
X04575Y0345
X0465Y036
X045
X04575Y0375
X04425
X04275
X0432Y0368
X042
X04071
X0395
X03975Y0375
X0388
X0382Y0374
X0376Y036
X036
X03515Y03585
X0345Y036
X03305Y0362
X0328Y0364
X0323
X032Y0362
X03135
X0315Y0375
X0335
X03525
X036Y039
X03675Y0405
X03825
X03875Y041
X03925Y042
X04025
X0408Y04092
X0404Y0405
X0395Y0398
X0419Y03829
X04125Y0375
X0435Y039
X044Y0395
Y04
Y0405
X0436Y04105
Y0414
Y0419
Y0422
X045Y042
X0465
X04575Y0435
X04425
X04195Y0438
X0417Y0436
X04125Y0435
X0415Y04325
X041Y04395
X042Y0445
X04225Y0447
X04275Y045
X0435Y0465
X042
X0465
X04575Y0405
X0465Y039
X0411Y03385
X03675Y0345
X03525Y0405
X03425Y04075
X03375Y0405
X03325Y04075
X0337Y04228
X0341Y04225
X03475Y04175
X036Y042
X0375
X03675Y0435
X0367Y0441
X03675Y045
X03625Y04475
X03525Y045
X03415Y04425
X0332Y0434
X03225Y0435
X0345Y0465
X036
X0375
X03825Y045
X03975Y0435
X033Y039
X03525Y048
X03675
X03825
X03975
X04275
X04425
X04575
X03075
X02925
X02775
X02625
X02175
X02025
X01875
X01725
X01425
X01275
X01125
T02
X0125Y032
X0135Y033
X0115
X0155
T03
X0201949Y03475
T05
X0201949Y0319153
Y0337657
Y0357343
X0211122Y0375453
X023002
X0248917
X0258051Y0357343
Y0337657
Y0319153
T06
X0285Y02575
X0155Y044
X0341Y0388
X04325Y0444
T07
X041Y02945
X04475Y02975
X01425Y0277
X0407Y03235
X03675Y041
T08
X0201949Y022939
X0235728
X0258051Y0249075
Y0288445
X0245571Y030813
X0224311
X0201949
Y026876
X0258051Y0327815
Y0367185
T09
X03275Y0234806
X04
Y0470394
X03275
X02425
X017
T10
X03175Y0224806
Y0244806
X03375
Y0224806
X039
Y0244806
X041
Y0224806
X02525Y0460394
X02325
X018
X016
X03175
X03375
X039
X041
Y0480394
X039
X03375
X03175
X02525
X02325
X018
X016
T11
X045Y024
X012
Y04652
X045
T13
X0211122Y035104
X0248918
M30
